<?xml version="1.0" encoding="UTF-8" standalone="no"?>
<!-- Created with Inkscape (http://www.inkscape.org/) -->

<svg
   version="1.1"
   id="svg1"
   width="392"
   height="392"
   viewBox="0 0 392 392"
   xmlns="http://www.w3.org/2000/svg"
   xmlns:svg="http://www.w3.org/2000/svg">
  <defs
     id="defs1" />
  <g
     id="g1">
    <g
       id="g2">
      <path
         style="fill:#fabb03"
         d="m 355.6732,319.22924 c -4.26271,-1.52715 -14.87362,-11.70703 -90.79446,-87.10622 -55.27918,-54.89937 -86.70351,-86.81938 -88.02902,-89.41759 -3.12733,-6.13008 -2.31625,-15.32381 1.80133,-20.41824 4.62171,-5.71817 8.81561,-7.77611 15.8592,-7.78209 4.31577,-0.004 6.88512,0.55876 9.11339,1.9949 5.30034,3.41611 174.26212,171.73949 175.93989,175.27512 3.63296,7.6559 2.62025,15.6681 -2.75405,21.78909 -5.76192,6.56247 -13.1237,8.5356 -21.13628,5.66503 z"
         id="path5" />
      <path
         style="fill:#4184f2"
         d="m 190.5,279.06233 c -1.65,-0.40026 -4.39842,-1.45644 -6.10759,-2.34708 C 180.51062,274.6925 12.167922,105.08565 9.690847,100.70179 8.3176257,98.2715 7.9632964,95.887109 8.2203507,90.806368 8.5069611,85.141443 9.0244348,83.527757 11.58747,80.306368 17.639795,72.699413 27.334802,70.104604 35.5,73.906328 41.089689,76.508891 210.30987,246.10403 212.46605,251.2645 c 2.86873,6.86583 1.3844,16.92587 -3.25419,22.05531 -3.93729,4.35393 -12.98709,7.13124 -18.71186,5.74252 z"
         id="path4" />
      <path
         style="fill:#e94234"
         d="M 105.43064,384.06088 C 93.98677,381.32275 87.21418,368.97115 90.949977,357.65157 92.399463,353.25959 137.78917,307.71671 144.17195,304.25 c 9.83827,-5.34351 23.8637,-0.25904 27.76443,10.0651 1.69968,4.49858 1.27516,12.34991 -0.89809,16.60984 -1.1173,2.1901 -12.28656,13.90251 -25.94831,27.21016 -19.89657,19.38088 -24.80535,23.65583 -28.78829,25.07113 -5.24775,1.86473 -6.30281,1.94768 -10.87105,0.85465 z"
         id="path3" />
      <path
         style="fill:#33a752"
         d="M 228.5,90.850216 C 217.28013,86.715978 211.67528,73.334151 216.92323,63.210162 219.95184,57.367549 264.58671,13.528381 270,11.079581 c 13.556,-6.1323041 28,3.142525 28,17.979452 0,2.82629 -0.68965,6.592046 -1.53256,8.368347 -1.93831,4.08468 -47.83158,49.737977 -52.2712,51.997872 -4.23022,2.153305 -11.84379,2.844493 -15.69624,1.424964 z"
         id="path2" />
    </g>
  </g>
</svg>
