<svg width="51" height="51" viewBox="0 0 51 51" fill="none" xmlns="http://www.w3.org/2000/svg">
<path d="M19.301 11.4718C19.4072 10.865 19.6063 10.2782 19.8911 9.73196C20.4047 8.73772 21.182 7.90397 22.1379 7.32199C23.0937 6.74 24.1913 6.43222 25.3104 6.43232C26.4295 6.43222 27.527 6.74 28.4829 7.32199C29.4387 7.90397 30.2161 8.73772 30.7298 9.73196C30.9828 10.2257 31.1709 10.7499 31.2897 11.2918C31.2897 11.3418 31.3698 11.8217 31.3698 11.8317C31.4897 12.7316 31.5697 13.6415 31.6197 14.5614H37.829V14.1315C37.759 13.0116 37.629 11.9017 37.459 10.8118C37.459 10.6219 37.3991 10.4419 37.3591 10.2519C36.8261 7.46054 35.3361 4.94256 33.1458 3.13193C30.9555 1.3213 28.2022 0.331458 25.3604 0.33301C24.4458 0.336137 23.5341 0.436692 22.6408 0.632975C20.3301 1.1641 18.2241 2.35653 16.5799 4.06466C14.9357 5.77278 13.8244 7.9227 13.3818 10.2519C13.3818 10.4419 13.3117 10.6219 13.2817 10.8118C13.1117 11.9017 12.9817 13.0116 12.9117 14.1215V14.5614H19.0811C19.0811 13.7515 19.191 12.9416 19.291 12.1417C19.221 12.0417 19.291 11.5418 19.301 11.4718Z" fill="#F5333F"/>
<path d="M31.2598 22.0307C31.1419 22.5239 30.9639 23.0007 30.7298 23.4506C30.2161 24.4448 29.4387 25.2785 28.4829 25.8605C27.527 26.4425 26.4295 26.7503 25.3104 26.7502C24.1913 26.7503 23.0937 26.4425 22.1379 25.8605C21.182 25.2785 20.4047 24.4448 19.8911 23.4506C19.6405 22.9754 19.4586 22.467 19.3511 21.9407C19.3511 21.8707 19.2411 21.2908 19.2411 21.2708C19.1311 20.4009 19.0411 19.511 19.0011 18.6211H12.8318V19.051C12.9018 20.1809 13.0318 21.2808 13.2017 22.3807C13.2017 22.5607 13.2617 22.7506 13.3017 22.9306C13.7444 25.2598 14.8556 27.4097 16.4998 29.1178C18.144 30.826 20.25 32.0184 22.5607 32.5495C23.454 32.7458 24.3657 32.8464 25.2803 32.8495C28.1252 32.8627 30.8845 31.8771 33.0772 30.0645C35.2699 28.2518 36.7569 25.7272 37.279 22.9306C37.279 22.7506 37.3491 22.5607 37.3791 22.3807C37.5491 21.2808 37.679 20.1809 37.749 19.061V18.6211H31.5797C31.5797 19.521 31.4497 20.4109 31.3397 21.2908C31.3797 21.3308 31.2798 21.9307 31.2598 22.0307Z" fill="#F5333F"/>
<path d="M4.59272 41.7483C3.74433 41.7483 2.91497 41.9999 2.20957 42.4712C1.50416 42.9425 0.954329 43.6125 0.629665 44.3963C0.305002 45.1801 0.220162 46.0426 0.385674 46.8747C0.551186 47.7067 0.959715 48.4711 1.55961 49.071C2.15951 49.6709 2.92382 50.0794 3.7559 50.2449C4.58799 50.4104 5.45045 50.3255 6.23426 50.0008C7.01807 49.6761 7.688 49.1264 8.15934 48.4209C8.63068 47.7155 8.88228 46.8862 8.88228 46.0378C8.88228 45.4745 8.77122 44.9167 8.55566 44.3963C8.34009 43.8759 8.02415 43.403 7.62583 43.0047C7.22751 42.6063 6.75469 42.2904 6.23426 42.0748C5.71383 41.8592 5.15603 41.7483 4.59272 41.7483ZM4.59272 48.8975C4.02713 48.8975 3.47418 48.7298 3.00391 48.4155C2.53364 48.1013 2.16713 47.6547 1.95068 47.1322C1.73424 46.6096 1.67764 46.0346 1.78798 45.4799C1.89832 44.9252 2.17068 44.4156 2.57061 44.0157C2.97054 43.6158 3.48008 43.3434 4.0348 43.2331C4.58952 43.1227 5.16454 43.1794 5.68708 43.3958C6.20962 43.6123 6.65628 43.9788 6.97051 44.4491C7.28473 44.9193 7.45239 45.4722 7.45239 46.0378C7.45239 46.7962 7.15113 47.5236 6.61483 48.0599C6.07854 48.5962 5.35116 48.8975 4.59272 48.8975Z" fill="#060001"/>
<path d="M14.5917 43.1781C15.0631 43.1788 15.5271 43.296 15.9422 43.5193C16.3574 43.7426 16.711 44.065 16.9714 44.458L18.1612 43.6581C17.6505 42.8921 16.9069 42.3108 16.0404 42.0001C15.1738 41.6893 14.2302 41.6656 13.3491 41.9324C12.4681 42.1992 11.6962 42.7424 11.1476 43.4817C10.599 44.221 10.3029 45.1172 10.3029 46.0378C10.3029 46.9584 10.599 47.8546 11.1476 48.5939C11.6962 49.3332 12.4681 49.8764 13.3491 50.1432C14.2302 50.41 15.1738 50.3863 16.0404 50.0756C16.9069 49.7648 17.6505 49.1835 18.1612 48.4175L16.9714 47.6276C16.6969 48.0382 16.3206 48.3706 15.8794 48.5925C15.4382 48.8144 14.947 48.9183 14.4538 48.894C13.9605 48.8697 13.4819 48.7181 13.0646 48.4539C12.6474 48.1897 12.3056 47.822 12.0727 47.3865C11.8398 46.951 11.7236 46.4626 11.7356 45.9688C11.7475 45.4751 11.887 44.9929 12.1407 44.5691C12.3943 44.1453 12.7534 43.7945 13.1829 43.5507C13.6124 43.307 14.0978 43.1786 14.5917 43.1781Z" fill="#060001"/>
<path d="M21.431 39.1389H19.9211V50.1077H21.431V39.1389Z" fill="#060001"/>
<path d="M37.1392 41.7483C36.0015 41.7483 34.9104 42.2002 34.1059 43.0047C33.3015 43.8091 32.8496 44.9002 32.8496 46.0378C32.8496 47.1755 33.3015 48.2665 34.1059 49.071C34.9104 49.8754 36.0015 50.3273 37.1392 50.3273C38.2158 50.313 39.2434 49.8747 39.9988 49.1075V50.1074H41.4286V46.0378C41.4286 45.4745 41.3177 44.9167 41.1021 44.3963C40.8865 43.8759 40.5706 43.403 40.1723 43.0047C39.774 42.6063 39.301 42.2904 38.7806 42.0748C38.2602 41.8592 37.7025 41.7483 37.1392 41.7483ZM37.1392 48.8975C36.5736 48.8975 36.0206 48.7298 35.5504 48.4155C35.0801 48.1013 34.7136 47.6547 34.4971 47.1322C34.2807 46.6096 34.2241 46.0346 34.3344 45.4799C34.4448 44.9252 34.7171 44.4156 35.1171 44.0157C35.517 43.6158 36.0265 43.3434 36.5812 43.2331C37.136 43.1227 37.7109 43.1794 38.2334 43.3958C38.7559 43.6123 39.2026 43.9788 39.5168 44.4491C39.8311 44.9193 39.9988 45.4722 39.9988 46.0378C39.9988 46.7962 39.6974 47.5236 39.1612 48.0599C38.6249 48.5962 37.8976 48.8975 37.1392 48.8975Z" fill="#060001"/>
<path d="M50.3177 45.3277V50.1071H48.8879V45.3277C48.908 45.0337 48.8674 44.7387 48.7687 44.4611C48.67 44.1835 48.5152 43.9291 48.3141 43.7137C48.113 43.4984 47.8697 43.3267 47.5995 43.2093C47.3292 43.0919 47.0378 43.0314 46.7431 43.0314C46.4485 43.0314 46.1569 43.0919 45.8867 43.2093C45.6164 43.3267 45.3731 43.4984 45.172 43.7137C44.9709 43.9291 44.8162 44.1835 44.7175 44.4611C44.6188 44.7387 44.5783 45.0337 44.5984 45.3277V50.1071H43.1785V45.3277C43.1785 44.3809 43.5546 43.473 44.224 42.8036C44.8934 42.1341 45.8014 41.7581 46.7481 41.7581C47.6949 41.7581 48.6027 42.1341 49.2721 42.8036C49.9416 43.473 50.3177 44.3809 50.3177 45.3277Z" fill="#060001"/>
<path d="M31.3497 45.2476C31.1641 44.2731 30.6457 43.3934 29.8832 42.7588C29.1207 42.1243 28.1613 41.7743 27.1693 41.7689C26.1772 41.7634 25.2142 42.1027 24.4447 42.7289C23.6752 43.355 23.1472 44.229 22.9509 45.2014C22.7545 46.1738 22.9021 47.1842 23.3684 48.0598C23.8347 48.9355 24.5907 49.6219 25.5071 50.0017C26.4235 50.3816 27.4435 50.4312 28.3925 50.1422C29.3415 49.8532 30.1606 49.2435 30.7098 48.4173L29.5198 47.6274C29.2213 48.0743 28.803 48.428 28.3127 48.6481C27.8223 48.8681 27.2799 48.9455 26.7476 48.8714C26.2152 48.7973 25.7146 48.5747 25.303 48.2291C24.8914 47.8835 24.5855 47.4289 24.4204 46.9175C24.4204 46.8575 24.4204 46.8075 24.4204 46.7575H31.4196C31.4494 46.5787 31.4695 46.3985 31.4797 46.2175C31.4846 46.1576 31.4846 46.0974 31.4797 46.0376C31.4619 45.7707 31.4184 45.5061 31.3497 45.2476ZM24.4204 45.1577C24.607 44.5833 24.9707 44.0828 25.4592 43.7279C25.9478 43.3729 26.5363 43.1817 27.1402 43.1817C27.7441 43.1817 28.3325 43.3729 28.8211 43.7279C29.3096 44.0828 29.6732 44.5833 29.8599 45.1577V45.3276H24.3205L24.4204 45.1577Z" fill="#060001"/>
</svg>
