<?xml version="1.0" encoding="UTF-8" standalone="no"?>
<svg
   viewBox="0 0 512 512"
   version="1.1"
   id="svg1"
   width="512"
   height="512"
   xmlns="http://www.w3.org/2000/svg"
   xmlns:svg="http://www.w3.org/2000/svg">
  <defs
     id="defs1" />
  <!--! Font Awesome Free 7.1.0 by @fontawesome - https://fontawesome.com License - https://fontawesome.com/license/free (Icons: CC BY 4.0, Fonts: SIL OFL 1.1, Code: MIT License) Copyright 2025 Fonticons, Inc. -->
  <path
     fill="currentColor"
     d="m 354.9,384 c 7.3,-22.3 21.9,-42.5 38.4,-59.9 C 426,289.7 446,243.2 446,192 446,86 360,0 254,0 148,0 62,86 62,192 c 0,51.2 20,97.7 52.7,132.1 16.5,17.4 31.2,37.6 38.4,59.9 H 354.8 Z M 350,432 H 158 v 16 c 0,44.2 35.8,80 80,80 h 32 c 44.2,0 80,-35.8 80,-80 z M 246,112 c -39.8,0 -72,32.2 -72,72 0,13.3 -10.7,24 -24,24 -13.3,0 -24,-10.7 -24,-24 0,-66.3 53.7,-120 120,-120 13.3,0 24,10.7 24,24 0,13.3 -10.7,24 -24,24 z"
     id="path1" />
</svg>
