<?xml version="1.0" encoding="utf-8"?>
<!-- Generator: Adobe Illustrator 28.2.0, SVG Export Plug-In . SVG Version: 6.00 Build 0)  -->
<svg version="1.1" id="Layer_1" xmlns="http://www.w3.org/2000/svg" xmlns:xlink="http://www.w3.org/1999/xlink" x="0px" y="0px"
	 viewBox="0 0 85.04 85.04" style="enable-background:new 0 0 85.04 85.04;" xml:space="preserve">
<style type="text/css">
	.st0{fill:#DDE2FC;}
	.st1{fill:#B0B5DC;}
	.st2{fill:#CCD1EE;}
	.st3{fill:#8B90B7;}
	.st4{fill:#1B1E31;}
</style>
<g>
	<path class="st0" d="M19.68,34.24c0.78-4.3,2.22-8.35,4.88-11.87c2.3-3.05,4.95-5.65,8.4-7.52c2.22-1.2,4.48-2.06,6.87-2.78
		c2.56-0.77,5.16-0.78,7.78-0.73c-0.63,1.24,0.32,1.59,1.14,2.01c2.79,1.42,5.11,3.32,6.43,6.26c1.04,2.33,1.43,4.72,1.54,7.29
		c0.1,2.35-0.05,4.61-0.51,6.86c-0.57,2.84-2.11,5.2-4.03,7.36c-2.29,2.57-5.16,4.26-8.39,5.15c-3.78,1.05-7.72,1.1-11.64,0.87
		c-4.62-0.28-9.61-2.78-11.04-7.9c-0.21-0.77-0.61-1.5-1.65-1.33c-0.01-0.3-0.15-0.52-0.37-0.71
		C20.02,36.36,19.43,35.22,19.68,34.24z M48.42,33.72c-0.89,0-1.64,0-2.38,0c-0.43,0-0.72,0.07-0.82,0.61
		c-0.34,1.85-0.03,2.27,1.79,2.28c0.22,0,0.44-0.02,0.66,0.01c0.46,0.06,1.14-0.26,1.33,0.21c0.24,0.59-0.24,1.13-0.69,1.58
		c-1.7,1.71-4.42,1.75-6.3,0.08c-1.51-1.35-1.76-4.26-0.51-5.91c1.49-1.96,4.12-2.48,6.06-1.13c0.49,0.34,0.73,0.27,1.08-0.09
		c0.34-0.34,0.7-0.66,1.07-0.97c0.64-0.53,0.48-0.86-0.17-1.27c-2.15-1.38-4.39-1.82-6.86-0.93c-3.65,1.31-5.8,5.11-4.92,8.79
		c0.92,3.83,4.53,6.22,8.55,5.67c3.7-0.51,6.12-3.55,6.03-7.54c-0.01-0.69-0.09-1.07-0.95-1.21C50.36,33.72,49.32,33.78,48.42,33.72
		z"/>
	<path class="st1" d="M75.48,36.89c4.31,5.63,5.39,11.79,2.26,18.21c-3.11,6.38-8.55,9.57-15.64,9.91c0.44-0.79,0.88-1.58,1.32-2.37
		c0.65-0.03,1.36,0.11,1.95-0.1c5.22-1.91,8.99-5.19,10.15-10.92c0.76-3.74-0.21-7.06-2.22-10.18c-0.16-0.24-0.34-0.58-0.7-0.48
		c-0.32,0.09-0.19,0.44-0.24,0.68c-0.56,3.06-1.58,5.96-3.18,8.64c-0.42-0.19-0.18,0.18-0.25,0.29l0.01,0
		c-0.37-0.04-0.7,0.02-0.88,0.4c-0.66,1.37-1.83,2.33-2.78,3.46c-2.48,2.98-5.65,5.06-9.05,6.75c-2.21,1.1-4.6,1.87-7.04,2.45
		c0.36,0.06,0.71,0.12,1.05,0.06c3.05-0.6,6.01-1.49,8.72-3.06c0.57-0.33,1.11-0.7,1.67-1.04c0.73-0.45,1.19-0.48,1.21,0.62
		c0.02,1.05-0.25,1.94-0.78,2.85c-1.04,1.77-2.66,2.82-4.33,3.87c-1.55,0.98-3.05,2.03-4.62,3.08c0.49,0.45,0.96,0.21,1.36,0.31
		c-1.26,0.72-2.64,1.06-4.06,1.27c-0.72-0.61-1.43,0-2.13,0.06c-0.97,0.08-1.41-0.76-2.14-1.06c-0.19-0.08,0.41-0.84,0.68-1.27
		c0.42-0.68,0.57-1.44,0.77-2.21c0.3-1.14,0.2-2.6,1.82-2.95c-0.06-0.05-0.11-0.11-0.17-0.15c-0.03-0.02-0.08-0.02-0.13-0.03
		c-1.47-0.43-2.95-0.38-4.42-0.02c-1.02,0.11-1.99-0.21-2.97-0.39c-6.03-1.14-10.95-4.2-15.06-8.7c-0.71-0.78-1.62-1.37-2.71-1.56
		c-0.1-0.74-0.21-1.47-0.31-2.21c0.23-0.2,0.16-0.37-0.05-0.53c-0.13-0.34-0.25-0.68-0.38-1.03c0.33-0.79,0.76-0.52,1.2-0.11
		c1.4,1.29,2.79,2.53,4.51,3.47c2.67,1.46,5.38,2.76,8.44,2.91c5.05,0.24,10.02-0.04,14.79-2.12c4.94-2.15,8.89-5.36,11.5-10.08
		c1.59-2.88,2.71-5.87,2.97-9.26c0.23-2.89-0.01-5.66-0.74-8.4c-0.78-2.93-2.06-5.67-3.72-8.21c-0.4-0.6-0.45-1.1-0.13-1.69
		c6.07,4.09,9.7,9.77,11.07,16.93c0.07,0.34,0.17,0.67,0.25,1.01c0,0.52,0.05,1.05-0.01,1.56c-0.11,0.95,0.29,1.4,1.13,1.89
		C74.5,38.03,74.83,37.07,75.48,36.89z M48.11,57.88c-0.09-0.14-0.17-0.13-0.25,0.02c-0.35,0.01-0.7,0.03-1.06,0.04
		c-0.28-0.37-0.55-0.35-0.81,0.02c-0.34,0.14-0.68,0.11-1.02,0.01c-0.44-0.43-0.89-0.43-1.34-0.03c-2.09-0.01-4.12-0.42-6.13-0.95
		c-0.99-0.26-1.99-0.64-3.04-0.16c-1.14,0.52-1.35,1.19-0.5,2.1c1,1.07,2.2,1.74,3.68,2.12c3.31,0.86,6.64,1.38,10.06,1.05
		c2.74-0.26,5.49-0.64,7.87-2.2c0.55-0.36,1.31-0.79,1.04-1.62c-0.26-0.77-0.94-1.25-1.76-1.38c-0.47-0.07-1.16-0.19-1.41,0.05
		c-1.01,1.01-2.84-0.28-3.57,1.34c-0.08,0.17-0.22-0.05-0.28-0.12C49.18,57.7,48.6,58.02,48.11,57.88z"/>
	<path class="st2" d="M61.03,16.03c-0.32,0.59-0.27,1.09,0.13,1.69c1.67,2.54,2.94,5.27,3.72,8.21c0.73,2.75,0.97,5.51,0.74,8.4
		c-0.26,3.39-1.38,6.38-2.97,9.26c-2.62,4.73-6.56,7.93-11.5,10.08c-4.77,2.08-9.74,2.36-14.79,2.12c-3.06-0.15-5.76-1.44-8.44-2.91
		c-1.72-0.94-3.11-2.18-4.51-3.47c-0.44-0.41-0.87-0.68-1.2,0.11c-0.23-0.46-0.47-0.92-0.7-1.39c-1.3-2.72-1.62-5.69-2.12-8.61
		c0.02-0.54,0.05-1.08,0.07-1.62c1.04-0.17,1.43,0.56,1.65,1.33c1.43,5.12,6.42,7.62,11.04,7.9c3.92,0.24,7.86,0.18,11.64-0.87
		c3.22-0.89,6.09-2.59,8.39-5.15c1.92-2.15,3.46-4.52,4.03-7.36c0.45-2.25,0.61-4.51,0.51-6.86c-0.11-2.58-0.5-4.97-1.54-7.29
		c-1.32-2.94-3.64-4.83-6.43-6.26c-0.81-0.41-1.76-0.77-1.14-2.01c2.2,0.42,4.46,0.43,6.61,1.26
		C56.61,13.53,58.97,14.46,61.03,16.03z"/>
	<path class="st3" d="M19.46,37.91c-0.02,0.54-0.05,1.08-0.07,1.62c-0.56-0.14-0.77,0.22-0.97,0.64c-1.84,3.83-2.32,7.88-1.78,12.03
		c0.69,5.37,2.83,10.07,6.97,13.71c2.1,1.84,4.48,3.12,7.37,3.1c0.43,0,1.03,0.14,1.2-0.3c0.19-0.5-0.45-0.65-0.76-0.91
		c-4.63-3.79-7.5-8.6-8.47-14.52c1.09,0.19,2,0.78,2.71,1.56c4.1,4.5,9.03,7.56,15.06,8.7c0.98,0.19,1.95,0.51,2.97,0.39
		c1.47,0.01,2.95,0.02,4.42,0.02c0.04,0.01,0.09,0,0.13,0.03c0.06,0.04,0.11,0.1,0.17,0.15c-1.62,0.35-1.52,1.81-1.82,2.95
		c-0.2,0.76-0.35,1.52-0.77,2.21c-0.27,0.43-0.87,1.2-0.68,1.27c0.74,0.3,1.17,1.14,2.14,1.06c0.7-0.05,1.41-0.67,2.13-0.06
		c-4.56,1.07-9.01,0.71-13.35-1.04c-0.51-0.21-1.02-0.27-1.54-0.16c-1.96,0.4-3.92,0.32-5.87,0c-0.77-0.66-1.83-0.73-2.68-1.25
		c-0.43-0.27-0.87-0.61-1.43-0.57c-3.08,0.22-5.98-0.38-8.76-1.74c-0.59-0.29-1.14-0.84-1.91-0.7c0,0,0,0,0,0
		c-0.06-0.82-0.55-1.1-1.31-1.07c-0.44-0.44-0.87-0.88-1.31-1.32c0.02-0.58-0.08-1.05-0.81-1.03c0,0,0,0,0-0.01
		c0.08-0.82-0.41-1.5-0.58-2.26c-0.18-0.77,0.05-1.29,0.87-1.43c0.86-0.15,1.7-0.33,2.59-0.29c0.83,0.04,1.66,0.03,2.48-0.07
		c0.93-0.11,1.39-0.5,0.95-1.58c-0.74-1.82-1.01-3.77-1.28-5.71c-0.01-1.23-0.02-2.47-0.03-3.7c0.02-0.08,0.02-0.16,0.01-0.24
		c0.02-0.35,0.03-0.69,0.05-1.04c0.42-2.55,1.11-5.03,2.18-7.39c0.52-0.55,0.55-1.5,1.42-1.78C19.31,37.39,19.45,37.61,19.46,37.91z
		"/>
	<path class="st1" d="M15.47,51.35c0.27,1.94,0.54,3.89,1.28,5.71c0.44,1.08-0.02,1.47-0.95,1.58c-0.82,0.09-1.66,0.11-2.48,0.07
		c-0.89-0.05-1.73,0.14-2.59,0.29c-0.82,0.14-1.04,0.66-0.87,1.43c0.17,0.76,0.65,1.44,0.58,2.26c-2-2.12-2.8-4.78-3.38-7.54
		c-0.12-0.55-0.17-1.12-0.25-1.68c0.75-0.34,0.98-1.28,1.88-1.51c1.99-0.5,4.06-0.39,6.05-0.85C14.95,51.06,15.22,51.26,15.47,51.35
		z"/>
	<path class="st0" d="M17.67,38.98c-1.07,2.36-1.76,4.84-2.18,7.39c-0.4-0.24-0.78-0.17-1.24-0.14c-1.32,0.11-2.62,0.65-3.99,0.15
		c-1.12-0.41-1.72,0.9-2.72,1c0.26-2.4,1.65-4.28,2.95-6.19c1.04-1.53,2.39-2.77,3.92-3.8c0.11,0.71,0.11,1.68,1.13,1.46
		C16.32,38.69,16.97,38.87,17.67,38.98z"/>
	<path class="st2" d="M63.42,62.64c-0.44,0.79-0.88,1.58-1.32,2.37c-2.46,2.19-5.14,4.02-8.21,5.26c-0.1-0.16-0.18-0.1-0.24,0.03
		l-0.09,0.02c0,0-0.09,0-0.09,0c-0.41-0.1-0.87,0.14-1.36-0.31c1.57-1.05,3.07-2.1,4.62-3.08c1.67-1.05,3.29-2.1,4.33-3.87
		c0.53-0.91,0.8-1.8,0.78-2.85c-0.02-1.1-0.47-1.07-1.21-0.62c-0.56,0.34-1.1,0.71-1.67,1.04c-2.71,1.58-5.67,2.46-8.72,3.06
		c-0.33,0.07-0.69,0.01-1.05-0.06c2.44-0.58,4.83-1.35,7.04-2.45c3.4-1.69,6.57-3.78,9.05-6.75c0.95-1.14,2.11-2.1,2.78-3.46
		c0.18-0.38,0.51-0.44,0.88-0.4c-0.45,1.21-1.33,2.14-2.03,3.2c-0.98,1.48-3.18,2.41-2.26,4.79c0.04,0.1-0.06,0.25-0.09,0.38
		C64.27,60.19,63.94,61.45,63.42,62.64z"/>
	<path class="st2" d="M7.54,47.38c1-0.1,1.6-1.41,2.72-1c1.38,0.5,2.67-0.03,3.99-0.15c0.45-0.04,0.84-0.1,1.24,0.14
		c-0.02,0.35-0.03,0.69-0.05,1.04c-0.03,0.02-0.09,0.05-0.09,0.06c0.02,0.06,0.05,0.12,0.08,0.17c0.01,1.23,0.02,2.47,0.03,3.7
		c-0.25-0.09-0.52-0.29-0.73-0.24c-1.99,0.46-4.06,0.35-6.05,0.85c-0.89,0.22-1.12,1.17-1.88,1.51C6.74,51.4,6.63,49.33,7.54,47.38z
		"/>
	<path class="st1" d="M13.87,66.11c0.77-0.14,1.32,0.41,1.91,0.7c2.78,1.37,5.68,1.97,8.76,1.74c0.56-0.04,1,0.31,1.43,0.57
		c0.85,0.53,1.9,0.59,2.68,1.25c-2.38,0.5-4.66-0.14-6.95-0.59c-2.52-0.5-4.8-1.57-6.99-2.88C14.36,66.7,14.06,66.47,13.87,66.11z"
		/>
	<path class="st2" d="M17.67,38.98c-0.7-0.11-1.36-0.29-2.13-0.12c-1.02,0.21-1.02-0.75-1.13-1.46c1.6-1.31,3.4-2.28,5.27-3.15
		c-0.24,0.98,0.34,2.12-0.59,2.97C18.22,37.48,18.2,38.43,17.67,38.98z"/>
	<path class="st2" d="M75.48,36.89c-0.66,0.18-0.98,1.14-2.01,0.53c-0.84-0.49-1.24-0.94-1.13-1.89c0.06-0.51,0.01-1.04,0.01-1.56
		C73.59,34.74,74.66,35.68,75.48,36.89z"/>
	<path class="st1" d="M12.56,65.04c0.76-0.04,1.25,0.25,1.31,1.07C13.24,65.99,12.88,65.54,12.56,65.04z"/>
	<path class="st1" d="M10.43,62.69c0.73-0.02,0.84,0.45,0.81,1.03C10.82,63.5,10.51,63.19,10.43,62.69z"/>
	<path class="st1" d="M53.65,70.3c0.06-0.13,0.14-0.19,0.24-0.03C53.81,70.29,53.73,70.3,53.65,70.3z"/>
	<path class="st1" d="M48.42,33.72c0.9,0.05,1.94,0,3,0.17c0.86,0.14,0.93,0.52,0.95,1.21c0.08,3.99-2.33,7.03-6.03,7.54
		c-4.02,0.55-7.64-1.84-8.55-5.67c-0.88-3.67,1.27-7.47,4.92-8.79c2.47-0.89,4.7-0.45,6.86,0.93c0.64,0.41,0.81,0.74,0.17,1.27
		c-0.37,0.31-0.74,0.63-1.07,0.97c-0.35,0.36-0.59,0.43-1.08,0.09c-1.95-1.35-4.57-0.83-6.06,1.13c-1.25,1.64-1,4.56,0.51,5.91
		c1.87,1.67,4.59,1.64,6.3-0.08c0.45-0.45,0.92-0.99,0.69-1.58c-0.19-0.47-0.87-0.15-1.33-0.21c-0.22-0.03-0.44-0.01-0.66-0.01
		c-1.82-0.01-2.13-0.43-1.79-2.28c0.1-0.54,0.4-0.61,0.82-0.61C46.78,33.72,47.53,33.72,48.42,33.72z"/>
	<path class="st4" d="M22.95,53.29c0.97,5.92,3.84,10.73,8.47,14.52c0.31,0.26,0.95,0.41,0.76,0.91c-0.17,0.44-0.77,0.3-1.2,0.3
		c-2.9,0.02-5.27-1.26-7.37-3.1c-4.14-3.64-6.27-8.34-6.97-13.71c-0.54-4.15-0.06-8.2,1.78-12.03c0.2-0.42,0.41-0.78,0.97-0.64
		c0.51,2.92,0.82,5.89,2.12,8.61c0.22,0.47,0.46,0.93,0.7,1.39c0.13,0.34,0.25,0.68,0.38,1.03c0.02,0.18,0.03,0.36,0.05,0.53
		C22.74,51.82,22.85,52.56,22.95,53.29z"/>
	<path class="st3" d="M63.42,62.64c0.52-1.2,0.85-2.45,1.15-3.71c0.03-0.13,0.13-0.28,0.09-0.38c-0.91-2.38,1.29-3.31,2.26-4.79
		c0.7-1.05,1.58-1.99,2.03-3.2c0,0-0.01,0-0.01,0c0.08-0.1,0.16-0.19,0.25-0.29c1.6-2.68,2.62-5.58,3.18-8.64
		c0.04-0.24-0.08-0.59,0.24-0.68c0.36-0.1,0.54,0.23,0.7,0.48c2,3.12,2.97,6.45,2.22,10.18c-1.16,5.73-4.93,9.01-10.15,10.92
		C64.78,62.76,64.07,62.62,63.42,62.64z"/>
	<path class="st4" d="M44.98,57.96c0.34,0.1,0.68,0.13,1.02-0.01c0.27-0.01,0.54-0.01,0.81-0.02c0.35-0.01,0.7-0.03,1.06-0.04
		c0,0,0.13,0.02,0.13,0.02l0.12-0.04c0.49,0.14,1.06-0.18,1.49,0.3c0.06,0.07,0.2,0.29,0.28,0.12c0.73-1.63,2.56-0.34,3.57-1.34
		c0.25-0.25,0.94-0.13,1.41-0.05c0.82,0.13,1.5,0.61,1.76,1.38c0.28,0.82-0.48,1.25-1.04,1.62c-2.38,1.56-5.12,1.94-7.87,2.2
		c-3.41,0.32-6.74-0.19-10.06-1.05c-1.48-0.38-2.68-1.05-3.68-2.12c-0.84-0.91-0.63-1.57,0.5-2.1c1.05-0.48,2.05-0.1,3.04,0.16
		c2.01,0.53,4.04,0.94,6.13,0.95C44.09,57.94,44.54,57.95,44.98,57.96z"/>
	<path class="st2" d="M48.11,63.97c-1.47-0.01-2.95-0.02-4.42-0.02C45.16,63.59,46.64,63.54,48.11,63.97z"/>
	<path class="st2" d="M44.98,57.96c-0.45-0.01-0.89-0.02-1.34-0.03C44.1,57.53,44.54,57.53,44.98,57.96z"/>
	<path class="st2" d="M46.81,57.93c-0.27,0.01-0.54,0.01-0.81,0.02C46.26,57.59,46.53,57.57,46.81,57.93z"/>
	<path class="st2" d="M69.18,50.28c-0.08,0.1-0.16,0.19-0.25,0.29C69,50.46,68.76,50.09,69.18,50.28z"/>
	<path class="st3" d="M22.64,51.09c-0.02-0.18-0.03-0.36-0.05-0.53C22.8,50.71,22.87,50.89,22.64,51.09z"/>
	<path class="st2" d="M48.11,57.88l-0.12,0.04c0,0-0.13-0.02-0.13-0.02C47.94,57.75,48.02,57.74,48.11,57.88z"/>
	<path class="st0" d="M15.43,47.64c-0.03-0.06-0.06-0.11-0.08-0.17c0-0.01,0.06-0.04,0.09-0.06C15.46,47.49,15.45,47.57,15.43,47.64
		z"/>
</g>
</svg>
