<?xml version="1.0" encoding="utf-8"?>
<!-- Generator: Adobe Illustrator 28.2.0, SVG Export Plug-In . SVG Version: 6.00 Build 0)  -->
<svg version="1.1" id="Layer_1" xmlns="http://www.w3.org/2000/svg" xmlns:xlink="http://www.w3.org/1999/xlink" x="0px" y="0px"
	 viewBox="0 0 85.04 85.04" style="enable-background:new 0 0 85.04 85.04;" xml:space="preserve">
<style type="text/css">
	.st0{fill:#D2D2D2;}
	.st1{fill:#484949;}
	.st2{fill:#FEFEFE;}
</style>
<g>
	<g>
		<path class="st0" d="M45.12,54.7c-0.12,0.53-0.61,0.47-0.98,0.61c-2.03-0.43-2.66-1.26-2.53-3.37c0.06-1-0.12-1.96-0.63-2.8
			c-0.59-0.95-1.26-1.85-1.95-2.73c-1.7-2.18-3.37-4.38-4.96-6.64c-0.38-0.54-0.7-1.19-1.31-1.53c-1.6-0.87-3.18-1.76-4.83-2.52
			c-1.62-0.75-2.81-1.98-3.95-3.27c-0.39-0.44-0.6-1.01-0.58-1.63c0.36-0.91,0.12-1.86,0.15-2.79c0.02-0.61,0.14-1.06,0.76-1.2
			c0.77-0.18,1.66-0.52,2.31-0.01c0.48,0.37,1.01,0.89,1.16,1.62c0.13,0.62,0.48,0.56,0.74,0.08c0.47-0.89,1.26-1.46,2-2.08
			c0.41-0.35,0.84-0.44,1.39-0.32c0.75,0.16,1.39,0.65,2.19,0.64c0.46,0,0.92,0.05,0.77-0.76c0.48,0.94,1.97,0.42,2.08,1.71
			c0,0.03,0.19,0.1,0.22,0.08c0.4-0.39,0.87,0.04,1.28-0.12c-0.46,0.53-1.06,0.85-1.71,1.13c0.54,0.88,1.8-0.27,2.21,0.95
			c0-0.66-0.01-1.21,0-1.77c0-0.24,0.06-0.49-0.31-0.48c0.08-0.62,0.56-0.58,1-0.58c2.69,0,5.38,0.01,8.08,0.01
			c0.36,0,0.72-0.02,0.84,0.44c-0.09,0.36,0.08,0.58,0.34,0.83c0.45,0.42,1.22,0.62,1.44,1.09c0.5,1.02,1.14,0.79,2.01,0.75
			c3.46-0.18,6.92,0.19,10.39,0.33c1.89,0.07,2.39,1.03,2.23,2.66c-0.07,0.67-0.14,1.35-0.2,2.02c-0.1,1.08,0.08,2.31-1.37,2.71
			c-0.36,0.45-0.83,0.58-1.39,0.56c-1.02-0.03-2.04,0.03-3.06-0.02c-0.55-0.02-0.74,0.2-0.7,0.71c-0.36-0.16-0.41-0.67-1.04-0.59
			c-2.24,0.3-4.41,1.18-6.77,0.71c-1.06-0.21-2.22,0-3.33,0.14c-0.84,0.11-1.8-0.13-2.49,0.62c-0.3,0.4-0.8,0.04-1.23,0.34
			c1.14,1.8,2.23,3.64,2.46,5.83c0.17,1.71,0.33,3.41,0.5,5.12c0.01,0.55-0.09,1.07-0.37,1.55c0.05,0.16,0.08,0.31-0.04,0.46
			c-0.06,0.08-0.11,0.16-0.16,0.24c-0.46,0.99-1.26,0.86-2.18,0.45C43.94,54.74,44.55,54.68,45.12,54.7z M39.09,30.18
			c-0.01,0.12-0.02,0.24-0.03,0.36c1.02,0,2.05,0.01,3.07,0c1.06-0.01,2.11-0.03,3.17-0.05c0.95-0.02,1.91-0.06,2.86-0.09
			c-0.01-0.07-0.02-0.14-0.02-0.22C45.12,30.18,42.1,30.18,39.09,30.18z M43.69,29.28c0.06-0.36,0.1-0.7,0.19-1.04
			c0.1-0.42-0.01-0.61-0.46-0.61c-1.06,0.01-2.12,0-3.18,0.01c-0.22,0-0.52-0.06-0.53,0.29c-0.01,0.31,0.21,0.5,0.48,0.55
			c0.22,0.03,0.46-0.09,0.69-0.07C41.88,28.46,43,28.15,43.69,29.28z M46.48,32.49c-0.92,0.17-1.82,0.24-2.73,0.18
			c-0.08-0.01-0.22,0.09-0.25,0.17c-0.07,0.14,0.08,0.21,0.18,0.25c0.6,0.25,1.22,0.4,1.89,0.36
			C46.16,33.39,46.67,33.33,46.48,32.49z M46.62,29.1c0.79-1.39,0.77,0.59,1.37,0.29c-0.39-0.52,0.62-1.5-0.56-1.71
			C46.01,27.43,46.8,28.6,46.62,29.1z M45.2,27.63c-0.19,0.09-0.64-0.13-0.61,0.36c0.03,0.55,0.62,0.44,0.94,0.6
			c0.21,0.11,0.34-0.35,0.35-0.59C45.91,27.52,45.51,27.68,45.2,27.63z M43.9,52.56c0.38-0.19,0.36-0.83,0.91-0.82
			c0.19,0,0.35-0.1,0.28-0.33c-0.07-0.21-0.26-0.19-0.43-0.17C44.04,51.31,43.74,51.83,43.9,52.56z M41.28,33
			c-0.25-0.13-0.49-0.33-0.77-0.39c-0.23-0.05-0.22,0.21-0.19,0.38c0.03,0.16-0.05,0.49,0.3,0.33C40.83,33.22,41.17,33.45,41.28,33z
			 M41.37,33.35c0.45-0.05,0.79,0.17,0.93-0.19c0.08-0.2-0.08-0.58-0.25-0.59C41.68,32.55,41.68,32.98,41.37,33.35z M44.16,38.52
			c0.42,0.12,0.78,0.13,1.08-0.15c0.03-0.03,0-0.19-0.03-0.21c-0.36-0.13-0.66,0.06-0.97,0.19C44.22,38.37,44.22,38.41,44.16,38.52z
			"/>
		<path class="st1" d="M23.39,30.81c-0.02,0.62,0.19,1.18,0.58,1.63c1.14,1.3,2.33,2.53,3.95,3.27c1.65,0.76,3.23,1.65,4.83,2.52
			c0.61,0.33,0.93,0.98,1.31,1.53c1.6,2.26,3.26,4.46,4.96,6.64c0.69,0.88,1.36,1.78,1.95,2.73c0.52,0.84,0.69,1.81,0.63,2.8
			c-0.12,2.11,0.5,2.94,2.53,3.37c-2.23,2.12-4.34,4.36-6.25,6.78c-2.58,3.27-4.16,7.04-5.3,11.01c-0.22,0.77,0.01,1.52,0.2,2.27
			c0.27,1.06,0.63,2.1,0.79,3.17c0.33,2.23-0.38,3.88-2.35,5.08c-1.56,0.95-4.54,0.21-5.75-1.35c0.28-0.05,0.66-0.06,0.38-0.5
			c-0.23-0.36-0.21-0.8-0.37-1.27c-0.45,0.69,0.1,1.22,0,1.78c-1.35-1.4-1.68-3.04-0.88-4.79c1.08-2.37,2.42-4.62,3.57-6.95
			c1.22-2.47,2.38-4.99,3.19-7.65c0.61-2.02,1.55-3.9,2.77-5.64c0.64-0.91,1.44-1.63,2.2-2.41c0.47-0.48,0.92-0.99,1.4-1.46
			c0.16-0.16,0.11-0.32,0.1-0.48c-0.03-1.33-0.04-2.66-0.11-3.99c-0.09-1.55-1.1-2.64-2.04-3.73c-0.3-0.35-0.43-0.63-0.07-0.98
			c0.26-0.26,0.25-0.5,0.01-0.77c-0.72-0.83-1.43-1.66-1.95-2.64c-0.06-0.11-0.25-0.14-0.38-0.21c-0.64-0.94-1.41-1.77-2.23-2.57
			c0.18,0.58,0.7,1.16,0.62,1.63c-0.09,0.54-0.99,0.61-1.41,1.06c-0.76-0.19-1.65,0.15-2.28-0.63c-0.11-0.14-0.51-0.08-0.77-0.06
			c-1.29,0.07-2.58,0.15-3.87,0.23c-0.22-0.55,0.18-0.5,0.5-0.51c0.5-0.02,1-0.05,1.5-0.07c-0.1-0.21-0.2-0.27-0.3-0.28
			c-1.16-0.11-1.92-0.62-1.91-1.9c0-0.08-0.08-0.16-0.1-0.24c-0.37-1.5-0.94-2.96-1.25-4.47c-0.33-1.61-0.11-3.29-0.03-4.93
			c0.05-1.11,0.54-1.51,1.67-1.58c-0.02,0.89-0.38,1.74-0.27,2.65c-0.14,0.12-0.14,0.24,0,0.35C23.18,29.76,23.26,30.29,23.39,30.81
			z M32.95,79.77c0.28-0.23,0.23-0.47,0.03-0.72c-0.06-1.05-0.56-1.83-1.58-2.11c-1.01-0.27-1.81,0.28-2.33,1.08
			c-0.71,1.06-0.71,2.25-0.29,3.45c0.02,0.98,0.75,1.19,1.49,1.28c1.22,0.16,2.51-1.14,2.61-2.55
			C32.9,80.06,32.92,79.91,32.95,79.77z M27.93,78.89c1.56-2.42,2.2-5.21,3.13-7.86c0.93-2.66,2.36-5.1,3.28-7.76
			C31.24,68.09,30.12,73.71,27.93,78.89z M28.43,83.48c-0.56-0.78-1-1.44-1.21-2.22c-0.04-0.16-0.07-0.37-0.32-0.33
			c-0.23,0.04-0.27,0.24-0.22,0.41C26.92,82.24,27.16,83.14,28.43,83.48z M36.16,59.92c-1.02,0.93-1.72,2.34-1.63,3.05
			C35.1,61.9,35.63,60.91,36.16,59.92z"/>
		<path class="st1" d="M11.88,41.27c-0.09-0.12-0.17-0.23-0.26-0.35c0.27-0.32,0.64-0.24,0.99-0.22c1.94,0.14,3.88,0.26,5.81,0.44
			c1.03,0.1,2.04,0.24,3.01-0.26c0.39-0.2,0.67-0.12,0.83,0.32c0.07,0.19,0.16,0.39,0.4,0.44c0.12,0.29,0.24,0.58,0.36,0.87
			c-0.15,0.4,0.06,0.69,0.28,0.98c0.02,0.09,0.04,0.18,0.05,0.26c-0.14,0.24,0,0.31,0.21,0.33c1.06,1.05,1.38,2.13,0.57,3.23
			c-0.68,0.91-0.71,1.94-1.04,2.91c-0.3,0.88-0.69,1.5-1.58,1.89c-1.14,0.5-1.89,1.57-2.83,2.36c-2.36,1.99-4.33,4.34-5.87,7.02
			c-1.1,1.92-1.84,4.02-2.63,6.08c-0.33,0.86,0.02,1.68,0.3,2.5c0.25,0.73,0.5,1.45,0.71,2.19c0.35,1.23-0.06,2.27-0.78,3.29
			c-0.83,1.17-1.8,1.81-3.31,1.75c-2.25-0.09-3.96-2.54-4.08-4.14c-0.1-1.25,0.61-2.28,1.17-3.28c1.89-3.34,3.67-6.74,5.1-10.3
			c0.78-1.97,1.64-3.86,2.84-5.61c0.62-0.9,1.45-1.54,2.23-2.25c0.67-0.61,1.41-1.17,1.79-2.04c0.55-1.08,0.32-3.11-0.39-3.78
			c-0.36-0.34-0.6-0.8-0.92-1.17c-0.67-0.76-1.19-1.67-2.08-2.22c0,0,0,0,0,0c-0.04-0.34-0.26-0.55-0.54-0.71
			c-0.03-0.05-0.06-0.1-0.09-0.15C12.19,41.44,12.09,41.32,11.88,41.27z M7.69,71.36c-0.4-0.09-0.57,0.23-0.73,0.47
			c-0.38,0.56-0.46,1.22-0.47,1.88c-0.16,0.46,0.08,0.87,0.19,1.28c0.24,0.86,0.96,1.24,1.85,1.05c1.92-0.4,2.38-2.33,2.02-3.59
			C10.21,71.26,8.7,70.25,7.69,71.36z"/>
		<path class="st0" d="M22.66,41.65c-0.24-0.05-0.33-0.25-0.4-0.44c-0.16-0.44-0.44-0.52-0.83-0.32c-0.97,0.5-1.98,0.35-3.01,0.26
			c-1.93-0.18-3.87-0.3-5.81-0.44c-0.35-0.03-0.71-0.1-0.99,0.22c-1.3-0.4-2.67-0.26-4-0.49c-0.56-0.1-0.88-0.34-1.13-0.83
			C5.9,38.46,5.65,37.22,5.33,36c-0.38-1.43-0.81-2.78-1.73-4c-1.38-1.84-1.34-3.9-0.21-5.86c0.9-1.56,2.48-2.07,4.16-2.44
			c1.93-0.43,3.93-0.48,5.84-1.02c0.33-0.09,0.72-0.08,1.05-0.01c1.17,0.27,2.32,0.2,3.48,0c0.27,0.61,0.84,0.07,1.2,0.31
			c0,0.43-0.3,0.49-0.64,0.57c-1.64,0.42-3.35,0.21-5,0.66c-1.05,0.29-1.19,0.46-1.15,1.32c0.03,0.65-0.06,1.08-0.57,1.49
			c0.55-0.05,0.96,0.28,1.44,0.23c0.56-0.07,1,0.16,1.26,0.63c0.28,0.51,0.43,0.41,0.81,0.03c1.56-1.56,3.15-3.12,5.64-2.96
			c0.38,0.02,0.66-0.26,0.46-0.64c-0.21-0.39-0.15-0.88-0.51-1.19c0.13-0.19,0.26-0.39,0.39-0.58c0.45-0.47,1-0.19,1.5-0.2
			c0.55,0.73,1.31,0.58,2.05,0.49c1.48,0.11,2.91-0.18,4.34-0.54c0.04,0.63,0.5,0.72,0.99,0.76c-0.18,0.68-0.72,0.67-1.26,0.65
			c-1.84-0.05-3.65-0.06-4.82,1.77c-0.16,0.24-0.21,0.62-0.55,0.74c-1.13,0.07-1.62,0.48-1.67,1.58c-0.08,1.65-0.3,3.33,0.03,4.93
			c0.31,1.5,0.88,2.96,1.25,4.47c0.02,0.08,0.1,0.16,0.1,0.24c0,1.28,0.75,1.79,1.91,1.9c0.1,0.01,0.2,0.07,0.3,0.28
			c-0.5,0.02-1,0.05-1.5,0.07c-0.33,0.01-0.72-0.04-0.5,0.51C22.34,40.52,22.34,40.52,22.66,41.65z M9.09,28.65
			c0-0.02,0-0.03,0-0.05c-1.24,0-2.48,0-3.71,0c-0.88,0-0.98,0.13-0.73,1c0.27,0.94,0.59,1.86,0.8,2.81
			c0.37,1.63,1.12,3.16,1.14,4.89c0.01,0.59,0.19,1.32,1.06,1.38c2.62,0.18,5.23,0.36,7.85,0.55c0.68,0.05,0.84-0.27,0.68-0.86
			c-0.18-0.65-0.4-1.28-0.56-1.93c-0.54-2.2-1.07-4.4-1.57-6.61c-0.19-0.84-0.55-1.27-1.5-1.2C11.39,28.72,10.24,28.65,9.09,28.65z"
			/>
		<path class="st1" d="M63.39,37.73c1.45-0.4,1.27-1.63,1.37-2.71c0.06-0.68,0.13-1.35,0.2-2.02c0.16-1.63-0.34-2.59-2.23-2.66
			c-3.46-0.13-6.92-0.5-10.39-0.33c-0.88,0.04-1.52,0.27-2.01-0.75c-0.23-0.46-0.99-0.66-1.44-1.09c-0.26-0.25-0.44-0.46-0.34-0.83
			c0.14,0.1,0.28,0.22,0.44,0.29c0.93,0.46,1.61,1.32,2.63,1.64c0.1,0.67,0.63,0.4,0.98,0.4c3.83-0.01,7.66-0.04,11.5-0.1
			c0.55-0.01,0.82,0.16,0.94,0.66c0.6,2.43,2.18,3.95,4.47,4.82c0.6,0.23,1.23,0.48,1.74,0.86c0.64,0.49,1.51,0.53,2.05,1.11
			c0.49,0.54,0.87,1.18,1.29,1.78c1.27,1.8,2.25,3.77,3.54,5.56c1.05,1.46,1.81,3.12,1.64,5.07c-0.1,1.19,0.51,1.83,1.78,2.3
			c-1.53,2.05-3.39,3.85-4.78,6c-1.89,2.94-3.46,6.04-3.97,9.55c-0.18,1.25,0.46,2.41,0.64,3.64c0.21,1.42,0.29,2.76-0.52,4.04
			c-1.21,1.88-3.42,2.36-5.29,1.04c-2.16-1.52-2.84-3.35-1.53-5.86c2.19-4.21,4.18-8.52,5.5-13.11c0.66-2.28,1.72-4.41,3.62-5.98
			c0.49-0.41,0.69-0.9,0.59-1.56c-0.09-0.61-0.09-1.24-0.03-1.86c0.19-1.69-0.12-3.22-1.32-4.5c-0.35-0.37-0.55-0.78-0.1-1.23
			c0.18-0.18,0.12-0.36-0.02-0.55c-0.6-0.82-1.14-1.68-1.57-2.62c-0.37-0.81-1.03-1.09-1.89-0.89c-0.08-0.14-0.57-0.04-0.31-0.34
			c0.55-0.63,0.56-0.98-0.35-1.1c-0.23-0.03-0.27-0.4-0.61-0.36c0.12,0.62-0.3,1.16-0.25,1.78C67.35,37.82,65.37,37.77,63.39,37.73z
			 M72.11,74.85l0.02,0.01c0.43,0.06,0.6-0.29,0.66-0.56c0.21-0.92,0.67-1.8,0.3-2.8c-0.23-0.63-0.48-1.15-1.22-1.2
			c-0.76-0.06-1.33,0.31-1.65,0.96c-0.39,0.8-0.65,1.65-0.38,2.56c-0.01,0.39,0.13,0.72,0.39,1C70.88,75.5,71.6,75.51,72.11,74.85z
			 M68.34,73.71c-0.24,1.5,0.19,2.17,1.38,2.39c-0.25-0.34-0.53-0.67-0.75-1.05C68.75,74.69,68.6,74.28,68.34,73.71z M66.82,73.64
			c-0.39,0.66-0.31,1.18,0.45,1.66C67.1,74.66,66.96,74.15,66.82,73.64z"/>
		<path class="st0" d="M81.53,51.74c-1.28-0.47-1.88-1.11-1.78-2.3c0.16-1.95-0.59-3.61-1.64-5.07c-1.29-1.79-2.28-3.76-3.54-5.56
			c-0.42-0.6-0.8-1.25-1.29-1.78c-0.54-0.58-1.41-0.63-2.05-1.11c-0.51-0.38-1.13-0.63-1.74-0.86c-2.29-0.87-3.87-2.38-4.47-4.82
			c-0.12-0.5-0.39-0.67-0.94-0.66c-3.83,0.06-7.66,0.09-11.5,0.1c-0.34,0-0.87,0.26-0.98-0.4c-0.12-0.2-0.23-0.4-0.36-0.59
			c-0.12-0.17-0.5-0.2-0.3-0.53c0.15-0.24,0.38-0.37,0.67-0.35c0.18,0.01,0.35,0.04,0.52,0.05c0.75,0.03,1.54,0.23,2.23,0.06
			c1.55-0.39,3.11-0.63,4.69-0.84c1.61-0.22,3.23-0.46,4.79-0.99c0.5-0.17,0.84-0.49,0.7-0.94c-0.13-0.43-0.42-0.92-1.06-0.88
			c-0.73,0.05-1.46-0.11-2.19-0.17c-1.54-0.13-3.09-0.14-4.63-0.21c-0.51-0.02-1.05,0-1.46-0.41c0.09-0.1,0.18-0.19,0.27-0.29
			c1.27,0.27,2.55,0.38,3.84,0.37c1.18-0.01,2.32,0.05,3.47,0.43c0.79,0.26,1.69,0.17,2.53,0c0.71-0.15,1.4-0.23,2.02,0.4
			c-0.32,0.19-0.63,0.38-0.95,0.56c-0.3,0.17-0.56,0.44-0.46,0.77c0.09,0.3,0.46,0.32,0.76,0.32c0.44,0.01,0.87-0.01,1.3,0.18
			c0.87,0.37,1.53,0.87,1.56,1.91c0.01,0.15,0.03,0.3,0.2,0.35c0.2,0.06,0.37-0.04,0.43-0.21c0.24-0.74,1.03-0.69,1.53-1.07
			c0.3-0.23,0.65-0.1,0.76,0.3c0.13,0.47,0.37,0.64,0.87,0.67c0.81,0.05,1.19,0.67,0.88,1.44c-0.18,0.45-0.11,0.65,0.31,0.8
			c0.6,0.22,0.72,0.84,1.01,1.29c1.18,1.82,2.33,3.65,3.43,5.51c0.64,1.07,1.17,2.21,1.73,3.33c0.25,0.49,0.65,0.78,1.08,1.15
			c0.27-1.08-0.49-1.85-0.55-3.02c0.8,1.19,1.29,2.28,1.58,3.39c0.36,1.39,1.44,2.61,1.1,4.18c-0.35,1.61-0.13,3.36-1.21,4.79
			C82.41,51.43,82.12,51.82,81.53,51.74z M81.81,49.33c0.18-0.23,0.28-0.4,0.42-0.53c0.15-0.13,0.5-0.09,0.38-0.44
			c-0.02-0.07-0.19-0.14-0.28-0.12c-0.23,0.04-0.46,0.12-0.51,0.38C81.78,48.82,81.81,49.02,81.81,49.33z"/>
		<path class="st1" d="M44.62,39.86c0.69-0.75,1.65-0.51,2.49-0.62c1.1-0.14,2.27-0.35,3.33-0.14c2.36,0.47,4.53-0.41,6.77-0.71
			c0.63-0.08,0.68,0.42,1.04,0.59c0.46,0.89,0.84,1.8,0.87,2.82c0.01,0.28,0.07,0.51,0.3,0.7c0.58,0.5,0.76,1.21,0.53,1.86
			c-0.49,1.34-0.71,2.74-1.13,4.09c-0.11,0.35-0.35,0.54-0.63,0.7c-1.9,1.05-3.12,2.81-4.57,4.33c-2.23,2.33-3.39,5.28-4.61,8.17
			c-0.35,0.83-0.64,1.83-0.22,2.83c0.31,0.73,0.52,1.51,0.72,2.28c0.65,2.49-1.41,4.97-3.84,4.67c-2.45-0.3-3.9-3.08-2.86-5.53
			c0.24-0.57,0.52-1.13,0.82-1.67c1.89-3.35,3.35-6.89,4.58-10.54c0.67-1.99,1.93-3.64,3.52-4.99c1.16-0.98,1.46-3.37,0.47-4.92
			c-0.79-1.24-1.64-2.45-2.43-3.69c-0.28-0.44-0.6-0.56-1.1-0.51C47.33,39.69,45.98,39.76,44.62,39.86z M45.81,68.46
			c-0.2,0.82,0.38,1.17,0.83,1.54c0.38,0.32,0.88,0.32,1.33,0.06c1.07-0.6,1.56-2.33,0.99-3.42c-0.48-0.92-1.38-1.1-2.19-0.46
			C46.01,66.79,45.83,67.62,45.81,68.46z"/>
		<path class="st1" d="M23.2,16.28c-0.21-0.26-0.5-0.23-0.8-0.23c-1.53-0.02-3.05-0.05-4.58-0.08c-0.14-0.17-0.29-0.25-0.47-0.05
			c-3.11-0.14-6.23-0.3-9.34-0.39c-0.84-0.03-1.57-0.15-2.14-0.82c0.08-0.33,0.34-0.25,0.56-0.27c0.89-0.07,1.12-0.32,0.8-1.13
			c-0.37-0.95-1.01-1.76-1.88-2.33c-0.15-0.1-0.39-0.06-0.59-0.09C4.38,10.83,4,10.79,3.61,10.74c-0.01-0.1-0.02-0.21-0.03-0.31
			c0.32-0.43,0.76-0.62,1.29-0.66c4.33-0.36,8.67-0.67,12.99-1.12c1.22-0.13,1.83,0.52,2.52,1.23c0.06,0.21,0.11,0.43,0.32,0.57
			c0.74,1.02,1.67,1.87,2.52,2.8c0.23,0.54,0.42,1.1,0.7,1.61c0.33,0.62,0.75,1.2-0.49,1.09C23.25,15.94,23.2,16.12,23.2,16.28z
			 M21.48,13.71c-0.61-0.01-1.41,0.54-1.39,0.96c0.02,0.38,0.34,0.23,0.53,0.24c0.7,0.05,1.29-0.2,1.45-0.91
			C22.19,13.48,21.67,13.82,21.48,13.71z"/>
		<path class="st1" d="M55.5,23.18c-0.09,0.1-0.18,0.19-0.27,0.29c-0.88-0.02-1.76-0.05-2.64-0.07c-1-0.21-2.01-0.19-3.02-0.12
			c-1.11-0.03-2.23-0.06-3.34-0.08c-0.89-0.16-1.78-0.19-2.68-0.09c-1.17-0.03-2.35-0.06-3.52-0.09c-0.17-0.12-0.35-0.11-0.53-0.01
			c-1.71-0.04-3.41-0.08-5.12-0.12c-0.77-0.38-1.43,0.25-2.16,0.22c-0.7-0.02-1.39-0.03-2.09-0.05c-0.49-0.04-0.95-0.13-0.99-0.76
			c0.02-0.2,0.08-0.41,0.06-0.61c-0.09-0.66,0.25-0.79,0.82-0.8c1.44-0.03,2.88-0.11,4.32-0.16c0.73-0.03,1.06-0.32,0.71-1.06
			c-0.05-0.22-0.09-0.43-0.14-0.65c4.06,0.07,8.12,0.15,12.18,0.22c1.16,0.15,2.33,0.49,3.48,0.07c1.16-0.42,2.26-0.99,3.39-1.48
			c1.05-0.45,2.08-1.03,3.18-1.27c1.81-0.39,3.66-0.56,5.5-0.81c0.26-0.04,0.59-0.23,0.77,0.18c-0.57,0.51-1.31,0.64-1.99,0.89
			c-1.57,0.57-3.15,1.09-4.72,1.68c-0.48,0.18-0.99,0.09-1.49,0.4c-0.5,0.3-0.56,0.59-0.45,1.05C55,21.01,55.25,22.1,55.5,23.18z"/>
		<path class="st1" d="M64.27,12.1c-2.39-0.72-4.78-1.44-7.17-2.16c-1.93-0.58-3.88-1.12-5.8-1.74c-1.68-0.55-3.32-0.96-5.15-0.63
			c-1.61,0.29-3.28,0.21-4.92,0.31c-0.53,0.03-1.05,0.13-1.57,0.19c0.06-0.4,0.34-0.56,0.68-0.71c2.35-1.06,4.68-2.14,7.03-3.2
			c0.41-0.19,0.76-0.42,1.01-0.8c1.83,0.37,3.49,1.21,5.23,1.84c3.4,1.24,6.76,2.56,10.15,3.83c0.53,0.2,0.87,0.43,0.81,1.06
			c-0.05,0.56,0,1.12,0,1.68C64.44,11.85,64.29,11.92,64.27,12.1z M62.42,9.1c-0.31-0.02-0.61,0.07-0.58,0.39
			c0.03,0.35,0.4,0.25,0.64,0.29c0.31,0.05,0.62-0.09,0.62-0.35C63.1,9.03,62.67,9.17,62.42,9.1z"/>
		<path class="st0" d="M34.9,19c0.05,0.22,0.09,0.43,0.14,0.65c-3.19,0.21-6.39-0.06-9.58,0c-0.76,0.01-1.21-0.24-1.45-0.98
			c-0.27-0.8-0.87-1.48-0.8-2.39c0-0.16,0.05-0.34,0.22-0.32c1.24,0.11,0.83-0.47,0.49-1.09c-0.28-0.51-0.47-1.07-0.7-1.61
			c1.6-0.15,3.2-0.3,4.8-0.01c0.61-0.21,1.46,0.3,1.83-0.62c0.25-0.04,0.49-0.17,0.83-0.04c-0.46,0.73-0.77,1.51-1.35,2.14
			c-0.2,0.22-0.47,0.55-0.34,0.86c0.14,0.31,0.53,0.13,0.8,0.14c2.13,0.08,2.24,0.17,2.99,2.23c0.21,0.57,0.65,0.88,1.26,0.95
			C34.33,18.94,34.63,18.84,34.9,19z M25.08,15.94c0.87,0.58,2.35,0.47,2.92-0.14C26.95,15.85,26.01,15.89,25.08,15.94z"/>
		<path class="st0" d="M63.4,15.92c-0.17-0.4-0.5-0.21-0.77-0.18c-1.84,0.25-3.69,0.41-5.5,0.81c-1.1,0.24-2.13,0.82-3.18,1.27
			c-1.13,0.48-2.24,1.05-3.39,1.48c-1.14,0.42-2.32,0.08-3.48-0.07c-0.03-0.4,0.29-0.45,0.56-0.57c2.71-1.14,5.44-2.22,8.11-3.44
			c1.25-0.57,2.46-0.55,3.77-0.43c1.93,0.17,3.88,0.16,5.82,0.23c0.26,0.01,0.48-0.03,0.52-0.34l0.01-0.01
			c0.36,0.43,0.08,0.62-0.3,0.72C64.85,15.58,64.12,15.75,63.4,15.92z"/>
		<path class="st0" d="M64.27,12.1c0.02-0.18,0.17-0.25,0.31-0.33c0.33,1.48,0.33,1.45-1.2,1.18c-2.59-0.45-5.19-0.88-7.8-1.24
			c-0.66-0.09-1.31,0.07-1.97-0.33c-0.4-0.24-0.8,0.41-1.27,0.47c-0.84,0.12-0.58,0.66-0.41,1.12c0.15,0.38,0.01,0.51-0.32,0.65
			c-1.19,0.51-2.51,0.86-3.49,1.64c-0.82,0.66-1.77,0.95-2.6,1.51c-0.45,0.3-0.77,0.28-0.75-0.4c0.02-0.44-0.02-0.88-0.03-1.33
			c0.46-0.44,1.05-0.66,1.6-0.95c0.18-0.1,0.61-0.14,0.21-0.51c0.06-0.37,0.38-0.42,0.61-0.33c0.69,0.28,1.19-0.11,1.72-0.39
			c1.2-0.63,2.51-1.03,3.61-1.86c0.32-0.24,0.67-0.22,1.08-0.15c3.56,0.59,7.13,1.13,10.69,1.69c0.03,0.01,0.05,0.02,0.08,0.03
			c-0.03-0.01-0.05-0.02-0.08-0.04C64.27,12.4,64.27,12.25,64.27,12.1z M51.32,13.15c-0.05-0.11-0.07-0.2-0.12-0.25
			c-0.06-0.07-0.16-0.06-0.18,0.04c-0.01,0.07,0.02,0.17,0.07,0.22C51.12,13.19,51.22,13.15,51.32,13.15z"/>
		<path class="st1" d="M39.14,7.97c-0.37-0.15-0.69,0.06-1.02,0.15c-0.33,0.09-0.64,0.31-1.02-0.05c1.15-0.59,2.28-1.16,3.41-1.73
			c1.15-0.58,2.31-1.16,3.46-1.74C45.12,4,46.25,3.37,47.6,3.35c0.19,0.51-0.28,0.52-0.52,0.63c-2.32,1.07-4.65,2.11-6.97,3.19
			C39.73,7.34,39.27,7.46,39.14,7.97z"/>
		<path class="st0" d="M4.77,10.88c0.2,0.03,0.44-0.01,0.59,0.09c0.87,0.57,1.51,1.38,1.88,2.33c0.32,0.82,0.09,1.07-0.8,1.13
			c-0.22,0.02-0.49-0.06-0.56,0.27c-0.68-0.45-1.51-0.54-2.34-0.86c0.34-0.35,0.74-0.19,1.03-0.42C5.41,12.74,5.45,12.57,4.77,10.88
			z"/>
		<path class="st1" d="M46.35,51.15c-0.17-1.71-0.33-3.41-0.5-5.12c1.49,0.78,1.93,2.05,1.24,3.61
			C46.86,50.15,46.6,50.64,46.35,51.15z"/>
		<path class="st0" d="M39.14,7.97c0.12-0.5,0.59-0.62,0.96-0.8c2.32-1.08,4.65-2.12,6.97-3.19c0.25-0.11,0.71-0.12,0.52-0.63
			c0.26-0.07,0.53-0.06,0.79,0.01c-0.25,0.38-0.6,0.61-1.01,0.8c-2.35,1.06-4.68,2.14-7.03,3.2C40,7.51,39.72,7.67,39.66,8.07
			C39.46,8.16,39.27,8.23,39.14,7.97z"/>
		<path class="st0" d="M48.49,8.76c-2.83,1.15-5.66,2.29-8.6,3.49C40.2,11.57,47.6,8.48,48.49,8.76z"/>
		<path class="st0" d="M12.77,42.51c0.9,0.54,1.42,1.45,2.08,2.22c0.32,0.37,0.56,0.82,0.92,1.17c0.71,0.68,0.94,2.7,0.39,3.78
			c0.23-2.71-1.34-4.58-2.96-6.44C13.02,43.02,12.73,42.86,12.77,42.51z"/>
		<path class="st0" d="M30.31,40.67c0.42-0.45,1.31-0.52,1.41-1.06c0.08-0.47-0.44-1.05-0.62-1.63c0.82,0.8,1.59,1.63,2.23,2.57
			C32.32,40.48,31.33,40.96,30.31,40.67z"/>
		<path class="st0" d="M69.34,37.87c-0.05-0.62,0.37-1.16,0.25-1.78c0.34-0.04,0.39,0.33,0.61,0.36c0.92,0.12,0.9,0.47,0.35,1.1
			c-0.26,0.3,0.23,0.19,0.31,0.34C70.36,37.97,69.85,37.98,69.34,37.87z"/>
		<path class="st0" d="M20.7,10.45c-0.2-0.13-0.25-0.35-0.32-0.57c2.66,0,5.32,0,7.98-0.01c0.28,0,0.57-0.11,0.85-0.18l0.03,0.03
			c-0.13,0.52-0.56,0.34-0.87,0.33c-2.35-0.1-4.68,0.26-7.03,0.19C21.11,10.24,20.86,10.22,20.7,10.45z"/>
		<path class="st0" d="M29.92,8.99c0.57-0.55,1.34-0.42,2-0.48c1.34-0.11,2.68-0.17,4.01-0.38c0.21-0.04,0.4,0.05,0.6,0.29
			c-2.23,0.18-4.38,0.55-6.57,0.61C29.95,9.02,29.92,8.99,29.92,8.99z"/>
		<path class="st1" d="M19.12,22.99c-0.36-0.24-0.93,0.3-1.2-0.31c1.1-0.12,2.19-0.49,3.32-0.13c-0.13,0.19-0.26,0.39-0.39,0.58
			C20.3,22.77,19.7,23.01,19.12,22.99z"/>
		<path class="st1" d="M46.56,13.59c0.4,0.36-0.03,0.41-0.21,0.51c-0.55,0.29-1.14,0.51-1.6,0.95c-0.26,0.08-0.48,0.05-0.56-0.24
			c-0.09-0.29,0.16-0.35,0.34-0.42C45.19,14.1,45.81,13.67,46.56,13.59z"/>
		<path class="st1" d="M45.12,54.7c-0.57-0.02-1.18,0.04-1.51-0.85c0.91,0.41,1.71,0.54,2.18-0.45
			C45.6,53.85,45.44,54.32,45.12,54.7z"/>
		<path class="st1" d="M75.06,26.02c1.1,0.59,1.26,0.92,0.9,2.11c-0.36-0.68-0.69-1.29-1.01-1.91
			C74.99,26.16,75.03,26.09,75.06,26.02z"/>
		<path class="st0" d="M72.76,24.22c-1.65,0-3.11,0-4.57,0C69.64,24.19,71.09,23.56,72.76,24.22z"/>
		<path class="st1" d="M29.84,12.62c-0.36,0.93-1.22,0.42-1.83,0.62c0.09-0.44,0.33-0.63,0.8-0.58
			C29.15,12.69,29.49,12.64,29.84,12.62z"/>
		<path class="st0" d="M55.45,14.48c-0.04,0.51-0.43,0.72-0.85,0.84c-0.23,0.07-0.38-0.12-0.35-0.37c0.06-0.55,0.43-0.81,0.91-0.91
			C55.46,13.99,55.42,14.27,55.45,14.48z"/>
		<path class="st1" d="M24.79,22.84c-0.74,0.09-1.5,0.24-2.05-0.49C23.45,22.39,24.18,22.38,24.79,22.84z"/>
		<path class="st0" d="M56.3,13.26c0.48-0.15,0.27-0.82,0.79-1c0.27,0.59-0.09,1.1-0.38,1.39C56.36,14.01,56.34,13.52,56.3,13.26
			L56.3,13.26z"/>
		<path class="st0" d="M56.31,13.26c-0.59-0.17-0.59-0.17,0.05-0.99C56.62,12.62,56.2,12.93,56.31,13.26
			C56.3,13.26,56.31,13.26,56.31,13.26z"/>
		<path class="st0" d="M23.31,43.5c-0.22-0.29-0.43-0.58-0.28-0.98C23.3,42.8,23.38,43.13,23.31,43.5z"/>
		<path class="st0" d="M12.23,41.81c0.28,0.16,0.5,0.36,0.54,0.71C12.45,42.39,12.23,42.18,12.23,41.81z"/>
		<path class="st1" d="M45.95,53.16c0.12-0.15,0.09-0.3,0.04-0.46C45.97,52.85,45.96,53.01,45.95,53.16z"/>
		<path class="st0" d="M75.06,26.02c-0.04,0.07-0.08,0.14-0.12,0.21c-0.2-0.09-0.5-0.21-0.3-0.45
			C74.81,25.59,74.97,25.85,75.06,26.02z"/>
		<path class="st0" d="M78.6,33.48c-0.43-0.17-0.35-0.55-0.35-0.89l0.01-0.01C78.53,32.82,78.61,33.13,78.6,33.48L78.6,33.48z"/>
		<path class="st0" d="M77.33,30.85c-0.28-0.15-0.36-0.41-0.35-0.71l0.06-0.05c0.27,0.16,0.35,0.42,0.35,0.72L77.33,30.85z"/>
		<path class="st0" d="M3.58,10.43c0.01,0.1,0.02,0.21,0.03,0.31c-0.16,0.02-0.39,0.14-0.42-0.08C3.16,10.46,3.41,10.44,3.58,10.43z
			"/>
		<path class="st0" d="M23.57,44.09c-0.21-0.02-0.34-0.09-0.21-0.33C23.51,43.82,23.57,43.94,23.57,44.09z"/>
		<path class="st0" d="M74.01,25.14c0.19,0,0.35,0.05,0.42,0.24c0.01,0.01-0.03,0.07-0.05,0.07C74.16,25.46,74.08,25.3,74.01,25.14
			L74.01,25.14z"/>
		<path class="st0" d="M11.88,41.27c0.21,0.04,0.31,0.16,0.26,0.39C11.93,41.61,11.86,41.47,11.88,41.27z"/>
		<path class="st0" d="M17.36,15.92c0.18-0.19,0.33-0.12,0.47,0.05C17.66,16.09,17.5,16.11,17.36,15.92z"/>
		<path class="st0" d="M81.25,38.33c-0.01,0.05-0.01,0.13-0.04,0.14c-0.11,0.05-0.12-0.05-0.12-0.12c0-0.04,0.04-0.09,0.07-0.13
			C81.19,38.26,81.22,38.3,81.25,38.33z"/>
		<path class="st0" d="M76.63,29.42c-0.04-0.06-0.09-0.12-0.12-0.19c0,0,0.06-0.04,0.09-0.07c0.03,0.07,0.05,0.15,0.08,0.22
			C76.68,29.39,76.63,29.42,76.63,29.42z"/>
		<path class="st0" d="M76.98,30.13c-0.06-0.12-0.12-0.24-0.17-0.36l0.05-0.05c0.06,0.12,0.12,0.24,0.18,0.35
			C77.04,30.08,76.98,30.13,76.98,30.13z"/>
		<path class="st0" d="M29.21,9.7c0.06-0.05,0.12-0.09,0.18-0.14c0.02,0.03,0.04,0.06,0.07,0.09c-0.07,0.02-0.14,0.05-0.22,0.07
			C29.24,9.73,29.21,9.7,29.21,9.7z"/>
		<path class="st0" d="M79.67,35.42c0.04,0.06,0.09,0.11,0.13,0.17c-0.03,0.02-0.06,0.04-0.09,0.06c-0.02-0.07-0.03-0.15-0.05-0.22
			L79.67,35.42z"/>
		<path class="st0" d="M65.68,14.51c-0.05-0.06-0.09-0.12-0.14-0.17c0.03-0.02,0.06-0.04,0.09-0.06c0.02,0.07,0.04,0.15,0.06,0.22
			C65.69,14.49,65.68,14.51,65.68,14.51z"/>
		<path class="st0" d="M76.81,29.78c-0.06-0.12-0.12-0.24-0.17-0.36c0,0,0.04-0.04,0.04-0.04c0.06,0.12,0.12,0.23,0.18,0.35
			C76.86,29.73,76.81,29.78,76.81,29.78z"/>
		<path class="st0" d="M77.39,30.8c0.08,0.06,0.19,0.18,0.08,0.23c-0.13,0.07-0.1-0.11-0.14-0.19C77.33,30.85,77.39,30.8,77.39,30.8
			z"/>
		<path class="st0" d="M78.07,32.24c-0.05-0.06-0.09-0.11-0.14-0.17c0.03-0.02,0.06-0.04,0.09-0.06c0.02,0.07,0.04,0.15,0.06,0.22
			C78.08,32.23,78.07,32.24,78.07,32.24z"/>
		<path class="st0" d="M78.61,33.48c0.15,0.07,0.18,0.2,0.19,0.35c0,0-0.03,0.02-0.03,0.02C78.62,33.77,78.59,33.64,78.61,33.48
			C78.6,33.48,78.61,33.48,78.61,33.48z"/>
		<path class="st0" d="M78.95,34.2c-0.14-0.07-0.18-0.21-0.18-0.35c0,0,0.03-0.02,0.03-0.02c0.14,0.08,0.17,0.21,0.18,0.36
			C78.97,34.18,78.95,34.2,78.95,34.2z"/>
		<path class="st0" d="M79.12,34.56c-0.15-0.08-0.18-0.21-0.18-0.36c0,0,0.02-0.02,0.02-0.02c0.15,0.07,0.17,0.21,0.18,0.35
			C79.15,34.53,79.12,34.56,79.12,34.56z"/>
		<path class="st0" d="M78.25,32.59c-0.15-0.07-0.18-0.2-0.18-0.35c0,0,0.01-0.01,0.01-0.01C78.23,32.31,78.25,32.44,78.25,32.59
			C78.26,32.59,78.25,32.59,78.25,32.59z"/>
		<path class="st0" d="M79.32,34.72c0.04,0.06,0.09,0.11,0.13,0.17c-0.03,0.02-0.06,0.04-0.09,0.06
			C79.34,34.87,79.32,34.8,79.32,34.72L79.32,34.72z"/>
		<path class="st0" d="M79.31,34.72c-0.06-0.06-0.12-0.11-0.19-0.17c0,0,0.02-0.02,0.02-0.02C79.2,34.59,79.26,34.66,79.31,34.72
			C79.32,34.72,79.31,34.72,79.31,34.72z"/>
		<path class="st0" d="M74,25.14c-0.02-0.03-0.05-0.05-0.07-0.08c0.02,0,0.04,0,0.05,0.01C73.99,25.09,74,25.12,74,25.14
			C74.01,25.14,74,25.14,74,25.14z"/>
		<path class="st0" d="M79.66,35.44c-0.03-0.03-0.05-0.06-0.08-0.09c0.03,0.03,0.06,0.05,0.09,0.08
			C79.67,35.42,79.66,35.44,79.66,35.44z"/>
		<path class="st0" d="M29.74,9.17c0.06-0.06,0.12-0.12,0.18-0.17c0,0,0.03,0.03,0.03,0.03c-0.06,0.06-0.11,0.12-0.17,0.18
			C29.78,9.21,29.74,9.17,29.74,9.17z"/>
		<path class="st0" d="M29.78,9.21c-0.04,0.02-0.07,0.05-0.11,0.07c0.02-0.04,0.04-0.07,0.07-0.11C29.74,9.17,29.78,9.21,29.78,9.21
			z"/>
		<path class="st0" d="M65.85,14.68c-0.06-0.06-0.12-0.12-0.18-0.18c0,0,0.02-0.02,0.02-0.02c0.06,0.06,0.11,0.12,0.17,0.18
			C65.87,14.67,65.85,14.68,65.85,14.68z"/>
		<path class="st2" d="M46.21,23.2c1.11,0.03,2.23,0.06,3.34,0.08c0.99,0.48,2.01,0.29,3.02,0.12c0.88,0.02,1.76,0.05,2.64,0.07
			c0.41,0.41,0.95,0.39,1.46,0.41c1.54,0.07,3.09,0.07,4.63,0.21c0.73,0.06,1.45,0.21,2.19,0.17c0.64-0.04,0.93,0.45,1.06,0.88
			c0.14,0.45-0.21,0.77-0.7,0.94c-1.56,0.53-3.18,0.78-4.79,0.99c-1.58,0.21-3.14,0.45-4.69,0.84c-0.7,0.17-1.49-0.02-2.23-0.06
			c-0.18-0.01-0.35-0.04-0.52-0.05c-0.29-0.02-0.52,0.11-0.67,0.35c-0.2,0.33,0.18,0.36,0.3,0.53c0.13,0.19,0.24,0.4,0.36,0.59
			c-1.01-0.32-1.7-1.18-2.63-1.64c-0.16-0.08-0.29-0.19-0.44-0.29c-0.12-0.46-0.48-0.44-0.84-0.44c-2.69,0-5.38-0.01-8.08-0.01
			c-0.43,0-0.91-0.04-1,0.58c-0.07,0.06-0.13,0.11-0.2,0.17c-0.41,0.16-0.88-0.27-1.28,0.12c-0.03,0.03-0.22-0.04-0.22-0.08
			c-0.11-1.29-1.6-0.76-2.08-1.71c0.15,0.82-0.31,0.76-0.77,0.76c-0.8,0.01-1.44-0.48-2.19-0.64c-0.55-0.12-0.98-0.02-1.39,0.32
			c-0.74,0.63-1.53,1.19-2,2.08c-0.25,0.48-0.61,0.54-0.74-0.08c-0.15-0.73-0.68-1.24-1.16-1.62c-0.65-0.51-1.54-0.17-2.31,0.01
			c-0.62,0.15-0.74,0.59-0.76,1.2c-0.03,0.93,0.21,1.88-0.15,2.79c-0.13-0.52-0.21-1.05-0.18-1.59c0.2-0.12,0.19-0.24,0-0.35
			c-0.11-0.9,0.25-1.76,0.27-2.65c0.34-0.12,0.4-0.5,0.55-0.74c1.18-1.83,2.99-1.82,4.82-1.77c0.54,0.01,1.08,0.03,1.26-0.65
			c0.7,0.02,1.39,0.03,2.09,0.05c0.11,0.21-0.21,0.56,0.18,0.68c0.94,0.28,1.52,1.01,2.1,1.82c0.11-0.54,0.11-1.01-0.13-1.38
			c-0.32-0.48-0.21-0.89,0.02-1.33c1.71,0.04,3.41,0.08,5.12,0.12c0.17,0.22,0.35,0.22,0.53,0.01c1.17,0.03,2.35,0.06,3.52,0.09
			C44.41,23.57,45.31,23.4,46.21,23.2z"/>
		<path class="st1" d="M39.09,30.18c3.01,0,6.03,0,9.04,0c0.01,0.07,0.02,0.14,0.02,0.22c-0.95,0.03-1.91,0.07-2.86,0.09
			c-1.06,0.03-2.11,0.05-3.17,0.05c-1.02,0.01-2.05,0-3.07,0C39.07,30.43,39.08,30.3,39.09,30.18z"/>
		<path class="st1" d="M43.69,29.28c-0.69-1.13-1.81-0.81-2.81-0.87c-0.23-0.01-0.47,0.11-0.69,0.07c-0.27-0.04-0.49-0.24-0.48-0.55
			c0.01-0.35,0.31-0.29,0.53-0.29c1.06-0.01,2.12,0,3.18-0.01c0.45-0.01,0.57,0.19,0.46,0.61C43.79,28.57,43.75,28.92,43.69,29.28z"
			/>
		<path class="st1" d="M38.43,27.64c0.07-0.06,0.13-0.11,0.2-0.17c0.37-0.01,0.31,0.24,0.31,0.48c-0.01,0.56,0,1.12,0,1.77
			c-0.42-1.22-1.68-0.07-2.21-0.95C37.37,28.49,37.98,28.17,38.43,27.64z"/>
		<path class="st1" d="M46.48,32.49c0.19,0.85-0.32,0.91-0.92,0.95c-0.67,0.05-1.28-0.11-1.89-0.36c-0.09-0.04-0.24-0.11-0.18-0.25
			c0.04-0.08,0.17-0.17,0.25-0.17C44.66,32.73,45.56,32.65,46.48,32.49z"/>
		<path class="st1" d="M46.62,29.1c0.17-0.5-0.61-1.67,0.8-1.42c1.18,0.21,0.18,1.19,0.56,1.71C47.39,29.69,47.41,27.71,46.62,29.1z
			"/>
		<path class="st1" d="M45.2,27.63c0.31,0.05,0.71-0.12,0.68,0.37c-0.01,0.25-0.14,0.7-0.35,0.59c-0.32-0.16-0.91-0.06-0.94-0.6
			C44.56,27.5,45.01,27.72,45.2,27.63z"/>
		<path class="st2" d="M43.9,52.56c-0.17-0.73,0.13-1.25,0.76-1.32c0.17-0.02,0.37-0.04,0.43,0.17c0.07,0.23-0.09,0.33-0.28,0.33
			C44.27,51.73,44.29,52.37,43.9,52.56z"/>
		<path class="st1" d="M41.28,33c-0.1,0.45-0.45,0.22-0.66,0.32c-0.34,0.16-0.26-0.17-0.3-0.33c-0.03-0.17-0.04-0.43,0.19-0.38
			C40.78,32.67,41.03,32.87,41.28,33z"/>
		<path class="st1" d="M41.37,33.35c0.31-0.37,0.31-0.8,0.68-0.78c0.17,0.01,0.33,0.39,0.25,0.59
			C42.16,33.51,41.83,33.3,41.37,33.35z"/>
		<path class="st1" d="M44.16,38.52c0.06-0.12,0.07-0.15,0.08-0.16c0.31-0.13,0.61-0.33,0.97-0.19c0.03,0.01,0.06,0.18,0.03,0.21
			C44.93,38.65,44.58,38.64,44.16,38.52z"/>
		<path class="st0" d="M32.87,80.2c-0.1,1.41-1.38,2.71-2.61,2.55c-0.73-0.09-1.47-0.3-1.49-1.28c0.38-0.28,0.22-0.69,0.27-1.06
			c0.03-0.27-0.14-0.65,0.23-0.78c0.55-0.18,0.73-0.55,0.88-1.09c0.19-0.72,0.96-0.82,1.43-0.26c0.41,0.49,0.92,0.9,0.88,1.64
			C32.46,80.11,32.71,80.14,32.87,80.2z"/>
		<path class="st2" d="M32.87,80.2c-0.16-0.05-0.42-0.09-0.41-0.28c0.04-0.74-0.47-1.15-0.88-1.64c-0.47-0.55-1.24-0.46-1.43,0.26
			c-0.14,0.54-0.33,0.9-0.88,1.09c-0.37,0.12-0.2,0.5-0.23,0.78c-0.04,0.37,0.11,0.78-0.27,1.06c-0.42-1.19-0.42-2.38,0.29-3.45
			c0.53-0.79,1.32-1.35,2.33-1.08c1.01,0.27,1.52,1.06,1.58,2.11c-0.3,0.23-0.3,0.47-0.03,0.72C32.92,79.91,32.9,80.06,32.87,80.2z"
			/>
		<path class="st0" d="M27.93,78.89c2.19-5.19,3.31-10.8,6.42-15.62c-0.92,2.65-2.35,5.09-3.28,7.76
			C30.13,73.69,29.49,76.48,27.93,78.89z"/>
		<path class="st0" d="M28.43,83.48c-1.27-0.33-1.51-1.24-1.75-2.14c-0.04-0.17-0.01-0.37,0.22-0.41c0.25-0.04,0.27,0.16,0.32,0.33
			C27.44,82.03,27.87,82.69,28.43,83.48z"/>
		<path class="st0" d="M36.16,59.92c-0.53,0.99-1.06,1.98-1.63,3.05C34.44,62.26,35.14,60.85,36.16,59.92z"/>
		<path class="st0" d="M25.51,82.27c0.1-0.56-0.45-1.09,0-1.78c0.16,0.47,0.14,0.91,0.37,1.27c0.28,0.44-0.1,0.45-0.38,0.5
			C25.5,82.26,25.51,82.27,25.51,82.27z"/>
		<path class="st0" d="M32.95,79.77c-0.27-0.25-0.27-0.49,0.03-0.72C33.18,79.3,33.23,79.54,32.95,79.77z"/>
		<path class="st0" d="M23.21,28.87c0.19,0.12,0.2,0.23,0,0.35C23.07,29.1,23.07,28.99,23.21,28.87z"/>
		<path class="st0" d="M7.69,71.36c1-1.11,2.52-0.1,2.86,1.1c0.36,1.26-0.1,3.19-2.02,3.59c-0.89,0.19-1.61-0.19-1.85-1.05
			c-0.11-0.41-0.35-0.82-0.19-1.28C7.33,73.16,7.57,72.29,7.69,71.36z"/>
		<path class="st2" d="M7.69,71.36c-0.12,0.93-0.37,1.8-1.21,2.36c0.01-0.66,0.09-1.32,0.47-1.88C7.12,71.59,7.29,71.27,7.69,71.36z
			"/>
		<path class="st1" d="M9.09,28.65c1.15,0,2.3,0.07,3.45-0.02c0.95-0.07,1.31,0.36,1.5,1.2c0.5,2.21,1.03,4.41,1.57,6.61
			c0.16,0.65,0.38,1.29,0.56,1.93c0.17,0.59,0.01,0.91-0.68,0.86c-2.61-0.19-5.23-0.37-7.85-0.55c-0.87-0.06-1.06-0.8-1.06-1.38
			c-0.02-1.73-0.77-3.26-1.14-4.89c-0.21-0.95-0.54-1.87-0.8-2.81c-0.25-0.87-0.15-0.99,0.73-1c1.24,0,2.48,0,3.71,0
			C9.09,28.62,9.09,28.64,9.09,28.65z M10.61,36.03c0,0.03,0.01-0.07-0.01-0.15c-0.1-0.4-0.2-0.8-0.31-1.2
			c-0.35-1.34-0.35-1.34-1.72-0.93c-0.19,0.06-0.41,0.05-0.61,0.06c-0.54,0.01-0.61,0.32-0.38,0.69c0.38,0.62,0.57,1.31,0.7,1.99
			c0.16,0.88,0.72,0.75,1.24,0.65C10.04,37.05,10.67,36.94,10.61,36.03z M7.78,29.42c-0.1,0.01-0.4,0-0.68,0.09
			c-0.36,0.11-0.96-0.05-0.84,0.7c0.11,0.68,0.44,0.97,1.13,0.82c0.46-0.1,0.92-0.16,1.38-0.27c0.29-0.07,0.45-0.27,0.39-0.59
			c-0.06-0.31-0.06-0.68-0.48-0.74C8.44,29.4,8.21,29.42,7.78,29.42z M8.03,33.16c0.24-0.05,0.58-0.16,0.92-0.2
			c0.56-0.06,0.8-0.23,0.66-0.89c-0.14-0.68-0.47-0.8-1.04-0.67C8.29,31.46,8,31.49,7.72,31.57c-0.32,0.09-0.77,0.11-0.61,0.64
			C7.25,32.63,7.26,33.19,8.03,33.16z"/>
		<path class="st2" d="M19.12,22.99c0.58,0.02,1.18-0.22,1.73,0.14c0.37,0.31,0.31,0.8,0.51,1.19c0.2,0.38-0.07,0.66-0.46,0.64
			c-2.48-0.16-4.07,1.4-5.64,2.96c-0.38,0.37-0.52,0.48-0.81-0.03c-0.26-0.47-0.7-0.7-1.26-0.63c-0.48,0.06-0.9-0.28-1.44-0.23
			c0.52-0.41,0.61-0.84,0.57-1.49c-0.04-0.86,0.1-1.04,1.15-1.32c1.65-0.45,3.36-0.24,5-0.66C18.82,23.47,19.12,23.42,19.12,22.99z"
			/>
		<path class="st2" d="M69.84,73.82c-0.27-0.91-0.01-1.76,0.38-2.56c0.32-0.65,0.88-1.02,1.65-0.96c0.74,0.06,0.99,0.58,1.22,1.2
			c0.37,1-0.09,1.88-0.3,2.8c-0.06,0.27-0.23,0.62-0.66,0.56c0.01-0.11-0.02-0.25,0.04-0.33c0.79-1.12,0.68-1.28-0.69-1.52
			C70.66,72.87,70.03,72.81,69.84,73.82z"/>
		<path class="st0" d="M69.84,73.82c0.19-1.01,0.82-0.95,1.64-0.81c1.37,0.24,1.48,0.41,0.69,1.52c-0.06,0.08-0.03,0.22-0.04,0.33
			c0,0-0.02-0.01-0.02-0.01c-0.63-0.01-1.25-0.15-1.88-0.03C69.96,74.54,69.83,74.21,69.84,73.82z"/>
		<path class="st0" d="M68.34,73.71c0.26,0.56,0.41,0.97,0.63,1.34c0.22,0.37,0.51,0.71,0.75,1.05
			C68.53,75.89,68.1,75.21,68.34,73.71z"/>
		<path class="st2" d="M70.23,74.82c0.63-0.12,1.25,0.02,1.88,0.03C71.6,75.51,70.88,75.5,70.23,74.82z"/>
		<path class="st0" d="M66.82,73.64c0.14,0.51,0.28,1.02,0.45,1.66C66.52,74.83,66.43,74.3,66.82,73.64z"/>
		<path class="st2" d="M81.81,49.33c0-0.31-0.03-0.51,0.01-0.71c0.05-0.26,0.29-0.35,0.51-0.38c0.09-0.01,0.25,0.05,0.28,0.12
			c0.12,0.35-0.22,0.31-0.38,0.44C82.09,48.93,81.99,49.11,81.81,49.33z"/>
		<path class="st0" d="M45.81,68.46c0.02-0.84,0.2-1.67,0.96-2.28c0.81-0.64,1.71-0.46,2.19,0.46c0.57,1.09,0.08,2.82-0.99,3.42
			c-0.45,0.25-0.95,0.25-1.33-0.06C46.2,69.64,45.61,69.29,45.81,68.46z"/>
		<path class="st0" d="M21.48,13.71c0.18,0.11,0.7-0.22,0.59,0.29c-0.16,0.71-0.75,0.96-1.45,0.91c-0.2-0.01-0.52,0.14-0.53-0.24
			C20.07,14.25,20.88,13.69,21.48,13.71z"/>
		<path class="st0" d="M34.37,22.89c-0.23,0.44-0.33,0.85-0.02,1.33c0.24,0.37,0.25,0.84,0.13,1.38c-0.58-0.8-1.15-1.54-2.1-1.82
			c-0.4-0.12-0.08-0.46-0.18-0.68C32.94,23.14,33.6,22.51,34.37,22.89z"/>
		<path class="st0" d="M52.58,23.4c-1.02,0.17-2.03,0.36-3.02-0.12C50.57,23.21,51.58,23.2,52.58,23.4z"/>
		<path class="st0" d="M46.21,23.2c-0.9,0.2-1.8,0.37-2.68-0.09C44.43,23.01,45.32,23.04,46.21,23.2z"/>
		<path class="st0" d="M40.02,23.02c-0.18,0.21-0.36,0.21-0.53-0.01C39.67,22.91,39.84,22.9,40.02,23.02z"/>
		<path class="st0" d="M62.42,9.1c0.25,0.07,0.67-0.07,0.68,0.34c0,0.26-0.31,0.4-0.62,0.35c-0.25-0.04-0.61,0.06-0.64-0.29
			C61.82,9.17,62.12,9.08,62.42,9.1z"/>
		<path class="st1" d="M25.08,15.94c0.94-0.04,1.87-0.09,2.92-0.14C27.43,16.4,25.95,16.52,25.08,15.94z"/>
		<path class="st2" d="M51.32,13.15c-0.1,0.01-0.2,0.04-0.23,0.01c-0.05-0.05-0.08-0.15-0.07-0.22c0.02-0.1,0.12-0.11,0.18-0.04
			C51.25,12.95,51.27,13.03,51.32,13.15z"/>
		<path class="st2" d="M64.27,12.55c0.03,0.01,0.05,0.02,0.08,0.04C64.32,12.57,64.29,12.56,64.27,12.55
			C64.27,12.55,64.27,12.55,64.27,12.55z"/>
		<path class="st0" d="M10.61,36.03c0.06,0.91-0.57,1.01-1.09,1.11c-0.52,0.1-1.08,0.22-1.24-0.65c-0.12-0.67-0.32-1.37-0.7-1.99
			c-0.23-0.37-0.16-0.69,0.38-0.69c0.2,0,0.42,0,0.61-0.06c1.37-0.4,1.37-0.41,1.72,0.93c0.1,0.4,0.21,0.8,0.31,1.2
			C10.62,35.97,10.61,36.06,10.61,36.03z"/>
		<path class="st0" d="M7.78,29.42c0.43,0,0.67-0.03,0.89,0.01c0.42,0.06,0.43,0.42,0.48,0.74c0.06,0.32-0.09,0.52-0.39,0.59
			c-0.46,0.1-0.92,0.17-1.38,0.27c-0.69,0.16-1.02-0.14-1.13-0.82c-0.12-0.75,0.48-0.59,0.84-0.7C7.37,29.43,7.68,29.44,7.78,29.42z
			"/>
		<path class="st0" d="M8.03,33.16c-0.77,0.03-0.79-0.53-0.92-0.95c-0.17-0.53,0.29-0.55,0.61-0.64C8,31.49,8.29,31.46,8.57,31.4
			c0.58-0.13,0.9-0.02,1.04,0.67c0.13,0.66-0.1,0.83-0.66,0.89C8.61,33,8.27,33.1,8.03,33.16z"/>
	</g>
</g>
</svg>
