<svg width="70" height="12" viewBox="0 0 70 12" fill="none" xmlns="http://www.w3.org/2000/svg">
<g id="Group 2">
<path id="Vector" d="M18.1126 0.141602H15.7578V11.514H18.1126V0.141602Z" fill="#083A6A"/>
<path id="Vector_2" d="M41.6314 3.23905C41.4444 2.6924 41.0982 2.1525 40.5981 1.62011C40.0965 1.08697 39.5026 0.68449 38.8125 0.410412C38.1314 0.127322 37.3948 -0.00859068 36.5981 0.000420125C35.7841 0.000420125 35.0377 0.139337 34.3566 0.417921C33.6756 0.695754 33.0854 1.10349 32.5845 1.64114C32.0837 2.17878 31.7097 2.79978 31.4634 3.50713C31.2164 4.21372 31.0947 5.00142 31.0947 5.86871C31.0947 6.32075 31.1263 6.739 31.1893 7.11971C31.2524 7.50191 31.3763 7.96222 31.5648 8.49911C31.7525 9.03676 32.1017 9.5759 32.613 10.1173C33.1214 10.6602 33.7176 11.0604 34.3979 11.3202C35.0775 11.5793 35.8119 11.7085 36.5981 11.7085C37.3843 11.7085 38.1254 11.5756 38.793 11.3135C39.4598 11.0499 40.0567 10.6489 40.5854 10.1105C41.1132 9.57365 41.4977 8.95341 41.7395 8.24981C41.9805 7.54922 42.1014 6.75402 42.1014 5.86796C42.1014 5.41591 42.0699 5.00067 42.0076 4.62371C41.9452 4.24676 41.8206 3.78421 41.6314 3.23755M39.6347 7.42157C39.4815 7.88788 39.2623 8.28961 38.9777 8.62902C38.6908 8.96842 38.3454 9.22148 37.9369 9.39193C37.5314 9.56164 37.0854 9.64649 36.6033 9.64649C36.1213 9.64649 35.6542 9.56013 35.2555 9.38517C34.859 9.21021 34.5113 8.95566 34.2185 8.61625C33.9219 8.27609 33.7004 7.87661 33.5547 7.41481C33.4075 6.95301 33.3324 6.43489 33.3324 5.86045C33.3324 5.28601 33.409 4.80018 33.5599 4.3211C33.7131 3.84128 33.9361 3.43128 34.2305 3.09188C34.5256 2.75247 34.8703 2.49942 35.263 2.33046C35.6557 2.13072 36.1025 2.04212 36.6026 2.06014C37.0764 2.06014 37.5194 2.1525 37.9302 2.33647C38.3409 2.51969 38.6953 2.78701 38.9897 3.13468C39.2848 3.4831 39.5056 3.88858 39.6482 4.34888C39.7894 4.81069 39.8622 5.31454 39.8622 5.8612C39.8622 6.43564 39.7871 6.95601 39.6347 7.42232V7.42157Z" fill="#083A6A"/>
<path id="Vector_3" d="M10.9261 0.0664062H9.73145L0.951172 11.5139H3.98256L5.68635 9.28521H10.9261V11.5191H13.2817V0.0664062H10.9261ZM6.9411 7.63173L10.8593 2.47154H10.9261V7.63173H6.9411Z" fill="#083A6A"/>
<path id="Vector_4" d="M65.9952 11.5139H69.0258L65.2263 6.55869C67.4106 6.58197 68.7885 6.68034 68.7885 6.68034V5.2754C67.1996 5.24311 65.679 5.23861 64.2253 5.25438L60.2455 0.0664062H56.6945V5.53897C55.9827 5.58628 55.2978 5.63809 54.6363 5.69441V0.098695H52.2807V5.91517C50.221 6.13068 48.4894 6.37397 47.0928 6.59924V0.098695H44.7379V7.0205C43.5463 7.25703 42.9268 7.42073 42.9268 7.42073V10.2298C43.5102 9.95051 44.1162 9.69295 44.7379 9.45341V11.4733H47.0928V8.65896C48.7733 8.16036 50.5274 7.7744 52.2807 7.4793V11.4741H54.6363V7.13463C55.3301 7.04753 56.018 6.97094 56.6945 6.90711V11.5191H59.0486V6.72089C60.1742 6.6488 61.2472 6.6045 62.2422 6.58047L65.9952 11.5139ZM59.0486 5.40381V2.47154H59.1177L61.281 5.31595C60.5151 5.33998 59.7702 5.37002 59.0478 5.40381H59.0486Z" fill="#083A6A"/>
<path id="Vector_5" d="M28.3758 6.45341C28.7077 6.28671 28.9998 6.0727 29.2491 5.81364C29.5089 5.50653 29.6996 5.17988 29.8182 4.83072C29.9384 4.48155 29.9992 4.09558 29.9992 3.67508C29.9992 3.09013 29.9046 2.57576 29.7169 2.12973C29.5299 1.68444 29.2551 1.34203 28.8886 1.104C28.5237 0.81565 28.0574 0.600141 27.4912 0.456719C26.9235 0.313297 26.2515 0.241211 25.4713 0.241211H20.5566V11.5122H22.9107V7.27865H24.4433C24.4643 7.27865 24.5379 7.27114 24.6415 7.25687L24.9246 7.62932L26.1809 9.2828L27.8847 11.5115H30.9161L27.278 6.76879C27.7007 6.70722 28.0702 6.60584 28.3758 6.45116M22.91 2.1943H25.686C26.0525 2.1943 26.3739 2.22734 26.6487 2.29417C26.9235 2.3625 27.1398 2.45261 27.299 2.56675C27.4589 2.68239 27.5723 2.84158 27.6399 3.04282C27.7262 3.24556 27.7698 3.47534 27.7698 3.7344C27.7698 4.022 27.7202 4.29232 27.6234 4.54162C27.5288 4.79092 27.3786 4.98765 27.1758 5.13108C27.0902 5.21818 26.9889 5.28576 26.874 5.33307C26.7561 5.38188 26.5796 5.43068 26.3378 5.47724C26.0968 5.5253 25.7777 5.55008 25.3819 5.55008H22.91V2.19656V2.1943Z" fill="#083A6A"/>
</g>
</svg>
