<?xml version="1.0" encoding="UTF-8" standalone="no"?>
<!-- Created with Inkscape (http://www.inkscape.org/) -->

<svg
   version="1.1"
   id="svg1"
   width="128"
   height="128"
   viewBox="0 0 128 128"
   xmlns="http://www.w3.org/2000/svg"
   xmlns:svg="http://www.w3.org/2000/svg">
  <defs
     id="defs1" />
  <g
     id="g1">
    <path
       style="fill:#000000"
       d="m 84.5,121.91884 c -2.2,-0.54482 -7.6,-2.74718 -12,-4.89414 -4.4,-2.14695 -10.322608,-5.95581 -13.161352,-8.46412 C 54.416618,104.21147 53.895112,104 48.091529,104 c -5.550576,0 -6.42646,0.3078 -9.959849,3.5 -2.130745,1.925 -4.57438,3.5 -5.430301,3.5 -0.85592,0 -2.465581,-1.15607 -3.577024,-2.56904 -1.797865,-2.28561 -2.497928,-2.49749 -6.345635,-1.92049 -3.573478,0.53588 -4.640527,0.29971 -6.141992,-1.35939 -0.999438,-1.10436 -2.242796,-3.9023 -2.763018,-6.217639 C 13.353489,96.618104 12.044086,93.600211 10.963926,92.22701 9.7266189,90.654029 9,88.190607 9,85.568804 c 0,-3.037025 0.9388033,-5.635089 3.474404,-9.615142 1.910922,-2.999514 3.485922,-6.219988 3.5,-7.156609 0.01408,-0.936621 -0.4964,-2.848603 -1.134395,-4.24885 -0.892922,-1.95975 -0.862145,-3.787462 0.133677,-7.938515 1.254361,-5.228762 1.213646,-5.497527 -1.340009,-8.845541 C 11.684545,45.208703 11,43.133811 11,39.781336 11,37.2899 11.675,33.338299 12.5,31 13.325,28.661701 14,24.765671 14,22.342155 c 0,-2.423516 0.612893,-5.854439 1.361984,-7.624274 0.749091,-1.769834 2.211591,-3.963519 3.25,-4.8748536 1.038409,-0.911335 3.769991,-2.1579604 6.070183,-2.7702787 2.85204,-0.7592218 5.555444,-0.8058773 8.5,-0.1466936 2.884741,0.6457929 5.313536,2.0879493 7.317833,4.3451419 1.65,1.858192 3.833768,4.919841 4.852817,6.803666 1.852818,3.425137 1.852818,3.425137 8,-3.238429 3.380951,-3.664962 7.130099,-7.152462 8.331442,-7.7500005 C 62.885601,6.4888951 66.768001,6 70.311814,6 c 4.586112,0 6.812256,0.4445685 7.72336,1.5423816 0.942734,1.1359258 0.985716,1.8367284 0.163103,2.6593414 -0.614328,0.614328 -3.233356,1.157756 -5.820061,1.207619 -2.586706,0.04986 -4.875952,0.603508 -5.087214,1.230325 -0.211263,0.626818 1.121676,2.070297 2.962086,3.207733 3.3462,2.068066 3.3462,2.068066 12.796556,-2.665409 C 88.24734,10.57858 94.896831,7.8976007 97.82629,7.2242585 100.75575,6.5509163 104.24325,6 105.57629,6 106.90933,6 108,6.363505 108,6.807789 c 0,0.4442839 -2.88,4.761221 -6.39999,9.593195 -3.519994,4.831973 -7.407184,11.555968 -8.638198,14.942211 -1.757789,4.835279 -3.611748,7.486358 -8.63734,12.351007 -4.923042,4.765383 -6.736042,7.328701 -7.8597,11.11247 -0.803313,2.705047 -2.361514,6.063634 -3.46267,7.463527 C 71.900946,63.670092 71,65.431845 71,66.185206 c 0,0.753361 2.876941,2.623078 6.393201,4.154927 3.516261,1.531849 8.24002,4.365988 10.497243,6.298086 3.231091,2.765694 5.389083,3.694546 10.145468,4.366857 3.322788,0.469673 8.141958,1.870801 10.709278,3.113618 2.56732,1.242817 6.34862,3.778146 8.4029,5.634063 2.05428,1.855918 4.4959,5.366639 5.42582,7.801603 1.07807,2.82289 1.47616,5.74966 1.09855,8.0766 -0.32572,2.00716 -1.71232,5.34199 -3.08134,7.41072 -1.63742,2.4743 -4.45492,4.72309 -8.23413,6.57209 -4.81803,2.35724 -7.20619,2.84988 -14.800993,3.05321 C 92.575199,122.80033 86.7,122.46367 84.5,121.91884 Z"
       id="path302" />
    <path
       style="fill:#ff00ff;stroke-width:0.137192"
       d="m 90.409432,122.49782 c -4.660321,-0.2514 -6.206221,-0.58156 -10.220793,-2.18281 -8.910584,-3.55409 -15.679912,-7.46076 -21.390971,-12.34502 -4.457931,-3.81255 -4.911851,-3.98157 -10.671841,-3.97378 -5.766599,0.008 -6.263914,0.17221 -9.833517,3.25085 -2.013686,1.73673 -3.476741,2.7865 -4.646263,3.33378 -0.78264,0.36624 -0.927082,0.39324 -1.347087,0.25175 -0.848892,-0.28597 -2.149677,-1.3334 -3.214353,-2.5883 -0.581899,-0.68586 -1.321116,-1.39434 -1.665265,-1.59603 -0.841285,-0.49302 -2.002625,-0.5612 -4.246297,-0.24926 -2.263597,0.31471 -4.064919,0.32378 -4.75649,0.0239 -0.283757,-0.12301 -0.859035,-0.54817 -1.278396,-0.94478 -1.273131,-1.20408 -2.302713,-3.33833 -3.221213,-6.677354 -0.693624,-2.521535 -1.588769,-4.647233 -2.615305,-6.210562 -1.6464151,-2.507352 -2.0339923,-3.67453 -2.1405023,-6.446063 -0.136388,-3.549 0.5338848,-5.491587 3.6612513,-10.611058 1.300499,-2.128906 2.370661,-4.159277 2.824868,-5.3595 0.589594,-1.557978 0.482011,-2.261373 -0.975471,-6.377777 -0.514328,-1.452631 -0.491201,-3.079782 0.08192,-5.763702 1.092781,-5.117457 1.119187,-5.271889 1.055609,-6.173633 -0.07972,-1.130676 -0.417185,-1.842651 -1.711166,-3.610153 -1.995513,-2.72575 -2.631833,-4.149206 -2.926847,-6.547393 -0.324416,-2.637191 0.24586,-7.036181 1.372951,-10.590652 0.921468,-2.906007 1.330147,-5.238055 1.516546,-8.653873 0.219787,-4.027689 0.743054,-6.455709 1.873971,-8.695451 0.803784,-1.591865 2.187254,-3.444567 3.032858,-4.0615141 1.573098,-1.1477204 4.969597,-2.4877712 7.356877,-2.9025729 1.559033,-0.2708899 4.233076,-0.2711706 5.794712,-6.083e-4 1.704149,0.2952535 3.697156,1.0067872 5.026931,1.7946905 2.557108,1.5151098 5.612957,5.1806188 8.584815,10.2975378 0.578814,0.996597 1.118703,1.553054 1.506813,1.553054 0.803487,0 2.246903,-1.323554 7.17152,-6.575995 2.380301,-2.538752 5.566956,-5.5257455 6.728992,-6.3073816 0.894541,-0.6017081 1.835587,-0.8673306 4.243484,-1.1977801 2.316461,-0.3179013 8.051338,-0.3227755 9.715725,-0.00826 1.601389,0.302613 2.576271,0.8169997 3.136154,1.6547583 0.564734,0.8450188 0.569445,1.3090206 0.01965,1.9352073 -0.686551,0.7819381 -2.475911,1.2172321 -5.67881,1.3814721 -3.052265,0.156516 -5.147757,0.659312 -5.34559,1.282629 -0.242875,0.765229 1.229815,2.27648 3.562082,3.655354 1.406708,0.831669 2.341903,1.072226 3.413195,0.877964 1.278203,-0.231782 2.045209,-0.556625 6.944804,-2.94126 6.712666,-3.267058 10.511774,-4.9052568 14.336549,-6.1820062 4.392435,-1.4662404 10.533588,-2.318055 11.901388,-1.6507936 0.28296,0.1380368 0.51447,0.3263535 0.51447,0.4184817 0,0.3967938 -1.83967,3.1920432 -5.33182,8.1013381 -5.074414,7.133647 -7.845666,11.873136 -9.830007,16.811608 -1.981436,4.931239 -2.905441,6.232629 -8.398212,11.82824 -5.304519,5.403835 -6.53,7.115133 -7.834266,10.940001 -1.318804,3.867506 -2.331607,6.026128 -3.743732,7.979149 -1.036804,1.433936 -1.766567,2.924991 -1.766567,3.609456 0,0.420266 0.09534,0.603841 0.514469,0.990556 0.876072,0.80833 2.870102,1.962672 5.659164,3.276085 4.523097,2.129998 7.90884,4.171398 10.906752,6.576116 3.32707,2.668747 4.757902,3.283875 9.591788,4.123603 6.530731,1.1345 10.735021,2.675403 15.034151,5.510124 3.7489,2.471917 5.7444,4.360659 7.70523,7.293034 2.26383,3.385489 3.27012,6.447204 3.27012,9.949624 0,1.88915 -0.35153,3.4158 -1.2911,5.60722 -1.309,3.05303 -2.66121,4.99599 -4.6272,6.6487 -2.80831,2.3608 -7.29866,4.69142 -10.78316,5.59678 -3.29278,0.85553 -10.167519,1.21746 -16.567567,0.87221 z"
       id="path303" />
  </g>
</svg>
