<?xml version="1.0" encoding="utf-8"?>
<!-- Generator: Adobe Illustrator 28.2.0, SVG Export Plug-In . SVG Version: 6.00 Build 0)  -->
<svg version="1.1" id="Layer_1" xmlns="http://www.w3.org/2000/svg" xmlns:xlink="http://www.w3.org/1999/xlink" x="0px" y="0px"
	 viewBox="0 0 85.04 85.04" style="enable-background:new 0 0 85.04 85.04;" xml:space="preserve">
<style type="text/css">
	.st0{fill:#37393D;}
	.st1{fill:#E2E3E3;}
	.st2{fill:#CF1619;}
	.st3{fill:#B8B8B8;}
	.st4{fill:#6E6D6C;}
	.st5{fill:#5B89BC;}
	.st6{fill:#FFFFFF;}
</style>
<g>
	<path class="st0" d="M42.21,38.99c-1.48,2.04-1.46,1.87-0.36,5.43c1.1,3.56,0.82,3.99,1.56,5.09c0.74,1.1,3.2,0.64,5.43,1.11
		s2.48-0.56,2.13-4.21s0.21-6.69-0.25-8.59C50.26,35.9,42.21,38.99,42.21,38.99z"/>
	<g>
		<path class="st1" d="M35.27,63.62c-0.01,0.71-0.45,1.16-1.02,1.39c-2.68,1.07-5.37,2.1-8.07,3.12c-0.19,0.07-0.57,0.08-0.65-0.03
			c-1.77-2.55-4.84-2.62-7.31-3.8c-1.05-0.5-2.13-1.24-3.43-1.01c-0.69-0.07-1.22-0.51-1.81-0.82c-1.11-0.58-2.09-1.51-3.47-1.45
			c-0.89,0.06-1.45-0.4-1.82-1.15c0-0.5-0.26-0.71-0.75-0.69c0,0,0.02,0.02,0.02,0.02c-0.13-0.13-0.26-0.26-0.39-0.39
			c0,0,0.02,0.02,0.02,0.02c-0.16-0.32-0.45-0.38-0.76-0.38c0,0,0.03,0.02,0.03,0.02c-0.13-0.13-0.26-0.26-0.39-0.39
			c0,0,0.02,0.02,0.02,0.02c-0.13-0.13-0.26-0.26-0.39-0.39c0,0,0.02,0.02,0.02,0.02c-0.27-0.38-0.47-0.93-1.07-0.4
			c-0.91-0.36-1.31-1.26-1.94-1.9c-0.31-0.32-0.73-0.77,0.32-0.51c0.67,0.17,0.32-0.51,0.31-0.9c-0.06-1.89-1.4-3.46-1.28-5.4
			c0.05-0.78-0.15-1.6,0.91-1.95c0.92-0.31-0.08-1.4,0.79-1.98c1.05-0.69,1.87-1.73,2.92-2.48c1.93-1.38,3.93-2.64,5.62-4.37
			c1.21-1.24,3.08-1.41,4.74-1.79c2.86-0.65,5.51-1.84,8.18-3c0.14,0.01,0.27,0.02,0.41,0.03c-0.03,0.24-0.06,0.47-0.08,0.71
			c-0.09,0.05-0.17,0.1-0.26,0.15c0.09,0.09,0.17,0.18,0.26,0.28c2.46,1.1,4.91,2.2,7.37,3.3c0.14,0.23,0.29,0.46,0.43,0.69
			c-0.03,0.39-0.06,0.78-0.09,1.18c-0.04,0.03-0.09,0.05-0.13,0.08c0.04,0.07,0.09,0.14,0.13,0.22c0.36,4.06,0.72,8.11,1.08,12.17
			c-0.08,0.15-0.16,0.29-0.23,0.44c0,0.09-0.02,0.19-0.04,0.28c-0.43,0-0.84,0.03-1.21,0.32c-2.5,2.01-4.91,4.15-7.79,5.63
			c0.34,0.57,1.08,0.08,1.41,0.76c-1,0.23-1.88,0.44-2.76,0.65c-2.57-1.09-5.17-2.11-7.7-3.28c-1.32-0.61-2.62-0.96-4.06-0.76
			c1.1-0.8,0.5-1.16-0.37-1.46c-0.06-0.22-0.19-0.3-0.41-0.23c-0.59,0.11-0.72-0.84-1.37-0.59l-0.02,0.04
			c0.12-0.43-0.18-0.37-0.43-0.37c-0.1-0.04-0.19-0.04-0.29,0c-1.29-0.78-2.31-2.09-4.51-2.25c1,0.71,1.59,1.11,2.17,1.53
			c0.54,0.4,1.11,0.47,0.59,1.61c-0.53,1.16-0.36,2.68,1.37,3.63c2.51,1.37,4.88,2.99,7.4,4.34c2.52,1.35,2.52,1.35,3.55-1.15
			c0.9,0.68,1.7,1.14,1.53-0.66c0.24,0.11,0.48,0.21,0.72,0.32c-0.7,1.27,0.19,1.7,1.13,2.05c0.8,0.3,1.7,0.5,1.78,1.54
			c0.16,2.15,1.4,2.17,2.99,1.59c0.37,0.5,0.82,0.7,1.42,0.43c2.11-0.92,4.32-1.58,6.33-2.72C35.05,63.54,35.16,63.57,35.27,63.62z
			 M16.15,55.13c0.13,0.14,0.2,0.47,0.47,0.13c-0.16-0.04-0.32-0.08-0.48-0.12c-0.15-0.3-0.44-0.35-0.74-0.37
			c-0.15-0.31-0.45-0.33-0.73-0.37c-0.16-0.3-0.44-0.34-0.74-0.37c-0.12-0.14-0.19-0.47-0.46-0.13c0.16,0.04,0.31,0.08,0.47,0.12
			c0.15,0.32,0.43,0.36,0.73,0.37c0.16,0.3,0.44,0.35,0.74,0.37C15.57,55.06,15.85,55.11,16.15,55.13z M18.71,56.24
			c-0.13-0.15-0.2-0.47-0.47-0.14c0.16,0.04,0.32,0.08,0.49,0.12c1.11,0.94,2.46,1.27,3.86,1.48
			C21.36,57.04,20.21,56.21,18.71,56.24z M16.32,44.74c-0.09,0.15-0.18,0.31-0.27,0.46c1.56,1.28,3.57,1.79,5.3,2.77
			c0.25,0.14,0.49,0.05,0.58-0.22c0.11-0.34-0.09-0.54-0.41-0.68C19.79,46.3,18.05,45.51,16.32,44.74z"/>
		<path class="st0" d="M24.94,33.79c0.03-0.24,0.06-0.47,0.08-0.71c0.67-1.07,2.28-0.53,2.9-1.68c1.35-1.03,2.69-2.09,4.22-2.86
			c0.78,0.09,1.57,0.23,2.36,0.02c1.44,0.2,2.8,0.64,4.15,1.17c0.45,0.18,1.16,0.3,1.31-0.15c0.25-0.75-0.66-0.75-1.05-0.89
			c-1.34-0.48-2.73-0.8-4.1-1.19c0.02-0.14,0.05-0.28,0.07-0.43c0.5,0.06,1,0.12,1.5,0.18c0.3,0.41,0.65,0.45,1.04,0.13
			c0.35,0.1,0.7,0.21,1.05,0.31c0.76,0.24,1.52,0.48,2.28,0.72c0.1,0.44-0.24,1.17,0.69,1.06c0.55,1.86,1.97,1.56,3.35,1.34
			c0.26,0.04,0.53,0.09,0.79,0.13c-0.24,1.6,1.26,0.84,1.87,1.29c0.27,0.2,1.36,0.64,1.39-0.58c0-0.05-0.05-0.11-0.08-0.16
			c-0.13-0.3-0.37-0.27-0.62-0.2c-0.26-0.15-0.52-0.3-0.78-0.46c0.01-0.12,0.03-0.23,0.06-0.35c0.71,0.15,1.42,0.29,2.12,0.44
			c2.07,0.23,2.45,0.81,1.83,2.78c-0.4,1.27-0.76,2.56-1.14,3.84c-1.13,0.46-0.82,1.72-1.39,2.49c-2.33,0.19-4.71-0.02-6.97,0.79
			c-1.87-0.64-3.74-1.27-5.61-1.91c-1.28-0.58-2.57-1.14-3.95-1.43c-2.46-1.1-4.91-2.2-7.37-3.3
			C24.94,34.07,24.94,33.93,24.94,33.79z"/>
		<path class="st1" d="M80.17,27.93c0.69,1.67,0.88,3.41,0.58,5.16c-0.12,0.68-0.09,1.68-1.19,1.83c-0.76-2.13-1.42-2.31-3.07-0.7
			c-0.93,0.91-1.75,1.94-2.62,2.91c-1.46,0.02-2.76,0.03-2-2.17c0.33-0.95-0.62-0.86-1.19-0.65c-1.37,0.5-2.67,1.24-4.08,1.57
			c-2.63,0.61-5.11,1.55-7.45,2.89c-0.8,0.45-1.78,0.86-0.91,2.06c-0.3,0.2-0.58,0.45-0.98,0.37c0.06-0.33,0.09-0.65-0.34-0.76
			c0,0-0.01-0.01-0.01-0.01c-0.13-0.11-0.27-0.22-0.4-0.34c-0.43,0.11-0.97,0.64-1.25,0c-0.21-0.48,0.44-0.61,0.8-0.79
			c2.23-1.1,4.45-2.21,6.7-3.27c0.66-0.31,1.11-0.68,0.9-1.48c0.04-0.18,0.09-0.35,0.13-0.53c0.08-0.43,0.17-0.86,0.25-1.29
			c0.54-0.07,1.21-0.05,0.74-0.91c-0.44-0.81-0.66-1.82-1.72-2.14c-0.54-1.07-1.29-1.15-2.34-0.68c-1.46,0.66-2.99,1.17-4.48,1.75
			c-0.13-1.85-1.21-3.26-2.21-4.69l-0.05-0.01c0.02-0.11,0-0.22-0.05-0.32c-0.4-0.8-0.8-1.59-1.4-2.78C54.17,23.95,55.8,23,56.88,24
			c1.22-0.31-0.62-0.97,0.34-1.18c0.64-0.14,1.25,0.14,1.04,1.03c-0.06,0.25-0.03,0.66,0.14,0.58c1.07-0.49,1.98,0.85,3.03,0.21
			c1.86,1.33,3.93,1.73,6.17,1.45c2.55-0.22,5.13,0.39,7.66-0.3c0.9,0.06,1.91-0.51,2.66,0.43c-0.14,0.21-0.27,0.43-0.41,0.64
			c-0.38-0.15-0.7-0.42-1.18-0.28c-1.95,0.54-3.9,1.05-5.86,1.57c-1.22,0.33-0.37,0.98-0.24,1.51c0.1,0.9-1.17,0.68-1.3,1.43
			c0.63,0.3,1.02-0.16,1.48-0.23c3.05-0.44,5.44-3.47,8.93-2.3C79.54,28.64,79.9,28.16,80.17,27.93z M65.78,34.57
			c1.22,0.08,1.67-0.7,1.99-1.62c-0.97,0.19-1.52,0.87-2.02,1.59c-0.45,0.03-0.85,0.14-0.95,0.66c-0.04,0.21,0.1,0.36,0.32,0.32
			C65.64,35.42,65.76,35.02,65.78,34.57z"/>
		<path class="st2" d="M49.58,42.74c0.29-1.54,0.14-3.72,0.65-5.17c0.38-1.28,0.75-2.56,1.14-3.84c0.62-1.98,0.24-2.56-1.83-2.78
			c0.19-0.89-0.33-1.23-1.09-1.29c-2.99-0.27-5.78-1.39-8.66-2.12c-0.18-0.75-0.37-1.5-0.55-2.24c0.05-0.09,0.07-0.18,0.05-0.28
			c1.82-0.53,3.65-1.05,5.47-1.58c0.71,0.15,1,0.65,1.38,1.25c0.58,0.91,0.75,2.3,2.12,2.49c1.37,0.2,2.73,0.44,4.13,0.42
			c1.14-0.01,1.74-0.3,1.63-1.51c1.01,1.44,2.09,2.84,2.21,4.69c-1.13,0.55-2.43,0.83-2.92,2.29c-0.95,2.86-1.99,5.68-3,8.52
			c-0.25,0.57-0.76,1.34,0.55,0.9c0.69-0.23,1.32-0.61,1.98-0.93c-0.02,0.42-0.03,0.84-0.34,1.18c-0.47,0.52-0.47,1.08-0.06,1.64
			c0.51,0.7,1.16,0.44,1.78,0.19c0.55-0.22,1.07-0.49,1.61-0.74c-0.55,2.29-1.86,4.24-3.13,6.78c2.12-1.14,3.72-2.19,5.58-2.73
			c0.06,0.52-0.17,0.71-0.45,0.85c-1.73,0.9-3.53,1.68-5.18,2.71c-1.48,0.92-3.08,1.92-2.52,4.15c0,0-0.08,0.08-0.08,0.08
			c-0.37-0.03-0.74-0.06-1.11-0.08c0.45-2.23,0.9-4.46,1.35-6.68C49.94,49.51,49.29,44.28,49.58,42.74z M50.14,45.66
			c-0.21,0.69-0.25,1.4-0.02,2.23C50.41,47.08,50.28,46.37,50.14,45.66z"/>
		<path class="st3" d="M50.14,55.59c-0.56-2.23,1.04-3.23,2.52-4.15c1.65-1.02,3.45-1.81,5.18-2.71c0.27-0.14,0.51-0.33,0.45-0.85
			c-1.86,0.55-3.46,1.59-5.58,2.73c1.27-2.54,2.58-4.5,3.13-6.78c0.34-0.71,0.67-1.42,1.01-2.13c0.6,0.05,0.63,1.13,1.44,0.82
			c0.07,0.08,0.15,0.15,0.23,0.23c0.07,1.14,1.25,1.76,1.36,2.93c0.03,0.35,0.61,0.09,0.9-0.14c1.07-0.85,1.6-4.05,0.74-5.08
			c-0.32-0.38-1.04-0.85-1.49-0.09c-0.48,0.8-1.15,0.48-1.78,0.5c-0.87-1.2,0.11-1.61,0.91-2.06c2.34-1.33,4.81-2.28,7.45-2.89
			c1.4-0.33,2.71-1.08,4.08-1.57c0.57-0.21,1.52-0.3,1.19,0.65c-0.76,2.19,0.55,2.18,2,2.17c-0.92,2.68-2.06,5.25-3.55,7.66
			c-0.78,0.48-1.92-0.15-2.55,0.82c-3.53,2.17-7.14,4.2-10.87,6.01C54.54,52.77,52.32,54.14,50.14,55.59z"/>
		<path class="st0" d="M42.78,47.03c1.2,0.5,2.74,0.53,3.12,2.2c-0.15,0.05-0.31,0.09-0.46,0.14c0.03,0.04,0.08,0.13,0.09,0.12
			c0.13-0.07,0.26-0.16,0.4-0.24c1.01,0,2-0.25,2.96,0.47c0.93,0.7,1.06-0.22,1.42-0.82c-0.45,2.23-0.9,4.46-1.35,6.68
			c0.03,0.86,0.01,1.72-0.44,2.5c-0.28-0.19-0.69-0.32-0.37-0.8c0.79-1.18,0.32-2.36-0.16-3.43c-0.7-1.57-2.41-1.79-3.53-0.57
			l-0.01,0.01c-2.81,1.3-3.49,3.9-4,6.59c-0.28,1.46,0.38,2.63,1.67,3.12c1.11,0.42,2.31,0.26,3.16-0.91
			c0.33-0.46,0.95-0.75,1.54-0.2c-0.03,0.12-0.06,0.24-0.09,0.36c-0.24-0.04-0.31,0.05-0.22,0.27c-0.3,0.29-0.6,0.58-0.89,0.87
			c-0.22-0.08-0.32,0-0.3,0.23c0,0-0.08,0.05-0.08,0.05c-0.23-0.06-0.36,0.04-0.38,0.27c-0.12,0.03-0.24,0.06-0.36,0.09
			c-0.28-0.13-0.38,0.01-0.38,0.27c0,0-0.01,0.01-0.01,0.01c-0.29,0.03-0.68-0.16-0.75,0.34c0,0,0,0,0,0
			c-0.12,0-0.23,0.01-0.35,0.02c-0.31-0.05-0.6-0.02-0.76,0.31c-0.35,0.18-0.71,0.26-1.09,0.05c-0.13-0.36-0.4-0.44-0.74-0.36
			c0,0-0.03-0.02-0.03-0.02c-0.03-0.23-0.16-0.33-0.39-0.3c0,0-0.01-0.01-0.01-0.01c-0.32-0.62-0.86-0.78-1.5-0.72
			c-0.12,0.01-0.21-0.03-0.28-0.12c-0.86-0.79-1.85-1.18-3.03-0.87c0.93-3.98,2.47-7.73,5.83-10.2c1.88-1.39,2.53-2.75,1.82-4.88
			C42.77,47.41,42.79,47.22,42.78,47.03z"/>
		<path class="st3" d="M54.04,26.09c0.11,1.21-0.5,1.5-1.63,1.51c-1.41,0.02-2.77-0.22-4.13-0.42c-1.37-0.2-1.55-1.59-2.12-2.49
			c-0.38-0.6-0.67-1.1-1.38-1.25c2.16-1.27,4.62-1.35,7-1.44c1.1-0.04,2.16-0.33,3.24-0.27c1.2,0.07,0.57-1.41,1.45-1.56
			c0.44,1.21,1.34,1.62,2.56,1.52c0.67,0.12,0.8,0.92,1.61,1.03c4.95,0.69,9.77,2.02,14.65,3.08c-2.53,0.69-5.11,0.08-7.66,0.3
			c-1.98-0.79-4.08-1.13-6.17-1.45c-1.05,0.64-1.96-0.7-3.03-0.21c-0.18,0.08-0.2-0.33-0.14-0.58c0.21-0.89-0.4-1.17-1.04-1.03
			c-0.96,0.21,0.89,0.86-0.34,1.18c-1.08-1.01-2.71-0.06-4.35-1.03c0.6,1.19,1,1.99,1.4,2.78c-0.04,0.04-0.09,0.08-0.13,0.11
			c0.06,0.07,0.13,0.14,0.19,0.21L54.04,26.09z"/>
		<path class="st4" d="M44.45,53.29c1.12-1.23,2.83-1.01,3.53,0.57c0.48,1.07,0.95,2.25,0.16,3.43c-0.32,0.48,0.09,0.61,0.37,0.8
			c0.06,0.15,0.12,0.3,0.18,0.45c-0.55,1.16-0.78,2.51-1.88,3.37c-0.59-0.55-1.21-0.26-1.54,0.2c-0.85,1.17-2.05,1.33-3.16,0.91
			c-1.29-0.49-1.94-1.66-1.67-3.12C40.95,57.2,41.63,54.6,44.45,53.29c0.08,0.27,0.03,0.64,0.47,0.61c0.05,0,0.12-0.07,0.13-0.12
			C45.08,53.34,44.7,53.4,44.45,53.29z M45.99,53.4c0.2,1.3,0.82,2.36,0.8,3.57C47.64,55.08,47.48,54.38,45.99,53.4z"/>
		<path class="st0" d="M56.19,17.64c0.45-0.64,1.17-0.86,1.83-1.15c0.17-0.05,0.35-0.1,0.52-0.15c0.32-0.08,0.63-0.16,0.95-0.24
			c0.31,0.08,0.61,0.07,0.87-0.16c0.16,0,0.32,0.01,0.49,0.01c0.09,0.83,0.41,1.29,1.39,1.28c0.94-0.01,1.88,0.2,2.81,0.4
			c5.47,1.17,10.95,2.28,16.5,3.04c0,0.32,0,0.65,0,0.97c-1.13,0.37-0.8,1.64-1.43,2.31c-0.46,0-0.6-0.38-0.8-0.69
			c-0.27-1.36-1.5-1-2.32-1.18c-4.51-1-9.02-2-13.57-2.8c-2.29-0.4-4.58-1.69-6.98-0.42c-0.09-0.15-0.18-0.3-0.26-0.46
			C56.17,18.15,56.18,17.89,56.19,17.64z"/>
		<path class="st0" d="M70.32,44.8c1.49-2.41,2.63-4.98,3.55-7.66c0.87-0.98,1.69-2,2.62-2.91c1.65-1.61,2.31-1.43,3.07,0.7
			c-0.09,0.24-0.18,0.47-0.26,0.71c-0.83,0.12-1.91-0.31-2.28,1.05c0.45-0.1,0.84-0.19,1.22-0.28c0.71,0.77,0.49,1.68,0.38,2.57
			c-0.65-0.12-1.89,0.91-1.63-0.97c0.1-0.75-0.64-0.56-1-0.2c-1.51,1.49-0.9,3.42-1,5.2c-0.08,1.42,1.47,0.34,1.82,1.14
			c-0.02,0.23-0.04,0.46-0.06,0.69c-0.11,0.12-0.23,0.25-0.34,0.37c-0.11,0.01-0.22,0.02-0.33,0.05c-0.14,0.09-0.28,0.19-0.42,0.28
			c0,0-0.05,0.02-0.05,0.02C73.86,45.29,72.09,45.05,70.32,44.8z"/>
		<path class="st3" d="M81.54,20.67c-5.54-0.76-11.03-1.87-16.5-3.04c-0.93-0.2-1.87-0.41-2.81-0.4c-0.98,0.01-1.3-0.45-1.39-1.28
			c7.33,1.19,14.63,2.57,21.89,4.15C82.33,20.28,81.94,20.47,81.54,20.67z"/>
		<path class="st3" d="M80.1,23.95c0.63-0.68,0.3-1.94,1.43-2.31c0.78-0.25,1.74-0.84,1.51,0.8c-0.6,1.79-0.85,3.76-2.75,4.83
			c-0.13,0.07-0.09,0.44-0.12,0.67c-0.28,0.23-0.64,0.71-0.82,0.65c-3.49-1.18-5.88,1.86-8.93,2.3c-0.46,0.07-0.85,0.53-1.48,0.23
			c0.13-0.75,1.4-0.53,1.3-1.43c2.75-0.1,4.98-1.53,7.27-2.8c0.14-0.21,0.27-0.43,0.41-0.64c0.7-0.1,1.39-0.25,1.85-0.86
			c0.29-0.16,0.34-0.43,0.34-0.73C80.11,24.41,80.11,24.18,80.1,23.95z"/>
		<path class="st4" d="M56.43,18.86c2.41-1.27,4.7,0.01,6.98,0.42c4.55,0.8,9.06,1.8,13.57,2.8c0.82,0.18,2.05-0.18,2.32,1.18
			c-1.85-0.36-3.71-0.7-5.56-1.07c-4.29-0.87-8.58-1.79-12.88-2.62c-0.86-0.17-1.94-0.48-2.56,0.34c-0.53,0.69,0.22,1.27,0.7,1.79
			c-1.21,0.1-2.12-0.31-2.56-1.52C56.44,19.73,56.43,19.3,56.43,18.86z"/>
		<path class="st3" d="M78.63,38.97c0.11-0.89,0.33-1.8-0.38-2.57c0.38-0.38,0.61,0.15,0.93,0.15c0.32,0.23-0.24,1.13,0.69,0.9
			c0.14,0.1,0.38,0.18,0.42,0.32c0.68,2.21-1.33,6.2-3.53,7.06c0.02-0.23,0.04-0.46,0.06-0.69C78.03,42.62,77.99,40.67,78.63,38.97z
			"/>
		<path class="st4" d="M70.32,44.8c1.77,0.25,3.53,0.49,5.3,0.74c-1.02,0.8-2.24,0.61-3.32,0.42c-1.51-0.26-3.02-0.25-4.52-0.34
			C68.4,44.65,69.54,45.28,70.32,44.8z"/>
		<path class="st3" d="M9.5,61.01c1.38-0.06,2.36,0.87,3.47,1.45c0.59,0.31,1.12,0.74,1.81,0.82c0.83,0.57,1.67,1.15,2.51,1.72
			l-0.11,0.12C14.34,64.29,11.69,63.08,9.5,61.01z"/>
		<path class="st3" d="M34.81,27.5c1.37,0.38,2.76,0.71,4.1,1.19c0.39,0.14,1.3,0.14,1.05,0.89c-0.15,0.45-0.86,0.33-1.31,0.15
			c-1.35-0.53-2.71-0.97-4.15-1.17c-0.72-0.41-0.83-0.76,0.1-1.01l0.09-0.09L34.81,27.5z"/>
		<path class="st4" d="M27.93,31.4c-0.63,1.15-2.23,0.61-2.9,1.68c-0.14-0.01-0.27-0.02-0.41-0.03c0.15-1.99,0.94-2.49,2.6-1.68
			C27.41,31.46,27.69,31.39,27.93,31.4z"/>
		<path class="st4" d="M83.04,22.44c0.23-1.64-0.73-1.05-1.51-0.8c0-0.32,0-0.65,0-0.97c0.4-0.19,0.8-0.38,1.2-0.58
			c0.33,0.01,0.66,0.02,1,0.03c0.15,0.01,0.31,0.02,0.46,0.03C84.78,21.39,83.83,21.88,83.04,22.44z"/>
		<path class="st1" d="M39.3,25.01c0.02,0.1,0,0.19-0.05,0.28c-0.74,0.35-1.47,0.72-2.23,1.03c-0.8,0.32,0.06,0.6-0.01,0.89
			c-0.21,0.02-0.42,0.03-0.63,0.05c-0.5-0.06-1-0.12-1.5-0.18C35.86,25.33,37.7,25.44,39.3,25.01z"/>
		<path class="st3" d="M48.69,58.53c-0.06-0.15-0.12-0.3-0.18-0.45c0.44-0.78,0.47-1.63,0.44-2.5c0.37,0.03,0.74,0.06,1.11,0.08
			C49.66,56.66,49.69,57.84,48.69,58.53z"/>
		<path class="st4" d="M34.6,27.55c-0.93,0.25-0.81,0.6-0.1,1.01c-0.79,0.21-1.57,0.07-2.36-0.02
			C32.93,28.12,33.34,26.78,34.6,27.55z"/>
		<path class="st3" d="M19.5,66.1c1.2,0.18,2.21,0.76,3.12,1.55c-1.28-0.01-2.31-0.6-3.24-1.4C19.42,66.2,19.46,66.15,19.5,66.1z"/>
		<path class="st4" d="M35.17,62.66c1.18-0.31,2.16,0.08,3.03,0.87c-0.98-0.02-1.98-0.83-2.94,0.09c-0.11-0.05-0.22-0.08-0.33-0.08
			C35.01,63.24,35.09,62.95,35.17,62.66z"/>
		<path class="st4" d="M79.18,36.55c-0.32,0-0.55-0.53-0.93-0.15c-0.39,0.09-0.77,0.18-1.22,0.28c0.36-1.36,1.44-0.93,2.28-1.05
			c0.06,0.11,0.12,0.22,0.19,0.33c-0.02,0.1-0.01,0.2,0.02,0.3C79.4,36.36,79.29,36.45,79.18,36.55z"/>
		<path class="st4" d="M38.48,63.65c0.65-0.06,1.18,0.1,1.5,0.72C39.43,64.24,38.84,64.17,38.48,63.65z"/>
		<path class="st3" d="M4.05,57.32c0.61-0.53,0.81,0.02,1.07,0.4C4.69,57.76,4.32,57.68,4.05,57.32z"/>
		<path class="st4" d="M40.41,64.71c0.34-0.08,0.61,0,0.74,0.36C40.72,65.33,40.52,65.11,40.41,64.71z"/>
		<path class="st4" d="M79.87,37.44c-0.93,0.24-0.37-0.66-0.69-0.9c0.11-0.09,0.22-0.19,0.33-0.28c0.07,0.06,0.16,0.09,0.26,0.09
			C79.8,36.72,79.84,37.08,79.87,37.44z"/>
		<path class="st3" d="M6.94,59.18c0.48-0.03,0.75,0.18,0.75,0.69C7.3,59.78,7.09,59.51,6.94,59.18z"/>
		<path class="st3" d="M18.76,65.74c0.3,0.02,0.57,0.08,0.74,0.36c-0.04,0.05-0.08,0.09-0.12,0.14c-0.24-0.12-0.49-0.25-0.73-0.37
			L18.76,65.74z"/>
		<path class="st3" d="M56.19,17.64c-0.01,0.26-0.02,0.51-0.03,0.77C55.83,18.14,55.77,17.88,56.19,17.64z"/>
		<path class="st3" d="M60.36,15.93c-0.26,0.23-0.55,0.24-0.87,0.16C59.73,15.77,60.02,15.75,60.36,15.93z"/>
		<path class="st3" d="M5.83,58.44c0.31,0.01,0.61,0.06,0.76,0.38C6.26,58.86,6,58.73,5.83,58.44z"/>
		<path class="st3" d="M43.34,64.68c0.07-0.5,0.46-0.31,0.75-0.34C44,64.8,43.65,64.69,43.34,64.68z"/>
		<path class="st4" d="M42.24,65.01c0.16-0.33,0.44-0.36,0.76-0.31c-0.05,0.09-0.08,0.18-0.08,0.28
			C42.69,65,42.46,65.01,42.24,65.01z"/>
		<path class="st3" d="M17.29,65c0.29,0.03,0.57,0.09,0.73,0.38c0,0-0.09,0.11-0.09,0.11c-0.3,0-0.58-0.07-0.74-0.36
			C17.18,65.13,17.29,65,17.29,65z"/>
		<path class="st3" d="M18.64,65.87c-0.24-0.13-0.48-0.26-0.72-0.39c0,0,0.09-0.1,0.09-0.1c0.29,0.02,0.57,0.08,0.74,0.36
			C18.76,65.74,18.64,65.87,18.64,65.87z"/>
		<path class="st3" d="M58.54,16.33c-0.17,0.05-0.35,0.1-0.52,0.15C58.15,16.27,58.32,16.21,58.54,16.33z"/>
		<path class="st4" d="M75.67,45.52c0.14-0.09,0.28-0.19,0.42-0.28c-0.04,0.1-0.06,0.2-0.06,0.31l-0.18,0.04L75.67,45.52z"/>
		<path class="st3" d="M5.1,57.7c0.13,0.13,0.26,0.26,0.39,0.39C5.26,58.07,5.11,57.95,5.1,57.7z"/>
		<path class="st3" d="M5.47,58.07c0.13,0.13,0.26,0.26,0.39,0.39C5.73,58.33,5.6,58.2,5.47,58.07z"/>
		<path class="st3" d="M6.57,58.8c0.13,0.13,0.26,0.26,0.39,0.39C6.83,59.06,6.7,58.93,6.57,58.8z"/>
		<path class="st3" d="M46.5,62.54c-0.09-0.22-0.02-0.31,0.22-0.27C46.77,62.46,46.7,62.55,46.5,62.54z"/>
		<path class="st3" d="M79.77,36.35c-0.1,0-0.18-0.03-0.26-0.09c-0.03-0.1-0.04-0.2-0.02-0.3C79.69,36.02,79.81,36.13,79.77,36.35z"
			/>
		<path class="st3" d="M84.19,20.14c-0.15-0.01-0.31-0.02-0.46-0.03C83.9,19.9,84.05,19.89,84.19,20.14z"/>
		<path class="st3" d="M44.84,63.97c0.03-0.23,0.15-0.33,0.38-0.27C45.19,63.92,45.06,64.01,44.84,63.97z"/>
		<path class="st3" d="M44.1,64.33c0.01-0.26,0.1-0.4,0.38-0.27C44.35,64.15,44.23,64.24,44.1,64.33z"/>
		<path class="st4" d="M39.99,64.39c0.23-0.03,0.36,0.07,0.39,0.3C40.15,64.72,40.02,64.61,39.99,64.39z"/>
		<path class="st3" d="M42.91,64.99c0-0.1,0.03-0.2,0.08-0.28c0.12-0.01,0.23-0.02,0.35-0.02C43.3,64.93,43.15,65.02,42.91,64.99z"
			/>
		<path class="st3" d="M76.02,45.55c0-0.11,0.02-0.21,0.06-0.31c0.11-0.02,0.22-0.04,0.33-0.05C76.4,45.44,76.26,45.55,76.02,45.55z
			"/>
		<path class="st3" d="M45.31,63.64c-0.02-0.23,0.08-0.31,0.3-0.23C45.61,63.62,45.51,63.7,45.31,63.64z"/>
		<path class="st5" d="M35.17,62.66c-0.08,0.29-0.16,0.58-0.24,0.88c-2.01,1.14-4.22,1.8-6.33,2.72c-0.6,0.26-1.06,0.06-1.42-0.43
			c0.94-2.38,2.06-4.6,3.75-6.59c1.57-1.85,2.36-4.19,2.52-6.67c0.02-0.09,0.03-0.18,0.04-0.28c0.08-0.15,0.16-0.29,0.23-0.44
			c-0.36-4.06-0.72-8.11-1.08-12.17c0.03-0.1,0.03-0.2,0-0.29c0.03-0.39,0.06-0.78,0.09-1.18c1.17,0.24,2.25,0.97,3.52,0.74
			c1.87,0.64,3.74,1.27,5.61,1.91c-0.64,0.68-0.36,1.37-0.03,2.07c0.06,0.16,0.12,0.33,0.18,0.49c-0.07,0.29-0.04,0.54,0.24,0.71
			c-0.21,0.82,0.21,1.53,0.41,2.28c0.04,0.21,0.07,0.42,0.11,0.63c0.01,0.18-0.01,0.38,0.04,0.55c0.71,2.13,0.07,3.49-1.82,4.88
			C37.65,54.93,36.11,58.68,35.17,62.66z"/>
		<path class="st3" d="M33.45,52.56c-0.17,2.48-0.95,4.82-2.52,6.67c-1.7,2-2.82,4.22-3.75,6.59c-1.59,0.59-2.82,0.57-2.99-1.59
			c-0.08-1.04-0.98-1.24-1.78-1.54c-0.94-0.35-1.82-0.78-1.13-2.05c0.33,0.09,0.67,0.2,1.01,0.27c0.43,0.09,0.87,0.7,1.26,0.22
			c0.37-0.46-0.25-0.81-0.44-1.21c0.88-0.21,1.75-0.41,2.76-0.65c-0.33-0.69-1.07-0.19-1.41-0.76c2.88-1.49,5.28-3.63,7.79-5.63
			C32.61,52.58,33.02,52.56,33.45,52.56z"/>
		<path class="st0" d="M23.11,59.92c0.18,0.4,0.81,0.75,0.44,1.21c-0.39,0.48-0.83-0.13-1.26-0.22c-0.34-0.07-0.67-0.18-1.01-0.27
			c-0.24-0.11-0.48-0.21-0.72-0.32c-1.34-0.82-2.73-1.51-4.35-1.58c-0.97-1.49-2.53-1.64-3.95-2.1c-0.08,0.17-0.16,0.34-0.23,0.51
			c1.36,0.56,2.72,1.12,4.08,1.69c0.69,1.1,2.6,0.55,2.93,2.14c-1.03,2.5-1.03,2.5-3.55,1.15c-2.53-1.35-4.9-2.98-7.4-4.34
			c-1.73-0.94-1.89-2.46-1.37-3.63c0.52-1.14-0.05-1.22-0.59-1.61c-0.58-0.42-1.17-0.83-2.17-1.53c2.2,0.17,3.22,1.48,4.51,2.25
			c-0.02,0.37,0.13,0.66,0.43,0.87C9,53.96,9.1,53.78,9.21,53.6c0.65-0.25,0.78,0.7,1.37,0.59c0,0,0.03,0.01,0.03,0.01
			c0.01,0.19,0.01,0.38,0.02,0.56c-0.09,0.25-0.01,0.59-0.41,0.67c-0.2,0.04-0.7-0.16-0.42,0.37c0.05,0.1,0.41,0.05,0.63,0.06
			c0.18,0.5,0.51,0.74,1.04,0.62c0.02,0-0.05-0.4-0.08-0.62l-0.03,0.01c1.44-0.2,2.74,0.15,4.06,0.76
			C17.95,57.81,20.54,58.83,23.11,59.92z"/>
		<path class="st6" d="M16.32,44.74c1.73,0.78,3.47,1.56,5.2,2.33c0.32,0.14,0.52,0.34,0.41,0.68c-0.08,0.26-0.33,0.36-0.58,0.22
			c-1.74-0.98-3.75-1.49-5.3-2.77C16.14,45.04,16.23,44.89,16.32,44.74z"/>
		<path class="st3" d="M16.22,58.74c1.62,0.07,3.01,0.76,4.35,1.58c0.17,1.79-0.63,1.34-1.53,0.66c-0.34-1.59-2.24-1.04-2.93-2.14
			L16.22,58.74z"/>
		<path class="st3" d="M18.71,56.24c1.5-0.03,2.65,0.8,3.87,1.47c-1.4-0.22-2.75-0.54-3.86-1.48L18.71,56.24z"/>
		<path class="st3" d="M36.26,38.94c-1.27,0.23-2.35-0.5-3.52-0.74c-0.14-0.23-0.29-0.46-0.43-0.69
			C33.69,37.8,34.98,38.36,36.26,38.94z"/>
		<path class="st4" d="M10.43,55.87c-0.22-0.02-0.58,0.04-0.63-0.06c-0.27-0.53,0.22-0.33,0.42-0.37c0.4-0.08,0.32-0.42,0.41-0.67
			c0.17-0.08,0.46-0.04,0.38-0.38l-0.02,0.03c0.87,0.3,1.47,0.66,0.37,1.46c0,0,0.03-0.01,0.03-0.01
			C11.07,55.87,10.75,55.87,10.43,55.87z"/>
		<path class="st3" d="M9.21,53.6C9.1,53.78,9,53.96,8.9,54.14c-0.3-0.21-0.45-0.5-0.43-0.87c0.1-0.04,0.19-0.03,0.29,0
			c0.05,0.23,0.08,0.5,0.43,0.37L9.21,53.6z"/>
		<path class="st3" d="M13.94,54.02c-0.16-0.04-0.31-0.08-0.47-0.12c0.27-0.34,0.33-0.01,0.46,0.13
			C13.93,54.04,13.94,54.02,13.94,54.02z"/>
		<path class="st3" d="M14.68,54.39c-0.3-0.01-0.59-0.05-0.73-0.37c0,0-0.01,0.02-0.01,0.02c0.29,0.03,0.58,0.06,0.74,0.37
			C14.66,54.41,14.68,54.39,14.68,54.39z"/>
		<path class="st3" d="M18.73,56.23c-0.16-0.04-0.32-0.08-0.49-0.12c0.27-0.33,0.34-0.01,0.47,0.14
			C18.71,56.24,18.73,56.23,18.73,56.23z"/>
		<path class="st3" d="M15.41,54.76c-0.3-0.01-0.58-0.06-0.74-0.37c0,0-0.01,0.01-0.01,0.01c0.29,0.04,0.58,0.06,0.73,0.37
			L15.41,54.76z"/>
		<path class="st3" d="M15.4,54.77c0.3,0.01,0.58,0.06,0.74,0.37l0.01-0.02c-0.3-0.02-0.58-0.07-0.74-0.37
			C15.41,54.76,15.4,54.77,15.4,54.77z"/>
		<path class="st3" d="M16.13,55.14c0.16,0.04,0.32,0.08,0.48,0.12c-0.26,0.34-0.34,0.01-0.47-0.13
			C16.15,55.13,16.13,55.14,16.13,55.14z"/>
		<path class="st4" d="M10.61,54.2c0,0-0.03-0.01-0.03-0.01c0.22-0.07,0.35,0.01,0.41,0.23c0,0,0.02-0.03,0.02-0.03
			C10.88,54.32,10.75,54.26,10.61,54.2z"/>
		<path class="st3" d="M32.65,39.38c0.03,0.1,0.04,0.2,0,0.29c-0.04-0.07-0.09-0.15-0.13-0.22C32.56,39.43,32.61,39.4,32.65,39.38z"
			/>
		<path class="st4" d="M24.94,33.79c0,0.14,0,0.28,0,0.43c-0.09-0.09-0.18-0.18-0.26-0.28C24.77,33.89,24.86,33.84,24.94,33.79z"/>
		<path class="st0" d="M9.19,53.64c-0.36,0.13-0.38-0.14-0.43-0.37C9.01,53.27,9.31,53.21,9.19,53.64z"/>
		<path class="st3" d="M33.73,51.84c-0.08,0.15-0.16,0.29-0.23,0.44C33.57,52.13,33.65,51.99,33.73,51.84z"/>
		<path class="st3" d="M39.8,27.53c2.88,0.73,5.66,1.85,8.66,2.12c0.76,0.07,1.27,0.4,1.09,1.29c-0.71-0.15-1.42-0.29-2.12-0.44
			c-2.07-1.19-4.47-1.3-6.67-2.08c-0.76-0.24-1.52-0.48-2.28-0.72C38.91,27.64,39.36,27.58,39.8,27.53z"/>
		<path class="st4" d="M40.75,28.42c2.2,0.78,4.6,0.9,6.67,2.08c-0.03,0.12-0.05,0.23-0.06,0.35c-0.59,0.03-1.19,0.07-1.78,0.1
			c-0.26-0.04-0.53-0.09-0.79-0.13c-0.81-1.21-2.19-1-3.35-1.34C40.51,29.59,40.85,28.86,40.75,28.42z"/>
		<path class="st5" d="M39.8,27.53c-0.44,0.06-0.89,0.11-1.33,0.17c-0.35-0.1-0.7-0.2-1.05-0.31c-0.14-0.06-0.27-0.12-0.41-0.18
			c0.07-0.29-0.79-0.57,0.01-0.89c0.76-0.31,1.49-0.68,2.23-1.03C39.43,26.03,39.62,26.78,39.8,27.53z"/>
		<path class="st3" d="M45.58,30.95c0.59-0.03,1.19-0.07,1.78-0.1c0.26,0.15,0.52,0.3,0.78,0.46c0.16,0.2,0.36,0.31,0.62,0.2
			c0.03,0.05,0.08,0.11,0.08,0.16c-0.03,1.22-1.13,0.77-1.39,0.58C46.84,31.8,45.34,32.56,45.58,30.95z"/>
		<path class="st3" d="M41.44,29.48c1.16,0.34,2.54,0.14,3.35,1.34C43.41,31.04,42,31.34,41.44,29.48z"/>
		<path class="st3" d="M50.23,37.57c-0.5,1.45-0.66,3.03-1.86,4.23c0.16-0.58,0.32-1.16,0.48-1.74
			C49.41,39.29,49.1,38.03,50.23,37.57z"/>
		<path class="st4" d="M37.01,27.21c0.14,0.06,0.27,0.12,0.41,0.18c-0.39,0.32-0.74,0.28-1.04-0.13
			C36.59,27.24,36.8,27.22,37.01,27.21z"/>
		<path class="st4" d="M48.76,31.51c-0.26,0.11-0.46,0-0.62-0.2C48.39,31.24,48.63,31.21,48.76,31.51z"/>
		<path class="st0" d="M56.85,41.69c-0.34,0.71-0.67,1.42-1.01,2.13c-0.54,0.25-1.06,0.52-1.61,0.75c-0.62,0.25-1.26,0.51-1.78-0.19
			c-0.4-0.55-0.4-1.11,0.06-1.64c0.31-0.34,0.31-0.76,0.34-1.18c0.7-1.01-0.16-0.83-0.57-0.64c-0.64,0.29-1.22,0.66-1.95,0.66
			c1.01-2.84,2.06-5.66,3-8.52c0.49-1.47,1.78-1.74,2.92-2.29c1.5-0.58,3.02-1.1,4.48-1.75c1.05-0.47,1.8-0.38,2.34,0.68
			c-0.06,1.14,1.12,1.88,0.98,3.05c-0.08,0.43-0.17,0.86-0.25,1.29c-0.04,0.18-0.09,0.35-0.13,0.53c0.21,0.8-0.24,1.17-0.9,1.48
			c-2.24,1.07-4.47,2.17-6.7,3.27c-0.35,0.18-1.01,0.31-0.8,0.79c0.28,0.64,0.82,0.1,1.25,0c0.13,0.11,0.27,0.22,0.4,0.34
			c0,0,0.01,0.01,0.01,0.01c-0.01,0.26-0.01,0.51-0.02,0.77C56.89,41.38,56.87,41.54,56.85,41.69z"/>
		<path class="st4" d="M56.85,41.69c0.02-0.16,0.04-0.32,0.06-0.47c0,0,0.18,0.01,0.18,0.01l0.18-0.02c0.4,0.08,0.68-0.17,0.98-0.37
			c0.63-0.01,1.3,0.3,1.78-0.5c0.46-0.76,1.18-0.29,1.49,0.09c0.86,1.04,0.33,4.24-0.74,5.08c-0.3,0.24-0.87,0.5-0.9,0.14
			c-0.11-1.17-1.29-1.79-1.36-2.93c0.05-0.09,0.18-0.22,0.15-0.26c-0.13-0.21-0.26-0.08-0.38,0.03
			C57.48,42.82,57.46,41.75,56.85,41.69z"/>
		<path class="st0" d="M77.52,26.87c-2.29,1.28-4.53,2.7-7.27,2.8c-0.13-0.54-0.99-1.19,0.24-1.51c1.95-0.52,3.91-1.03,5.86-1.57
			C76.82,26.45,77.14,26.71,77.52,26.87z"/>
		<path class="st0" d="M61.43,24.65c2.1,0.32,4.19,0.66,6.17,1.45C65.36,26.38,63.29,25.98,61.43,24.65z"/>
		<path class="st3" d="M64.06,32.75c0.13-1.16-1.05-1.9-0.98-3.05c1.06,0.32,1.28,1.33,1.73,2.14
			C65.27,32.71,64.6,32.69,64.06,32.75z"/>
		<path class="st3" d="M65.75,34.54c0.5-0.73,1.06-1.4,2.02-1.59c-0.32,0.93-0.78,1.71-1.99,1.62L65.75,34.54z"/>
		<path class="st3" d="M65.78,34.57c-0.02,0.46-0.15,0.85-0.66,0.95c-0.21,0.04-0.36-0.1-0.32-0.32c0.1-0.52,0.5-0.63,0.95-0.66
			C65.75,34.54,65.78,34.57,65.78,34.57z"/>
		<path class="st3" d="M57.28,41.22l-0.18,0.02c0,0-0.18-0.01-0.18-0.01c0.01-0.26,0.01-0.51,0.02-0.77
			C57.37,40.56,57.34,40.88,57.28,41.22z"/>
		<path class="st3" d="M56.92,40.44c-0.13-0.11-0.27-0.22-0.4-0.34C56.66,40.22,56.79,40.33,56.92,40.44z"/>
		<path class="st3" d="M63.68,34.57c0.04-0.18,0.09-0.35,0.13-0.53C63.76,34.22,63.72,34.39,63.68,34.57z"/>
		<path class="st4" d="M53.99,26.08c-0.06-0.07-0.13-0.14-0.19-0.21c0.04-0.04,0.09-0.08,0.13-0.11
			C53.99,25.86,54.01,25.96,53.99,26.08z"/>
		<path class="st0" d="M42.67,46.4c-0.2-0.75-0.62-1.46-0.41-2.28c0.88,0.31,1.75,0.63,2.93,1.05
			C44.23,45.64,43.45,46.02,42.67,46.4z"/>
		<path class="st3" d="M50.33,41.59c0.73-0.01,1.31-0.38,1.95-0.66c0.41-0.19,1.27-0.37,0.57,0.64c-0.66,0.31-1.29,0.7-1.98,0.93
			C49.57,42.93,50.08,42.16,50.33,41.59z"/>
		<path class="st0" d="M42.02,43.41c-0.06-0.16-0.12-0.33-0.18-0.49c1.38-0.97,2.27,0.64,3.95,0.46
			C44.15,44.58,43.13,43.2,42.02,43.41z"/>
		<path class="st0" d="M50.14,45.66c0.14,0.72,0.27,1.42-0.02,2.23C49.89,47.06,49.93,46.35,50.14,45.66z"/>
		<path class="st4" d="M45.92,49.26c-0.13,0.08-0.26,0.17-0.4,0.24c-0.01,0-0.06-0.08-0.09-0.12c0.15-0.05,0.31-0.09,0.46-0.14
			C45.9,49.23,45.92,49.26,45.92,49.26z"/>
		<path class="st0" d="M45.99,53.4c1.49,0.98,1.65,1.68,0.8,3.57C46.81,55.76,46.19,54.7,45.99,53.4z"/>
		<path class="st0" d="M44.45,53.29c0.25,0.11,0.63,0.05,0.6,0.49c0,0.04-0.08,0.11-0.13,0.12C44.48,53.93,44.53,53.56,44.45,53.29
			C44.44,53.3,44.45,53.29,44.45,53.29z"/>
		<path class="st4" d="M78.63,38.97c-0.64,1.71-0.6,3.65-1.81,5.16c-0.35-0.8-1.9,0.28-1.82-1.14c0.1-1.78-0.51-3.71,1-5.2
			c0.36-0.36,1.11-0.54,1,0.2C76.75,39.88,77.98,38.85,78.63,38.97z"/>
		<path class="st1" d="M79.78,25.37c-0.67-0.6-0.14-0.65,0.34-0.73C80.13,24.94,80.07,25.21,79.78,25.37z"/>
		<path class="st3" d="M16.11,58.84c-1.36-0.56-2.72-1.12-4.08-1.69c0.08-0.17,0.16-0.34,0.23-0.51c1.42,0.46,2.98,0.61,3.95,2.1
			C16.22,58.74,16.11,58.84,16.11,58.84z"/>
		<path class="st3" d="M10.43,55.87c0.32,0,0.64,0,0.96,0c0.03,0.21,0.1,0.61,0.08,0.62C10.94,56.61,10.61,56.36,10.43,55.87z"/>
		<path class="st1" d="M10.61,54.2c0.13,0.06,0.26,0.13,0.4,0.19c0.09,0.34-0.2,0.3-0.38,0.38C10.63,54.57,10.62,54.38,10.61,54.2z"
			/>
		<path class="st3" d="M58.29,42.51c0.12-0.11,0.25-0.24,0.38-0.03c0.02,0.04-0.1,0.17-0.15,0.26
			C58.44,42.67,58.37,42.59,58.29,42.51z"/>
	</g>
</g>
</svg>
