<svg id="svg" version="1.1" width="400" height="400" viewBox="0 0 400 400" xmlns="http://www.w3.org/2000/svg" xmlns:xlink="http://www.w3.org/1999/xlink"><g id="svgg"><path id="path0" d="M63.908 68.300 C 63.108 69.125,62.326 70.319,62.170 70.952 C 61.903 72.039,61.984 72.000,63.580 70.268 C 64.512 69.257,65.601 68.327,66.000 68.200 C 66.399 68.073,66.827 67.706,66.950 67.385 C 67.413 66.180,65.367 66.795,63.908 68.300 M64.839 69.353 C 64.486 69.778,64.512 69.958,64.950 70.126 C 65.295 70.258,65.601 70.039,65.723 69.572 C 65.959 68.672,65.499 68.558,64.839 69.353 M194.400 102.382 C 172.950 104.263,153.016 120.979,147.394 141.800 C 143.165 157.462,144.564 168.246,153.076 185.600 C 166.967 213.918,171.700 227.867,172.825 243.800 C 173.376 251.610,173.966 253.710,176.216 255.872 C 178.541 258.107,177.981 258.061,201.600 257.921 L 221.800 257.800 223.308 256.800 C 225.927 255.064,226.734 252.771,227.403 245.170 C 228.096 237.306,229.223 230.557,230.573 226.200 C 235.013 211.860,238.599 203.192,246.870 186.800 C 253.131 174.389,255.200 166.989,255.198 157.000 C 255.193 124.516,227.339 99.493,194.400 102.382 M206.600 116.415 C 229.612 119.692,245.737 143.567,240.225 166.200 C 239.166 170.545,237.558 175.101,236.412 177.000 C 233.919 181.132,224.342 201.418,223.195 205.000 C 222.913 205.880,221.921 208.580,220.992 211.000 C 217.799 219.314,215.085 230.355,214.372 237.929 C 213.890 243.056,213.146 244.216,210.386 244.144 C 207.252 244.062,207.283 244.180,207.133 231.609 C 206.967 217.708,207.558 218.800,200.200 218.800 C 192.845 218.800,193.433 217.719,193.268 231.541 C 193.123 243.607,193.109 243.678,190.779 244.144 C 188.105 244.679,186.556 243.271,186.218 240.000 C 185.162 229.784,182.345 217.954,179.155 210.337 C 178.478 208.722,177.577 206.410,177.153 205.200 C 175.634 200.873,170.943 190.463,166.878 182.400 C 161.684 172.097,160.964 170.330,159.967 165.437 C 154.223 137.254,177.931 112.331,206.600 116.415 M197.614 131.174 C 197.355 131.657,197.200 136.378,197.200 143.748 C 197.200 159.991,197.096 160.146,190.585 153.585 C 184.660 147.614,183.088 146.948,181.196 149.606 C 179.560 151.903,179.829 152.353,187.400 160.000 C 196.467 169.159,196.409 167.798,188.100 176.195 C 179.523 184.863,179.485 184.930,181.641 187.386 C 183.662 189.688,184.238 189.449,189.800 184.000 C 195.000 178.905,195.023 178.890,196.224 179.767 C 196.956 180.302,197.011 181.049,197.200 192.982 C 197.414 206.487,197.485 206.918,199.346 205.922 C 200.791 205.148,219.601 185.934,219.839 184.989 C 220.177 183.641,219.976 183.390,212.870 176.246 C 204.582 167.914,204.552 169.340,213.200 160.565 C 222.192 151.443,222.583 153.624,209.639 140.725 C 199.312 130.434,198.399 129.708,197.614 131.174 M208.454 149.102 C 211.084 151.611,211.194 152.947,208.961 155.253 C 205.110 159.231,204.000 158.670,204.000 152.745 C 204.000 146.602,204.987 145.795,208.454 149.102 M208.539 180.770 C 211.656 184.038,211.637 184.947,208.387 188.107 C 204.692 191.700,203.616 190.849,203.606 184.326 C 203.596 177.568,204.715 176.761,208.539 180.770 M178.889 268.623 C 178.046 269.213,178.000 269.520,178.000 274.600 C 178.000 281.960,175.417 281.200,200.427 281.200 C 225.051 281.200,222.400 282.009,222.400 274.491 C 222.400 267.261,224.926 268.000,200.200 268.000 C 182.364 268.000,179.665 268.079,178.889 268.623 M189.294 290.415 C 187.491 291.139,187.021 295.895,188.636 297.076 C 189.874 297.981,210.883 297.821,211.687 296.900 C 213.238 295.124,212.661 290.871,210.800 290.356 C 209.304 289.943,190.341 289.994,189.294 290.415 " stroke="none" fill="#e6e5c7" fill-rule="evenodd"></path><path id="path1" d="M183.200 9.595 C 182.870 9.811,182.209 9.991,181.731 9.994 C 181.253 9.997,180.320 10.456,179.658 11.013 C 178.527 11.964,178.343 11.997,176.597 11.558 C 173.101 10.677,165.593 11.796,164.738 13.325 C 164.492 13.765,163.782 13.849,161.615 13.694 C 158.646 13.481,155.552 14.093,154.759 15.050 C 154.474 15.393,153.485 15.600,152.131 15.600 C 149.991 15.600,147.600 16.450,147.600 17.210 C 147.600 17.425,146.651 17.600,145.491 17.600 C 143.730 17.600,143.138 17.801,141.902 18.820 C 140.664 19.841,140.199 19.998,139.057 19.784 C 138.231 19.629,137.585 19.700,137.422 19.964 C 137.274 20.204,136.843 20.400,136.465 20.400 C 136.087 20.400,135.470 20.760,135.093 21.200 C 134.682 21.679,133.913 22.000,133.173 22.000 C 132.350 22.000,131.560 22.379,130.803 23.136 C 129.906 24.032,129.402 24.232,128.407 24.086 C 127.416 23.941,126.891 24.147,125.948 25.050 C 125.170 25.795,124.417 26.155,123.803 26.074 C 122.754 25.937,120.400 26.999,120.400 27.610 C 120.400 27.825,119.762 28.000,118.983 28.000 C 118.099 28.000,117.234 28.312,116.683 28.831 C 116.197 29.287,115.026 30.016,114.080 30.450 C 113.134 30.883,112.260 31.500,112.137 31.819 C 112.015 32.139,111.429 32.400,110.835 32.400 C 110.241 32.400,109.145 32.850,108.400 33.400 C 107.655 33.950,106.843 34.400,106.597 34.400 C 106.351 34.400,105.638 34.934,105.014 35.586 C 104.389 36.238,103.752 36.694,103.598 36.599 C 103.445 36.504,102.769 36.826,102.097 37.313 C 101.425 37.801,100.468 38.470,99.971 38.800 C 99.475 39.130,98.781 39.672,98.429 40.005 C 98.078 40.337,97.518 40.557,97.184 40.492 C 96.850 40.428,96.042 40.887,95.389 41.512 C 93.663 43.162,91.197 44.953,90.515 45.054 C 89.935 45.139,89.637 45.377,87.074 47.808 C 85.424 49.372,83.281 50.905,81.916 51.498 C 81.320 51.756,78.710 54.024,76.116 56.537 C 73.522 59.049,70.050 62.383,68.400 63.946 L 65.400 66.787 66.931 66.793 L 68.461 66.800 67.230 67.836 C 66.552 68.407,66.084 69.012,66.189 69.183 C 66.295 69.354,65.994 69.832,65.522 70.247 C 65.049 70.661,64.784 70.792,64.932 70.537 C 65.135 70.188,64.964 70.187,64.231 70.533 C 63.674 70.795,63.440 71.101,63.682 71.250 C 63.913 71.394,63.967 71.730,63.801 71.998 C 63.570 72.373,63.421 72.360,63.156 71.943 C 62.903 71.543,62.811 71.532,62.806 71.900 C 62.803 72.175,62.598 72.400,62.350 72.400 C 62.061 72.400,61.983 71.934,62.132 71.100 C 62.330 69.990,62.293 69.906,61.882 70.527 C 61.617 70.927,59.896 72.817,58.059 74.727 C 53.306 79.666,53.200 79.786,53.200 80.218 C 53.200 80.432,52.840 80.832,52.400 81.107 C 51.960 81.382,51.600 81.806,51.600 82.051 C 51.600 82.295,51.048 83.148,50.373 83.947 C 49.699 84.746,48.574 86.082,47.873 86.916 C 47.173 87.750,46.195 88.817,45.700 89.288 C 45.205 89.759,44.800 90.403,44.800 90.719 C 44.800 91.036,44.260 91.909,43.600 92.661 C 42.940 93.413,42.400 94.285,42.400 94.600 C 42.400 94.914,42.040 95.365,41.600 95.600 C 41.160 95.835,40.800 96.311,40.800 96.657 C 40.800 97.002,40.260 97.967,39.600 98.800 C 38.940 99.633,38.400 100.483,38.400 100.688 C 38.400 100.893,37.950 101.483,37.400 102.000 C 36.850 102.517,36.400 103.377,36.400 103.912 C 36.400 104.461,35.984 105.212,35.445 105.636 C 34.920 106.049,34.368 106.874,34.218 107.469 C 34.069 108.064,33.599 109.040,33.173 109.637 C 32.748 110.235,32.393 110.876,32.384 111.062 C 32.375 111.248,31.835 112.023,31.184 112.785 C 30.533 113.547,30.000 114.504,30.000 114.912 C 30.000 115.320,29.550 116.243,29.000 116.964 C 28.450 117.686,28.000 118.586,28.000 118.964 C 28.000 119.343,27.550 120.243,27.000 120.964 C 26.434 121.707,26.000 122.810,26.000 123.507 C 26.000 124.255,25.585 125.232,24.942 125.996 C 24.322 126.732,23.866 127.781,23.842 128.527 C 23.815 129.348,23.410 130.184,22.700 130.882 C 21.985 131.585,21.600 132.383,21.600 133.164 C 21.600 133.824,21.150 135.028,20.600 135.838 C 19.903 136.866,19.600 137.852,19.600 139.098 C 19.600 140.420,19.340 141.194,18.600 142.073 C 17.858 142.954,17.600 143.725,17.600 145.057 C 17.600 146.357,17.324 147.216,16.600 148.164 C 15.879 149.110,15.600 149.973,15.600 151.259 C 15.600 152.334,15.215 153.829,14.632 155.021 C 14.100 156.110,13.483 158.260,13.262 159.800 C 13.041 161.340,12.654 163.410,12.403 164.400 C 11.493 167.992,11.200 169.641,11.200 171.182 C 11.200 172.046,11.020 172.864,10.800 173.000 C 10.580 173.136,10.394 174.812,10.386 176.724 C 10.377 178.980,10.171 180.551,9.800 181.200 C 9.484 181.753,9.222 183.281,9.214 184.620 C 9.206 185.951,9.034 187.211,8.832 187.420 C 7.549 188.745,7.687 230.003,8.978 231.009 C 9.482 231.401,9.649 232.689,10.322 241.400 C 10.505 243.772,10.836 245.347,11.293 246.019 C 11.779 246.734,12.066 248.263,12.255 251.152 C 12.424 253.734,12.724 255.467,13.061 255.804 C 13.855 256.598,14.400 258.263,14.400 259.895 C 14.400 260.688,14.687 261.654,15.038 262.042 C 15.887 262.980,16.761 265.496,16.782 267.067 C 16.792 267.763,16.986 268.395,17.214 268.471 C 17.757 268.652,18.760 271.495,18.782 272.916 C 18.792 273.530,19.164 274.524,19.608 275.125 C 20.053 275.727,20.527 277.150,20.661 278.290 C 20.833 279.735,21.193 280.630,21.853 281.250 C 22.374 281.739,22.800 282.525,22.800 282.996 C 22.800 283.467,23.790 285.801,25.000 288.182 C 26.300 290.741,27.200 293.033,27.200 293.786 C 27.200 294.628,27.539 295.379,28.200 296.000 C 28.777 296.542,29.200 297.386,29.200 297.995 C 29.200 298.660,29.663 299.484,30.452 300.225 C 31.140 300.871,32.140 302.372,32.673 303.559 C 33.206 304.746,34.083 306.064,34.621 306.488 C 35.261 306.992,35.600 307.663,35.600 308.429 C 35.600 309.252,36.073 310.086,37.197 311.244 C 38.075 312.149,38.970 313.547,39.186 314.350 C 39.427 315.242,40.362 316.581,41.590 317.790 C 42.965 319.144,43.600 320.094,43.600 320.794 C 43.600 321.543,44.461 322.675,46.800 325.000 C 49.118 327.304,50.000 328.460,50.000 329.193 C 50.000 330.609,77.420 358.023,79.800 358.987 C 80.680 359.343,82.570 360.775,84.000 362.169 C 85.442 363.575,87.120 364.825,87.768 364.977 C 88.430 365.131,90.177 366.453,91.798 368.025 C 94.110 370.266,94.903 370.800,95.921 370.800 C 96.814 370.800,97.367 371.083,97.818 371.772 C 98.168 372.306,99.268 373.021,100.262 373.359 C 101.256 373.698,102.795 374.701,103.682 375.587 C 104.771 376.677,105.646 377.200,106.377 377.200 C 107.016 377.200,107.846 377.611,108.400 378.200 C 108.944 378.779,109.786 379.200,110.400 379.200 C 111.014 379.200,111.856 379.621,112.400 380.200 C 112.944 380.779,113.786 381.200,114.400 381.200 C 115.014 381.200,115.856 381.621,116.400 382.200 C 117.027 382.868,117.770 383.200,118.636 383.200 C 119.578 383.200,120.145 383.490,120.704 384.258 C 121.316 385.098,121.951 385.381,123.773 385.629 C 125.187 385.821,126.643 386.337,127.557 386.970 C 128.374 387.537,129.324 388.000,129.668 388.000 C 130.011 388.000,130.721 388.333,131.246 388.739 C 131.771 389.146,133.100 389.597,134.200 389.742 C 135.300 389.887,136.650 390.335,137.200 390.737 C 137.750 391.140,139.074 391.587,140.142 391.732 C 141.210 391.878,142.740 392.339,143.542 392.758 C 144.344 393.177,146.015 393.726,147.255 393.978 C 148.495 394.231,149.803 394.762,150.162 395.158 C 150.680 395.730,151.704 395.933,155.107 396.141 C 158.490 396.346,159.630 396.571,160.484 397.201 C 161.238 397.757,162.197 398.000,163.637 398.000 C 166.182 398.000,168.800 398.742,168.800 399.463 C 168.800 399.908,174.169 400.000,200.000 400.000 C 225.831 400.000,231.200 399.908,231.200 399.463 C 231.200 398.742,233.818 398.000,236.363 398.000 C 237.803 398.000,238.762 397.757,239.516 397.201 C 240.370 396.571,241.510 396.346,244.893 396.141 C 248.296 395.933,249.320 395.730,249.838 395.158 C 250.197 394.762,251.505 394.231,252.745 393.978 C 253.985 393.726,255.656 393.177,256.458 392.758 C 257.260 392.339,258.790 391.878,259.858 391.732 C 260.926 391.587,262.250 391.140,262.800 390.737 C 263.350 390.335,264.700 389.887,265.800 389.742 C 266.900 389.597,268.229 389.146,268.754 388.739 C 269.279 388.333,269.989 388.000,270.332 388.000 C 270.676 388.000,271.626 387.537,272.443 386.970 C 273.357 386.337,274.813 385.821,276.227 385.629 C 278.049 385.381,278.684 385.098,279.296 384.258 C 279.855 383.490,280.422 383.200,281.364 383.200 C 282.230 383.200,282.973 382.868,283.600 382.200 C 284.144 381.621,284.986 381.200,285.600 381.200 C 286.214 381.200,287.056 380.779,287.600 380.200 C 288.144 379.621,288.986 379.200,289.600 379.200 C 290.214 379.200,291.056 378.779,291.600 378.200 C 292.154 377.611,292.984 377.200,293.623 377.200 C 294.354 377.200,295.229 376.677,296.318 375.587 C 297.205 374.701,298.744 373.698,299.738 373.359 C 300.732 373.021,301.832 372.306,302.182 371.772 C 302.633 371.083,303.186 370.800,304.079 370.800 C 305.097 370.800,305.890 370.266,308.202 368.025 C 309.823 366.453,311.570 365.131,312.232 364.977 C 312.880 364.825,314.558 363.575,316.000 362.169 C 317.430 360.775,319.320 359.343,320.200 358.987 C 322.656 357.992,349.334 331.313,350.585 328.600 C 351.106 327.470,352.572 325.561,353.954 324.213 C 355.694 322.514,356.400 321.529,356.400 320.797 C 356.400 320.093,357.032 319.147,358.410 317.790 C 359.638 316.581,360.573 315.242,360.814 314.350 C 361.030 313.547,361.925 312.149,362.803 311.244 C 363.927 310.086,364.400 309.252,364.400 308.429 C 364.400 307.663,364.739 306.992,365.379 306.488 C 365.917 306.064,366.794 304.746,367.327 303.559 C 367.860 302.372,368.860 300.871,369.548 300.225 C 370.337 299.484,370.800 298.660,370.800 297.995 C 370.800 297.386,371.223 296.542,371.800 296.000 C 372.379 295.456,372.800 294.614,372.800 294.000 C 372.800 293.386,373.221 292.544,373.800 292.000 C 374.466 291.375,374.800 290.629,374.800 289.771 C 374.800 289.062,375.340 287.455,376.000 286.200 C 376.660 284.945,377.200 283.518,377.200 283.029 C 377.200 282.540,377.626 281.739,378.147 281.250 C 378.807 280.630,379.167 279.735,379.339 278.290 C 379.473 277.150,379.947 275.727,380.392 275.125 C 380.836 274.524,381.208 273.530,381.218 272.916 C 381.240 271.495,382.243 268.652,382.786 268.471 C 383.014 268.395,383.208 267.763,383.218 267.067 C 383.239 265.496,384.113 262.980,384.962 262.042 C 385.313 261.654,385.600 260.688,385.600 259.895 C 385.600 258.263,386.145 256.598,386.939 255.804 C 387.276 255.467,387.576 253.734,387.745 251.152 C 387.934 248.263,388.221 246.734,388.707 246.019 C 389.164 245.347,389.495 243.772,389.678 241.400 C 390.351 232.689,390.518 231.401,391.022 231.009 C 392.313 230.003,392.451 188.745,391.168 187.420 C 390.966 187.211,390.794 185.951,390.786 184.620 C 390.778 183.281,390.516 181.753,390.200 181.200 C 389.831 180.554,389.623 178.988,389.614 176.780 C 389.606 174.899,389.436 173.189,389.235 172.980 C 389.035 172.771,388.779 171.610,388.667 170.400 C 388.378 167.283,387.733 163.737,387.343 163.123 C 387.160 162.835,386.908 161.232,386.781 159.559 C 386.612 157.328,386.328 156.235,385.714 155.454 C 385.182 154.778,384.775 153.483,384.596 151.895 C 384.406 150.208,384.005 148.988,383.358 148.127 C 382.651 147.188,382.400 146.340,382.400 144.896 C 382.400 143.326,382.202 142.754,381.400 142.000 C 380.593 141.242,380.400 140.676,380.400 139.068 C 380.400 137.559,380.157 136.757,379.400 135.764 C 378.796 134.973,378.400 133.926,378.400 133.123 C 378.400 132.283,378.056 131.421,377.467 130.785 C 376.954 130.232,376.426 129.113,376.293 128.298 C 376.161 127.483,375.591 126.355,375.026 125.790 C 374.249 125.013,374.000 124.354,374.000 123.077 C 374.000 121.744,373.790 121.232,373.000 120.639 C 372.300 120.113,372.000 119.506,372.000 118.614 C 372.000 117.772,371.661 117.021,371.000 116.400 C 370.450 115.883,370.000 115.170,370.000 114.815 C 370.000 114.460,369.467 113.547,368.816 112.785 C 368.165 112.023,367.625 111.248,367.616 111.062 C 367.607 110.876,367.262 110.246,366.850 109.662 C 366.437 109.078,365.981 108.053,365.837 107.385 C 365.692 106.717,365.130 105.837,364.587 105.429 C 364.027 105.009,363.600 104.280,363.600 103.746 C 363.600 103.213,362.731 101.726,361.600 100.322 C 360.500 98.957,359.596 97.561,359.590 97.220 C 359.581 96.642,359.168 96.063,356.300 92.617 C 355.695 91.889,355.200 91.036,355.200 90.719 C 355.200 90.403,354.795 89.759,354.300 89.288 C 353.805 88.817,352.827 87.750,352.127 86.916 C 351.426 86.082,350.301 84.746,349.627 83.947 C 348.952 83.148,348.400 82.295,348.400 82.051 C 348.400 81.806,348.040 81.382,347.600 81.107 C 347.160 80.832,346.800 80.432,346.800 80.218 C 346.800 80.004,346.458 79.462,346.040 79.014 C 345.621 78.566,343.776 76.591,341.940 74.625 C 334.017 66.146,319.576 52.145,318.084 51.498 C 316.719 50.905,314.576 49.372,312.926 47.808 C 310.363 45.377,310.065 45.139,309.485 45.054 C 308.803 44.953,306.337 43.162,304.611 41.512 C 303.958 40.887,303.150 40.428,302.816 40.492 C 302.482 40.557,301.922 40.337,301.571 40.005 C 301.219 39.672,300.525 39.130,300.029 38.800 C 299.532 38.470,298.575 37.801,297.903 37.313 C 297.231 36.826,296.555 36.504,296.402 36.599 C 296.248 36.694,295.611 36.238,294.986 35.586 C 294.362 34.934,293.649 34.400,293.403 34.400 C 293.157 34.400,292.345 33.950,291.600 33.400 C 290.855 32.850,289.759 32.400,289.165 32.400 C 288.571 32.400,287.985 32.139,287.863 31.819 C 287.740 31.500,286.866 30.883,285.920 30.450 C 284.974 30.016,283.803 29.287,283.317 28.831 C 282.766 28.312,281.901 28.000,281.017 28.000 C 280.238 28.000,279.600 27.825,279.600 27.610 C 279.600 26.999,277.246 25.937,276.197 26.074 C 275.583 26.155,274.830 25.795,274.052 25.050 C 273.109 24.147,272.584 23.941,271.593 24.086 C 270.598 24.232,270.094 24.032,269.197 23.136 C 268.440 22.379,267.650 22.000,266.827 22.000 C 266.087 22.000,265.318 21.679,264.907 21.200 C 264.530 20.760,263.913 20.400,263.535 20.400 C 263.157 20.400,262.726 20.204,262.578 19.964 C 262.415 19.700,261.769 19.629,260.943 19.784 C 259.801 19.998,259.336 19.841,258.098 18.820 C 256.862 17.801,256.270 17.600,254.509 17.600 C 253.349 17.600,252.400 17.425,252.400 17.210 C 252.400 16.450,250.009 15.600,247.869 15.600 C 246.515 15.600,245.526 15.393,245.241 15.050 C 244.448 14.093,241.354 13.481,238.385 13.694 C 236.218 13.849,235.508 13.765,235.262 13.325 C 234.403 11.789,226.898 10.678,223.376 11.564 C 221.646 12.000,221.418 11.969,220.585 11.186 C 220.086 10.717,218.985 10.130,218.139 9.883 C 216.134 9.296,184.061 9.032,183.200 9.595 M183.400 10.800 C 183.264 11.020,182.848 11.203,182.476 11.206 C 181.904 11.211,181.890 11.269,182.388 11.584 C 182.712 11.789,182.837 12.096,182.667 12.267 C 182.251 12.682,181.620 11.614,181.880 10.936 C 181.993 10.641,182.437 10.400,182.866 10.400 C 183.296 10.400,183.536 10.580,183.400 10.800 M218.120 10.936 C 218.380 11.614,217.749 12.682,217.333 12.267 C 217.163 12.096,217.288 11.789,217.612 11.584 C 218.110 11.269,218.096 11.211,217.524 11.206 C 217.152 11.203,216.736 11.020,216.600 10.800 C 216.464 10.580,216.704 10.400,217.134 10.400 C 217.563 10.400,218.007 10.641,218.120 10.936 M171.800 12.823 C 170.920 13.005,169.621 13.164,168.913 13.177 C 167.938 13.194,167.681 13.346,167.855 13.800 C 167.982 14.130,167.886 14.400,167.643 14.400 C 167.163 14.400,167.032 13.102,167.467 12.667 C 167.613 12.520,169.008 12.421,170.567 12.446 C 173.141 12.488,173.254 12.522,171.800 12.823 M178.728 13.500 C 178.820 14.152,178.655 14.398,178.128 14.394 C 177.525 14.389,177.501 14.324,177.986 14.017 C 178.457 13.719,178.359 13.564,177.486 13.233 C 176.086 12.700,176.093 12.312,177.500 12.473 C 178.288 12.564,178.636 12.856,178.728 13.500 M223.600 12.610 C 223.600 12.725,223.111 13.006,222.514 13.233 C 221.641 13.564,221.543 13.719,222.014 14.017 C 222.504 14.327,222.485 14.389,221.900 14.394 C 221.212 14.400,220.916 13.218,221.467 12.667 C 221.781 12.353,223.600 12.304,223.600 12.610 M232.728 13.500 C 232.798 13.996,232.644 14.400,232.385 14.400 C 232.126 14.400,232.018 14.130,232.145 13.800 C 232.300 13.396,232.126 13.200,231.611 13.200 C 231.191 13.200,230.727 13.006,230.581 12.769 C 230.409 12.491,230.718 12.385,231.457 12.469 C 232.288 12.564,232.635 12.846,232.728 13.500 M180.734 13.150 C 181.168 13.426,181.157 13.531,180.673 13.717 C 180.054 13.954,179.600 13.707,179.600 13.133 C 179.600 12.710,180.050 12.717,180.734 13.150 M220.400 13.133 C 220.400 13.707,219.946 13.954,219.327 13.717 C 218.843 13.531,218.832 13.426,219.266 13.150 C 219.950 12.717,220.400 12.710,220.400 13.133 M171.200 14.247 C 171.200 14.331,170.750 14.400,170.200 14.400 C 169.650 14.400,169.200 14.245,169.200 14.055 C 169.200 13.866,169.650 13.797,170.200 13.902 C 170.750 14.007,171.200 14.162,171.200 14.247 M159.000 14.800 C 158.864 15.020,158.493 15.200,158.176 15.200 C 157.241 15.200,157.518 16.329,158.500 16.518 C 159.263 16.665,159.231 16.699,158.287 16.746 C 157.628 16.778,157.081 16.556,156.945 16.200 C 156.559 15.195,157.118 14.400,158.211 14.400 C 158.800 14.400,159.141 14.573,159.000 14.800 M163.928 15.500 C 163.998 15.995,163.863 16.400,163.628 16.400 C 163.393 16.400,163.200 16.130,163.200 15.800 C 163.200 15.470,162.941 15.200,162.624 15.200 C 162.307 15.200,161.927 15.006,161.781 14.769 C 161.609 14.491,161.918 14.385,162.657 14.469 C 163.488 14.564,163.835 14.846,163.928 15.500 M238.200 14.800 C 238.064 15.020,237.693 15.200,237.376 15.200 C 237.059 15.200,236.800 15.470,236.800 15.800 C 236.800 16.130,236.620 16.400,236.400 16.400 C 235.953 16.400,235.852 15.082,236.267 14.667 C 236.697 14.236,238.473 14.359,238.200 14.800 M243.000 15.600 C 243.000 16.430,242.796 16.611,241.800 16.663 C 240.994 16.706,240.896 16.664,241.500 16.536 C 242.483 16.327,242.756 15.200,241.824 15.200 C 241.507 15.200,241.127 15.006,240.981 14.769 C 240.809 14.491,241.118 14.385,241.857 14.469 C 242.775 14.574,243.000 14.797,243.000 15.600 M149.700 17.288 C 149.205 17.527,148.800 17.885,148.800 18.085 C 148.800 18.284,148.944 18.358,149.119 18.250 C 149.295 18.142,149.675 18.199,149.964 18.377 C 150.311 18.592,150.014 18.757,149.090 18.865 C 148.082 18.983,147.734 18.885,147.845 18.514 C 147.930 18.231,148.084 17.730,148.187 17.400 C 148.298 17.046,148.830 16.811,149.487 16.827 C 150.577 16.854,150.581 16.863,149.700 17.288 M252.016 18.013 C 252.270 18.973,252.211 19.017,250.898 18.864 C 249.980 18.757,249.689 18.592,250.036 18.377 C 250.325 18.199,250.705 18.142,250.881 18.250 C 251.056 18.358,251.200 18.284,251.200 18.085 C 251.200 17.885,250.795 17.518,250.300 17.269 C 249.439 16.835,249.451 16.819,250.574 16.908 C 251.453 16.977,251.814 17.254,252.016 18.013 M143.200 19.200 C 143.200 19.420,142.998 19.600,142.751 19.600 C 142.441 19.600,142.456 19.785,142.800 20.200 C 143.216 20.701,143.158 20.800,142.449 20.800 C 141.917 20.800,141.600 21.054,141.600 21.480 C 141.600 21.983,141.483 22.043,141.151 21.711 C 140.904 21.464,140.473 21.351,140.192 21.459 C 139.911 21.566,139.562 21.462,139.417 21.227 C 139.253 20.962,139.592 20.800,140.312 20.800 C 141.161 20.800,141.594 20.532,141.927 19.800 C 142.377 18.812,143.200 18.424,143.200 19.200 M258.073 19.800 C 258.406 20.532,258.839 20.800,259.688 20.800 C 260.408 20.800,260.747 20.962,260.583 21.227 C 260.438 21.462,260.089 21.566,259.808 21.459 C 259.527 21.351,259.096 21.464,258.849 21.711 C 258.517 22.043,258.400 21.983,258.400 21.480 C 258.400 21.054,258.083 20.800,257.551 20.800 C 256.842 20.800,256.784 20.701,257.200 20.200 C 257.544 19.785,257.559 19.600,257.249 19.600 C 257.002 19.600,256.800 19.420,256.800 19.200 C 256.800 18.424,257.623 18.812,258.073 19.800 M137.600 21.200 C 137.600 21.420,137.285 21.614,136.900 21.632 C 136.482 21.650,136.401 21.744,136.700 21.865 C 137.484 22.181,137.285 22.800,136.400 22.800 C 135.620 22.800,135.270 21.663,135.867 21.067 C 136.282 20.652,137.600 20.753,137.600 21.200 M264.328 21.900 C 264.425 22.585,264.258 22.800,263.628 22.800 C 262.720 22.800,262.505 22.186,263.300 21.865 C 263.599 21.744,263.518 21.650,263.100 21.632 C 262.715 21.614,262.400 21.407,262.400 21.172 C 262.400 20.308,264.198 20.987,264.328 21.900 M124.200 27.397 C 123.980 27.470,123.305 27.639,122.700 27.773 C 122.095 27.906,121.600 28.202,121.600 28.431 C 121.600 28.660,121.744 28.758,121.919 28.650 C 122.095 28.542,122.475 28.599,122.764 28.777 C 123.112 28.993,122.824 29.156,121.912 29.263 C 120.556 29.421,120.542 29.407,120.956 28.312 C 121.322 27.340,121.579 27.204,122.988 27.232 C 123.874 27.249,124.420 27.323,124.200 27.397 M279.044 28.312 C 279.458 29.407,279.444 29.421,278.088 29.263 C 277.176 29.156,276.888 28.993,277.236 28.777 C 277.525 28.599,277.905 28.542,278.081 28.650 C 278.256 28.758,278.400 28.660,278.400 28.431 C 278.400 28.202,277.905 27.906,277.300 27.773 C 275.401 27.354,275.353 27.264,277.012 27.232 C 278.421 27.204,278.678 27.340,279.044 28.312 M114.111 31.649 C 113.864 31.896,113.741 32.301,113.836 32.550 C 114.003 32.985,111.461 34.000,110.206 34.000 C 109.365 34.000,109.443 35.100,110.300 35.324 C 110.685 35.425,110.415 35.528,109.700 35.554 C 108.698 35.589,108.400 35.435,108.400 34.880 C 108.400 33.770,109.219 33.200,110.816 33.200 C 111.980 33.200,112.363 33.000,112.727 32.200 C 112.978 31.650,113.493 31.200,113.871 31.200 C 114.380 31.200,114.443 31.317,114.111 31.649 M287.273 32.200 C 287.637 33.000,288.020 33.200,289.184 33.200 C 290.781 33.200,291.600 33.770,291.600 34.880 C 291.600 35.435,291.302 35.589,290.300 35.554 C 289.585 35.528,289.315 35.425,289.700 35.324 C 290.557 35.100,290.635 34.000,289.794 34.000 C 288.539 34.000,285.997 32.985,286.164 32.550 C 286.259 32.301,286.136 31.896,285.889 31.649 C 285.557 31.317,285.620 31.200,286.129 31.200 C 286.507 31.200,287.022 31.650,287.273 32.200 M211.600 46.220 C 220.304 46.649,236.169 49.667,246.190 52.801 C 249.705 53.901,252.742 54.800,252.939 54.800 C 253.478 54.800,265.626 60.214,270.200 62.493 C 287.339 71.031,304.575 84.428,317.168 99.000 C 322.476 105.142,323.886 107.008,330.015 116.000 C 346.051 139.530,355.094 172.184,354.273 203.600 C 353.918 217.208,353.533 220.125,349.837 237.200 C 348.651 242.684,343.481 258.492,341.400 263.000 C 340.588 264.760,339.687 266.830,339.399 267.600 C 338.579 269.789,336.546 273.949,334.901 276.805 C 334.075 278.238,332.860 280.371,332.200 281.545 C 321.831 299.991,300.746 321.560,282.640 332.243 C 281.562 332.880,279.402 334.157,277.840 335.083 C 250.066 351.539,217.758 357.997,181.200 354.402 C 167.149 353.020,147.980 347.315,133.200 340.117 C 122.967 335.133,116.521 331.163,107.069 324.024 C 67.218 293.924,44.429 244.317,46.143 191.400 C 46.644 175.938,50.531 157.367,55.980 144.400 C 56.673 142.750,57.531 140.699,57.887 139.841 C 58.416 138.566,58.457 137.911,58.112 136.241 C 57.597 133.752,57.873 133.150,60.097 131.924 C 61.841 130.962,61.916 130.857,66.200 123.332 C 87.546 85.837,125.998 58.015,168.600 49.242 C 184.282 46.012,193.805 45.343,211.600 46.220 M194.000 57.837 C 165.955 59.706,143.694 67.052,121.600 81.730 C 115.296 85.918,113.338 87.417,110.573 90.177 C 109.458 91.290,107.536 92.894,106.302 93.742 C 94.545 101.819,74.920 129.207,68.808 146.067 C 54.365 185.905,53.636 220.762,66.606 251.400 C 67.538 253.600,68.434 255.850,68.597 256.400 C 69.779 260.367,78.030 274.759,83.600 282.567 C 119.738 333.226,184.389 355.003,243.199 336.326 C 255.233 332.505,270.918 325.172,275.301 321.320 C 276.127 320.594,277.047 320.000,277.346 320.000 C 277.965 320.000,283.032 316.745,286.600 314.055 C 297.764 305.640,310.031 293.162,317.239 282.890 C 318.207 281.510,319.852 279.170,320.893 277.690 C 330.278 264.353,340.400 240.490,340.400 231.703 C 340.400 230.969,340.737 229.700,341.149 228.884 C 343.966 223.303,344.851 195.553,342.657 181.600 C 340.503 167.898,336.620 153.859,332.692 145.576 C 331.916 143.939,331.153 142.150,330.997 141.600 C 330.287 139.107,323.648 127.439,319.812 121.944 C 318.374 119.885,316.312 116.923,315.229 115.362 C 290.042 79.069,238.980 54.839,194.000 57.837 M54.899 80.195 C 54.794 80.743,54.549 81.092,54.353 80.971 C 54.152 80.847,54.178 80.415,54.413 79.976 C 54.973 78.930,55.127 79.000,54.899 80.195 M53.894 82.639 C 53.407 83.127,52.452 82.311,52.918 81.805 C 53.313 81.377,53.461 81.388,53.737 81.871 C 53.922 82.195,53.993 82.541,53.894 82.639 M346.929 82.537 C 346.186 82.961,345.910 82.700,346.227 81.875 C 346.420 81.371,346.583 81.338,346.995 81.718 C 347.423 82.113,347.412 82.261,346.929 82.537 M210.122 102.061 C 229.267 104.928,247.107 120.514,253.318 139.800 C 258.653 156.364,256.939 168.844,246.481 189.600 C 243.654 195.210,240.597 201.600,239.689 203.800 C 232.585 220.997,230.072 229.258,229.019 238.874 C 228.674 242.023,228.209 246.295,227.985 248.368 C 227.378 253.982,225.920 256.598,222.490 258.225 C 220.475 259.182,179.805 259.125,177.778 258.163 C 174.040 256.389,172.667 253.220,172.021 244.876 C 170.946 230.989,168.881 223.480,160.616 203.400 C 159.548 200.805,157.787 197.144,152.998 187.557 C 145.247 172.042,142.836 160.823,144.755 149.200 C 150.031 117.247,177.801 97.221,210.122 102.061 M33.200 112.800 C 33.200 113.020,32.945 113.200,32.633 113.200 C 32.322 113.200,31.986 113.425,31.888 113.700 C 31.790 113.975,31.550 114.050,31.355 113.867 C 31.155 113.679,31.338 113.288,31.777 112.967 C 32.688 112.301,33.200 112.241,33.200 112.800 M368.026 112.814 C 369.167 113.425,368.968 114.003,367.803 113.462 C 367.255 113.208,366.805 112.865,366.803 112.700 C 366.799 112.294,367.108 112.323,368.026 112.814 M30.145 117.400 C 29.901 118.034,29.200 118.232,29.200 117.667 C 29.200 117.244,29.637 116.800,30.054 116.800 C 30.231 116.800,30.271 117.070,30.145 117.400 M194.742 117.215 C 189.504 117.827,180.935 121.099,177.763 123.699 C 177.123 124.223,175.945 125.048,175.145 125.531 C 171.027 128.018,164.585 137.043,162.354 143.451 C 158.087 155.704,159.281 165.455,166.875 180.382 C 168.839 184.242,171.621 190.010,173.057 193.200 C 174.494 196.390,176.013 199.732,176.434 200.626 C 176.856 201.521,177.200 202.473,177.200 202.742 C 177.200 203.011,178.084 205.429,179.165 208.115 C 183.352 218.523,186.168 229.441,187.030 238.600 C 187.363 242.150,187.984 243.200,189.747 243.200 C 192.338 243.200,192.400 242.926,192.400 231.528 C 192.400 217.344,192.015 218.000,200.329 218.000 C 208.431 218.000,207.753 216.876,208.000 230.704 C 208.220 242.977,208.266 243.200,210.600 243.200 C 212.473 243.200,212.832 242.509,213.458 237.700 C 214.356 230.799,214.721 228.890,216.157 223.600 C 218.511 214.921,218.827 213.931,220.836 208.950 C 221.916 206.271,222.800 203.881,222.800 203.639 C 222.800 202.815,229.552 188.214,232.965 181.658 C 242.017 164.272,242.798 152.210,235.770 138.341 C 233.545 133.950,227.980 127.176,225.238 125.520 C 224.447 125.043,223.277 124.223,222.637 123.699 C 216.682 118.817,204.758 116.046,194.742 117.215 M209.689 139.500 C 219.864 149.598,221.200 151.138,221.200 152.768 C 221.200 153.274,218.594 156.248,214.223 160.732 C 208.960 166.129,207.295 168.075,207.445 168.652 C 207.555 169.073,210.530 172.383,214.056 176.009 C 217.583 179.634,220.632 183.015,220.832 183.522 C 221.479 185.157,220.206 186.715,209.769 197.070 C 195.496 211.230,196.287 211.436,196.000 193.494 C 195.757 178.332,196.210 178.943,189.833 185.168 C 184.538 190.337,183.394 190.749,181.117 188.311 C 178.154 185.139,178.289 184.846,186.657 176.355 C 191.594 171.346,193.600 169.045,193.600 168.391 C 193.600 167.735,191.597 165.447,186.632 160.432 C 178.759 152.480,178.481 152.004,180.248 149.498 C 182.752 145.945,184.505 146.399,190.277 152.093 C 196.326 158.062,195.928 158.684,196.079 143.029 C 196.251 125.202,195.483 125.401,209.689 139.500 M21.716 136.400 C 21.601 136.840,21.348 137.200,21.153 137.200 C 20.740 137.200,20.679 136.255,21.067 135.867 C 21.591 135.342,21.922 135.614,21.716 136.400 M379.108 136.325 C 379.348 137.045,378.522 136.894,378.243 136.167 C 378.093 135.777,378.182 135.594,378.475 135.692 C 378.736 135.779,379.021 136.064,379.108 136.325 M205.280 148.880 C 204.653 149.507,204.638 155.278,205.261 155.901 C 206.181 156.821,209.600 154.124,209.600 152.478 C 209.600 150.651,206.277 147.883,205.280 148.880 M205.067 179.867 C 204.251 180.682,204.798 188.800,205.669 188.800 C 206.785 188.800,210.000 185.475,210.000 184.319 C 210.000 182.892,205.817 179.116,205.067 179.867 M221.085 267.220 C 222.855 267.837,223.200 269.039,223.200 274.593 C 223.200 283.032,225.077 282.396,200.200 282.396 C 175.259 282.396,177.200 283.062,177.200 274.503 C 177.200 268.444,177.387 267.827,179.400 267.226 C 181.152 266.704,219.589 266.698,221.085 267.220 M212.490 290.311 C 213.701 291.523,213.833 296.339,212.686 297.486 C 211.628 298.544,188.813 298.584,187.758 297.530 C 186.090 295.861,186.760 290.383,188.722 289.648 C 191.184 288.726,211.471 289.292,212.490 290.311 M155.220 360.820 C 156.171 361.771,155.983 363.009,154.721 364.100 C 153.160 365.450,150.800 364.324,150.800 362.229 C 150.800 360.106,153.611 359.211,155.220 360.820 " stroke="none" fill="#051d3d" fill-rule="evenodd"></path><path id="path2" d="M192.400 46.022 C 141.083 48.370,91.628 78.666,66.200 123.332 C 61.916 130.857,61.841 130.962,60.097 131.924 C 57.834 133.172,57.571 133.765,58.148 136.326 L 58.624 138.439 59.447 137.519 C 60.666 136.158,61.835 134.076,62.769 131.600 C 63.908 128.580,67.001 125.135,68.600 125.104 C 70.978 125.057,71.445 125.221,72.867 126.602 C 74.688 128.371,74.928 129.861,73.920 133.147 C 73.490 134.548,73.051 135.988,72.944 136.347 C 72.837 136.706,73.049 136.460,73.415 135.800 C 82.872 118.759,88.358 111.223,99.667 99.742 C 102.082 97.290,105.068 94.590,106.302 93.742 C 107.536 92.894,109.458 91.290,110.573 90.177 C 123.817 76.959,151.717 64.177,177.200 59.651 C 228.457 50.547,286.410 73.938,315.234 115.362 C 316.320 116.923,318.285 119.730,319.600 121.600 C 320.916 123.470,322.916 126.575,324.046 128.500 C 326.588 132.833,327.050 133.089,324.766 128.900 C 321.204 122.367,320.045 120.529,313.206 110.563 C 308.855 104.221,308.636 103.707,309.800 102.543 C 310.170 102.173,310.400 102.119,310.400 102.402 C 310.400 102.878,312.561 100.497,312.650 99.923 C 312.678 99.746,312.723 99.410,312.750 99.177 C 312.858 98.265,316.763 101.124,320.196 104.630 C 321.675 106.141,330.455 117.745,331.370 119.400 C 332.105 120.728,333.617 122.967,334.613 124.200 C 335.535 125.343,331.723 118.560,330.005 116.000 C 315.698 94.692,299.167 79.020,278.000 66.698 C 272.019 63.216,254.292 54.800,252.939 54.800 C 252.742 54.800,249.705 53.901,246.190 52.801 C 229.312 47.523,210.745 45.183,192.400 46.022 M204.705 259.083 C 205.202 259.179,205.922 259.175,206.305 259.075 C 206.687 258.975,206.280 258.896,205.400 258.901 C 204.520 258.905,204.207 258.987,204.705 259.083 M151.429 360.629 C 150.103 361.954,151.282 364.800,153.156 364.800 C 154.128 364.800,155.459 363.647,155.786 362.520 C 156.342 360.604,152.933 359.124,151.429 360.629 " stroke="none" fill="#d5185b" fill-rule="evenodd"></path><path id="path3" d="M169.381 12.831 C 169.196 13.130,169.708 13.176,171.057 12.980 C 173.610 12.609,173.766 12.400,171.490 12.400 C 170.477 12.400,169.527 12.594,169.381 12.831 M169.200 14.055 C 169.200 14.245,169.650 14.400,170.200 14.400 C 170.750 14.400,171.200 14.331,171.200 14.247 C 171.200 14.162,170.750 14.007,170.200 13.902 C 169.650 13.797,169.200 13.866,169.200 14.055 M66.787 67.356 C 66.464 67.662,65.227 68.834,64.038 69.961 C 62.849 71.088,62.019 72.142,62.193 72.305 C 62.367 72.467,62.590 72.375,62.688 72.100 C 62.786 71.825,63.167 71.597,63.533 71.594 C 64.051 71.589,64.081 71.512,63.666 71.249 C 63.261 70.993,63.336 70.858,63.978 70.690 C 64.443 70.568,64.773 70.257,64.711 69.997 C 64.650 69.738,64.959 69.317,65.397 69.063 C 66.925 68.175,68.457 66.800,67.918 66.800 C 67.619 66.800,67.110 67.050,66.787 67.356 M312.750 99.177 C 312.723 99.410,312.678 99.746,312.650 99.923 C 312.561 100.497,310.400 102.878,310.400 102.402 C 310.400 102.119,310.170 102.173,309.800 102.543 C 308.637 103.706,308.852 104.214,313.206 110.571 C 319.253 119.398,321.132 122.333,323.480 126.620 C 326.444 132.033,330.618 140.378,330.998 141.652 C 331.154 142.173,331.916 143.939,332.692 145.576 C 336.620 153.859,340.503 167.898,342.657 181.600 C 344.851 195.553,343.966 223.303,341.149 228.884 C 340.737 229.700,340.400 230.969,340.400 231.703 C 340.400 240.490,330.278 264.353,320.893 277.690 C 319.852 279.170,318.207 281.510,317.239 282.890 C 310.031 293.162,297.764 305.640,286.600 314.055 C 283.032 316.745,277.965 320.000,277.346 320.000 C 277.047 320.000,276.127 320.594,275.301 321.320 C 266.914 328.692,239.283 338.892,220.400 341.586 C 217.210 342.042,214.060 342.588,213.400 342.801 C 212.740 343.014,211.433 343.284,210.495 343.400 C 208.427 343.656,205.561 344.718,204.960 345.451 C 204.719 345.746,204.404 345.900,204.260 345.794 C 204.117 345.687,204.088 345.718,204.197 345.863 C 204.305 346.008,204.193 346.368,203.948 346.663 C 203.620 347.058,203.621 347.200,203.951 347.200 C 204.216 347.200,204.400 347.936,204.400 349.000 C 204.400 349.990,204.220 350.800,204.000 350.800 C 203.368 350.800,203.534 352.677,204.228 353.371 C 205.279 354.422,206.724 354.602,213.800 354.560 C 232.371 354.450,258.635 346.462,277.840 335.083 C 279.402 334.157,281.562 332.880,282.640 332.243 C 300.746 321.560,321.831 299.991,332.200 281.545 C 332.860 280.371,334.075 278.238,334.901 276.805 C 336.546 273.949,338.579 269.789,339.399 267.600 C 339.687 266.830,340.588 264.760,341.400 263.000 C 343.481 258.492,348.651 242.684,349.837 237.200 C 353.533 220.125,353.918 217.208,354.273 203.600 C 354.858 181.203,351.810 163.493,343.879 143.200 C 341.089 136.062,335.243 124.767,332.493 121.200 C 332.069 120.650,331.492 119.750,331.211 119.200 C 330.507 117.822,321.678 106.144,320.196 104.630 C 316.763 101.124,312.858 98.265,312.750 99.177 M193.918 101.610 C 172.196 103.532,152.790 119.821,146.657 141.280 C 142.060 157.363,143.627 168.799,152.998 187.557 C 157.787 197.144,159.548 200.805,160.616 203.400 C 168.881 223.480,170.946 230.989,172.021 244.876 C 172.587 252.189,173.189 254.132,175.611 256.477 C 178.171 258.955,177.013 258.854,201.200 258.718 L 222.200 258.600 223.904 257.400 C 226.315 255.702,227.483 253.127,227.987 248.400 C 229.750 231.862,229.847 231.325,232.669 222.400 C 234.106 217.856,236.472 211.587,239.689 203.800 C 240.597 201.600,243.654 195.210,246.481 189.600 C 254.147 174.386,256.000 167.999,256.000 156.792 C 256.000 123.536,227.945 98.599,193.918 101.610 M211.800 103.400 C 237.661 109.483,255.194 131.138,255.198 157.000 C 255.200 166.989,253.131 174.389,246.870 186.800 C 238.599 203.192,235.013 211.860,230.573 226.200 C 229.223 230.557,228.096 237.306,227.403 245.170 C 226.734 252.771,225.927 255.064,223.308 256.800 L 221.800 257.800 201.600 257.921 C 177.981 258.061,178.541 258.107,176.216 255.872 C 173.966 253.710,173.376 251.610,172.825 243.800 C 171.700 227.867,166.967 213.918,153.076 185.600 C 144.564 168.246,143.165 157.462,147.394 141.800 C 154.739 114.597,184.349 96.943,211.800 103.400 M193.661 116.431 C 177.557 118.519,162.995 132.643,159.803 149.270 C 157.726 160.086,159.268 167.303,166.878 182.400 C 170.943 190.463,175.634 200.873,177.153 205.200 C 177.577 206.410,178.478 208.722,179.155 210.337 C 182.345 217.954,185.162 229.784,186.218 240.000 C 186.556 243.271,188.105 244.679,190.779 244.144 C 193.109 243.678,193.123 243.607,193.268 231.541 C 193.433 217.719,192.845 218.800,200.200 218.800 C 207.558 218.800,206.967 217.708,207.133 231.609 C 207.283 244.180,207.252 244.062,210.386 244.144 C 213.146 244.216,213.890 243.056,214.372 237.929 C 215.085 230.355,217.799 219.314,220.992 211.000 C 221.921 208.580,222.913 205.880,223.195 205.000 C 224.342 201.418,233.919 181.132,236.412 177.000 C 236.810 176.340,237.612 174.540,238.193 173.000 C 249.830 142.181,226.233 112.206,193.661 116.431 M205.574 117.211 C 211.206 117.942,219.427 121.068,222.637 123.699 C 223.277 124.223,224.447 125.043,225.238 125.520 C 227.980 127.176,233.545 133.950,235.770 138.341 C 242.798 152.210,242.017 164.272,232.965 181.658 C 229.552 188.214,222.800 202.815,222.800 203.639 C 222.800 203.881,221.916 206.271,220.836 208.950 C 218.827 213.931,218.511 214.921,216.157 223.600 C 214.721 228.890,214.356 230.799,213.458 237.700 C 212.832 242.509,212.473 243.200,210.600 243.200 C 208.266 243.200,208.220 242.977,208.000 230.704 C 207.753 216.876,208.431 218.000,200.329 218.000 C 192.015 218.000,192.400 217.344,192.400 231.528 C 192.400 242.926,192.338 243.200,189.747 243.200 C 187.984 243.200,187.363 242.150,187.030 238.600 C 186.168 229.441,183.352 218.523,179.165 208.115 C 178.084 205.429,177.200 203.011,177.200 202.742 C 177.200 202.473,176.856 201.521,176.434 200.626 C 176.013 199.732,174.494 196.390,173.057 193.200 C 171.621 190.010,168.839 184.242,166.875 180.382 C 159.281 165.455,158.087 155.704,162.354 143.451 C 164.585 137.043,171.027 128.018,175.145 125.531 C 175.945 125.048,177.123 124.223,177.763 123.699 C 183.684 118.846,196.011 115.970,205.574 117.211 M196.749 129.861 C 196.316 130.382,196.175 133.153,196.079 143.029 C 195.928 158.684,196.326 158.062,190.277 152.093 C 184.505 146.399,182.752 145.945,180.248 149.498 C 178.481 152.004,178.759 152.480,186.632 160.432 C 191.597 165.447,193.600 167.735,193.600 168.391 C 193.600 169.045,191.594 171.346,186.657 176.355 C 178.289 184.846,178.154 185.139,181.117 188.311 C 183.394 190.749,184.538 190.337,189.833 185.168 C 196.210 178.943,195.757 178.332,196.000 193.494 C 196.287 211.436,195.496 211.230,209.769 197.070 C 220.206 186.715,221.479 185.157,220.832 183.522 C 220.632 183.015,217.583 179.634,214.056 176.009 C 210.530 172.383,207.555 169.073,207.445 168.652 C 207.295 168.075,208.960 166.129,214.223 160.732 C 218.594 156.248,221.200 153.274,221.200 152.768 C 221.200 151.138,219.864 149.598,209.689 139.500 C 198.915 128.807,198.118 128.213,196.749 129.861 M209.639 140.725 C 222.583 153.624,222.192 151.443,213.200 160.565 C 204.552 169.340,204.582 167.914,212.870 176.246 C 219.976 183.390,220.177 183.641,219.839 184.989 C 219.601 185.934,200.791 205.148,199.346 205.922 C 197.485 206.918,197.414 206.487,197.200 192.982 C 197.011 181.049,196.956 180.302,196.224 179.767 C 195.023 178.890,195.000 178.905,189.800 184.000 C 184.238 189.449,183.662 189.688,181.641 187.386 C 179.485 184.930,179.523 184.863,188.100 176.195 C 196.409 167.798,196.467 169.159,187.400 160.000 C 179.829 152.353,179.560 151.903,181.196 149.606 C 183.088 146.948,184.660 147.614,190.585 153.585 C 197.096 160.146,197.200 159.991,197.200 143.748 C 197.200 131.863,197.359 130.400,198.653 130.400 C 198.997 130.400,203.941 135.046,209.639 140.725 M204.414 147.974 C 203.720 149.271,203.885 156.628,204.626 157.368 C 205.937 158.680,210.553 154.706,210.485 152.323 C 210.409 149.621,205.438 146.061,204.414 147.974 M208.047 149.953 C 209.909 151.815,210.032 153.047,208.500 154.476 C 205.611 157.171,204.800 156.716,204.800 152.400 C 204.800 148.008,205.543 147.449,208.047 149.953 M203.990 179.426 C 202.848 182.431,203.759 190.027,205.297 190.323 C 206.516 190.558,210.800 185.986,210.800 184.451 C 210.800 181.333,204.916 176.991,203.990 179.426 M208.001 181.526 C 210.466 183.902,210.503 184.661,208.269 186.993 C 205.330 190.060,204.800 189.674,204.800 184.467 C 204.800 178.727,204.952 178.588,208.001 181.526 M179.400 267.226 C 177.387 267.827,177.200 268.444,177.200 274.503 C 177.200 283.062,175.259 282.396,200.200 282.396 C 225.077 282.396,223.200 283.032,223.200 274.593 C 223.200 269.039,222.855 267.837,221.085 267.220 C 219.589 266.698,181.152 266.704,179.400 267.226 M221.511 268.623 C 222.703 269.457,222.889 279.196,221.738 280.469 C 220.796 281.509,180.366 281.612,178.889 280.577 C 178.046 279.987,178.000 279.680,178.000 274.600 C 178.000 267.242,175.452 268.000,200.200 268.000 C 218.036 268.000,220.735 268.079,221.511 268.623 M188.722 289.648 C 186.760 290.383,186.090 295.861,187.758 297.530 C 188.813 298.584,211.628 298.544,212.686 297.486 C 213.833 296.339,213.701 291.523,212.490 290.311 C 211.471 289.292,191.184 288.726,188.722 289.648 M210.800 290.356 C 212.661 290.871,213.238 295.124,211.687 296.900 C 210.883 297.821,189.874 297.981,188.636 297.076 C 187.021 295.895,187.491 291.139,189.294 290.415 C 190.341 289.994,209.304 289.943,210.800 290.356 " stroke="none" fill="#20d581" fill-rule="evenodd"></path><path id="path4" d="M181.880 10.936 C 181.620 11.614,182.251 12.682,182.667 12.267 C 182.837 12.096,182.712 11.789,182.388 11.584 C 181.890 11.269,181.904 11.211,182.476 11.206 C 182.848 11.203,183.264 11.020,183.400 10.800 C 183.536 10.580,183.296 10.400,182.866 10.400 C 182.437 10.400,181.993 10.641,181.880 10.936 M216.600 10.800 C 216.736 11.020,217.152 11.203,217.524 11.206 C 218.096 11.211,218.110 11.269,217.612 11.584 C 217.288 11.789,217.163 12.096,217.333 12.267 C 217.749 12.682,218.380 11.614,218.120 10.936 C 218.007 10.641,217.563 10.400,217.134 10.400 C 216.704 10.400,216.464 10.580,216.600 10.800 M167.467 12.667 C 167.032 13.102,167.163 14.400,167.643 14.400 C 167.886 14.400,167.982 14.130,167.855 13.800 C 167.700 13.396,167.874 13.200,168.389 13.200 C 168.809 13.200,169.264 13.020,169.400 12.800 C 169.673 12.359,167.897 12.236,167.467 12.667 M176.400 12.583 C 176.400 12.713,176.889 13.006,177.486 13.233 C 178.359 13.564,178.457 13.719,177.986 14.017 C 177.501 14.324,177.525 14.389,178.128 14.394 C 179.398 14.405,178.816 12.625,177.500 12.473 C 176.895 12.404,176.400 12.453,176.400 12.583 M221.467 12.667 C 220.916 13.218,221.212 14.400,221.900 14.394 C 222.485 14.389,222.504 14.327,222.014 14.017 C 221.543 13.719,221.641 13.564,222.514 13.233 C 223.111 13.006,223.600 12.725,223.600 12.610 C 223.600 12.304,221.781 12.353,221.467 12.667 M230.581 12.769 C 230.727 13.006,231.191 13.200,231.611 13.200 C 232.126 13.200,232.300 13.396,232.145 13.800 C 232.018 14.130,232.126 14.400,232.385 14.400 C 233.465 14.400,232.600 12.600,231.457 12.469 C 230.718 12.385,230.409 12.491,230.581 12.769 M156.945 15.000 C 156.541 16.053,157.117 16.803,158.287 16.746 C 159.231 16.699,159.263 16.665,158.500 16.518 C 157.518 16.329,157.241 15.200,158.176 15.200 C 158.493 15.200,158.864 15.020,159.000 14.800 C 159.141 14.573,158.800 14.400,158.211 14.400 C 157.641 14.400,157.071 14.670,156.945 15.000 M161.781 14.769 C 161.927 15.006,162.307 15.200,162.624 15.200 C 162.941 15.200,163.200 15.470,163.200 15.800 C 163.200 16.130,163.393 16.400,163.628 16.400 C 164.678 16.400,163.772 14.597,162.657 14.469 C 161.918 14.385,161.609 14.491,161.781 14.769 M236.267 14.667 C 235.852 15.082,235.953 16.400,236.400 16.400 C 236.620 16.400,236.800 16.130,236.800 15.800 C 236.800 15.470,237.059 15.200,237.376 15.200 C 237.693 15.200,238.064 15.020,238.200 14.800 C 238.473 14.359,236.697 14.236,236.267 14.667 M240.981 14.769 C 241.127 15.006,241.507 15.200,241.824 15.200 C 242.756 15.200,242.483 16.327,241.500 16.536 C 240.896 16.664,240.994 16.706,241.800 16.663 C 243.530 16.572,243.580 14.666,241.857 14.469 C 241.118 14.385,240.809 14.491,240.981 14.769 M148.187 17.400 C 148.084 17.730,147.930 18.231,147.845 18.514 C 147.734 18.885,148.082 18.983,149.090 18.865 C 150.014 18.757,150.311 18.592,149.964 18.377 C 149.675 18.199,149.295 18.142,149.119 18.250 C 148.944 18.358,148.800 18.284,148.800 18.085 C 148.800 17.885,149.205 17.527,149.700 17.288 C 150.581 16.863,150.577 16.854,149.487 16.827 C 148.830 16.811,148.298 17.046,148.187 17.400 M250.300 17.269 C 250.795 17.518,251.200 17.885,251.200 18.085 C 251.200 18.284,251.056 18.358,250.881 18.250 C 250.705 18.142,250.325 18.199,250.036 18.377 C 249.689 18.592,249.980 18.757,250.898 18.864 C 252.211 19.017,252.270 18.973,252.016 18.013 C 251.814 17.254,251.453 16.977,250.574 16.908 C 249.451 16.819,249.439 16.835,250.300 17.269 M141.927 19.800 C 141.594 20.532,141.161 20.800,140.312 20.800 C 139.592 20.800,139.253 20.962,139.417 21.227 C 139.562 21.462,139.911 21.566,140.192 21.459 C 140.473 21.351,140.904 21.464,141.151 21.711 C 141.483 22.043,141.600 21.983,141.600 21.480 C 141.600 21.054,141.917 20.800,142.449 20.800 C 143.158 20.800,143.216 20.701,142.800 20.200 C 142.456 19.785,142.441 19.600,142.751 19.600 C 142.998 19.600,143.200 19.420,143.200 19.200 C 143.200 18.424,142.377 18.812,141.927 19.800 M256.800 19.200 C 256.800 19.420,257.002 19.600,257.249 19.600 C 257.559 19.600,257.544 19.785,257.200 20.200 C 256.784 20.701,256.842 20.800,257.551 20.800 C 258.083 20.800,258.400 21.054,258.400 21.480 C 258.400 21.983,258.517 22.043,258.849 21.711 C 259.096 21.464,259.527 21.351,259.808 21.459 C 260.089 21.566,260.438 21.462,260.583 21.227 C 260.747 20.962,260.408 20.800,259.688 20.800 C 258.839 20.800,258.406 20.532,258.073 19.800 C 257.623 18.812,256.800 18.424,256.800 19.200 M135.867 21.067 C 135.270 21.663,135.620 22.800,136.400 22.800 C 137.285 22.800,137.484 22.181,136.700 21.865 C 136.401 21.744,136.482 21.650,136.900 21.632 C 137.285 21.614,137.600 21.420,137.600 21.200 C 137.600 20.753,136.282 20.652,135.867 21.067 M262.400 21.172 C 262.400 21.407,262.715 21.614,263.100 21.632 C 263.518 21.650,263.599 21.744,263.300 21.865 C 262.505 22.186,262.720 22.800,263.628 22.800 C 264.826 22.800,264.528 21.047,263.300 20.872 C 262.805 20.802,262.400 20.937,262.400 21.172 M120.956 28.312 C 120.542 29.407,120.556 29.421,121.912 29.263 C 122.824 29.156,123.112 28.993,122.764 28.777 C 122.475 28.599,122.095 28.542,121.919 28.650 C 121.744 28.758,121.600 28.660,121.600 28.431 C 121.600 28.202,122.095 27.906,122.700 27.773 C 124.599 27.354,124.647 27.264,122.988 27.232 C 121.579 27.204,121.322 27.340,120.956 28.312 M275.800 27.397 C 276.020 27.470,276.695 27.639,277.300 27.773 C 277.905 27.906,278.400 28.202,278.400 28.431 C 278.400 28.660,278.256 28.758,278.081 28.650 C 277.905 28.542,277.525 28.599,277.236 28.777 C 276.888 28.993,277.176 29.156,278.088 29.263 C 279.444 29.421,279.458 29.407,279.044 28.312 C 278.678 27.340,278.421 27.204,277.012 27.232 C 276.126 27.249,275.580 27.323,275.800 27.397 M112.727 32.200 C 112.363 33.000,111.980 33.200,110.816 33.200 C 109.219 33.200,108.400 33.770,108.400 34.880 C 108.400 35.435,108.698 35.589,109.700 35.554 C 110.415 35.528,110.685 35.425,110.300 35.324 C 109.443 35.100,109.365 34.000,110.206 34.000 C 111.461 34.000,114.003 32.985,113.836 32.550 C 113.741 32.301,113.864 31.896,114.111 31.649 C 114.443 31.317,114.380 31.200,113.871 31.200 C 113.493 31.200,112.978 31.650,112.727 32.200 M285.889 31.649 C 286.136 31.896,286.259 32.301,286.164 32.550 C 285.997 32.985,288.539 34.000,289.794 34.000 C 290.635 34.000,290.557 35.100,289.700 35.324 C 289.315 35.425,289.585 35.528,290.300 35.554 C 291.302 35.589,291.600 35.435,291.600 34.880 C 291.600 33.770,290.781 33.200,289.184 33.200 C 288.020 33.200,287.637 33.000,287.273 32.200 C 287.022 31.650,286.507 31.200,286.129 31.200 C 285.620 31.200,285.557 31.317,285.889 31.649 M54.413 79.976 C 54.178 80.415,54.152 80.847,54.353 80.971 C 54.549 81.092,54.794 80.743,54.899 80.195 C 55.127 79.000,54.973 78.930,54.413 79.976 M52.918 81.805 C 52.538 82.217,52.571 82.380,53.075 82.573 C 53.900 82.890,54.161 82.614,53.737 81.871 C 53.461 81.388,53.313 81.377,52.918 81.805 M346.227 81.875 C 345.910 82.700,346.186 82.961,346.929 82.537 C 347.412 82.261,347.423 82.113,346.995 81.718 C 346.583 81.338,346.420 81.371,346.227 81.875 M31.777 112.967 C 31.338 113.288,31.155 113.679,31.355 113.867 C 31.550 114.050,31.790 113.975,31.888 113.700 C 31.986 113.425,32.322 113.200,32.633 113.200 C 32.945 113.200,33.200 113.020,33.200 112.800 C 33.200 112.241,32.688 112.301,31.777 112.967 M366.803 112.700 C 366.805 112.865,367.255 113.208,367.803 113.462 C 368.968 114.003,369.167 113.425,368.026 112.814 C 367.108 112.323,366.799 112.294,366.803 112.700 M29.467 117.067 C 29.084 117.449,29.138 118.000,29.557 118.000 C 29.754 118.000,30.018 117.730,30.145 117.400 C 30.379 116.790,29.953 116.581,29.467 117.067 M67.770 125.196 C 66.429 125.723,63.627 129.379,62.645 131.883 C 61.675 134.358,59.925 137.352,59.178 137.813 C 58.433 138.274,55.344 145.467,53.429 151.200 C 47.607 168.628,45.193 187.429,46.365 206.200 C 46.815 213.401,47.009 215.272,48.042 222.400 C 55.549 274.208,86.924 317.578,133.200 340.117 C 147.980 347.315,167.150 353.021,181.200 354.402 C 191.853 355.449,214.131 355.869,213.120 355.004 C 213.054 354.947,211.395 354.779,209.434 354.629 C 205.969 354.365,204.511 353.946,203.906 353.040 C 203.471 352.389,203.538 350.800,204.000 350.800 C 204.220 350.800,204.400 349.990,204.400 349.000 C 204.400 347.936,204.216 347.200,203.951 347.200 C 203.621 347.200,203.620 347.058,203.948 346.663 C 204.193 346.368,204.305 346.008,204.197 345.863 C 204.088 345.718,204.117 345.687,204.260 345.794 C 204.404 345.900,204.719 345.746,204.960 345.451 C 205.575 344.701,208.473 343.642,210.615 343.385 C 213.801 343.002,214.496 342.377,211.400 342.678 C 188.749 344.882,158.687 339.084,137.800 328.483 C 108.337 313.529,87.046 292.472,72.009 263.418 C 70.297 260.108,68.761 256.950,68.597 256.400 C 68.434 255.850,67.538 253.600,66.606 251.400 C 54.688 223.245,54.459 187.512,65.985 154.135 C 68.992 145.426,69.412 144.321,70.928 141.116 C 72.923 136.897,74.752 130.865,74.510 129.302 C 74.296 127.918,71.883 125.222,70.812 125.170 C 70.475 125.154,69.840 125.080,69.400 125.005 C 68.960 124.931,68.226 125.017,67.770 125.196 M21.067 135.867 C 20.679 136.255,20.740 137.200,21.153 137.200 C 21.348 137.200,21.601 136.840,21.716 136.400 C 21.922 135.614,21.591 135.342,21.067 135.867 M378.243 136.167 C 378.376 136.515,378.661 136.800,378.876 136.800 C 379.402 136.800,379.073 135.891,378.475 135.692 C 378.182 135.594,378.093 135.777,378.243 136.167 " stroke="none" fill="#3e2bd6" fill-rule="evenodd"></path></g></svg>