<?xml version="1.0" encoding="UTF-8" standalone="no"?>
<svg
   viewBox="0 0 384 512"
   version="1.1"
   id="svg1"
   xmlns:xlink="http://www.w3.org/1999/xlink"
   xmlns="http://www.w3.org/2000/svg"
   xmlns:svg="http://www.w3.org/2000/svg">
  <defs
     id="defs1">
    <linearGradient
       id="linearGradient4">
      <stop
         style="stop-color:#838383;stop-opacity:1;"
         offset="0"
         id="stop4" />
      <stop
         style="stop-color:#000080;stop-opacity:1"
         offset="0.07143221"
         id="stop8" />
      <stop
         style="stop-color:#800080;stop-opacity:1"
         offset="0.19800946"
         id="stop6" />
      <stop
         style="stop-color:#aa0000;stop-opacity:0.72511846;"
         offset="0.29895237"
         id="stop7" />
      <stop
         style="stop-color:#cc6c00;stop-opacity:0.63033175;"
         offset="0.41519436"
         id="stop9" />
      <stop
         style="stop-color:#fdff2e;stop-opacity:0.72037917;"
         offset="0.65194345"
         id="stop10" />
      <stop
         style="stop-color:#0aff1e;stop-opacity:0.47156399;"
         offset="0.83038872"
         id="stop11" />
      <stop
         style="stop-color:#39e4cd;stop-opacity:0.09952608;"
         offset="1"
         id="stop5" />
    </linearGradient>
    <linearGradient
       xlink:href="#linearGradient4"
       id="linearGradient5"
       x1="192.61736"
       y1="402.24649"
       x2="192.06859"
       y2="-27.438368"
       gradientUnits="userSpaceOnUse" />
  </defs>
  <!--! Font Awesome Free 7.1.0 by @fontawesome - https://fontawesome.com License - https://fontawesome.com/license/free (Icons: CC BY 4.0, Fonts: SIL OFL 1.1, Code: MIT License) Copyright 2025 Fonticons, Inc. -->
  <path
     fill="currentColor"
     d="M292.9 384c7.3-22.3 21.9-42.5 38.4-59.9 32.7-34.4 52.7-80.9 52.7-132.1 0-106-86-192-192-192S0 86 0 192c0 51.2 20 97.7 52.7 132.1 16.5 17.4 31.2 37.6 38.4 59.9l201.7 0zM288 432l-192 0 0 16c0 44.2 35.8 80 80 80l32 0c44.2 0 80-35.8 80-80l0-16zM184 112c-39.8 0-72 32.2-72 72 0 13.3-10.7 24-24 24s-24-10.7-24-24c0-66.3 53.7-120 120-120 13.3 0 24 10.7 24 24s-10.7 24-24 24z"
     id="path1"
     style="fill-opacity:1;fill:url(#linearGradient5)" />
</svg>
