<?xml version="1.0" encoding="utf-8"?>
<!-- Generator: Adobe Illustrator 28.2.0, SVG Export Plug-In . SVG Version: 6.00 Build 0)  -->
<svg version="1.1" id="Layer_1" xmlns="http://www.w3.org/2000/svg" xmlns:xlink="http://www.w3.org/1999/xlink" x="0px" y="0px"
	 viewBox="0 0 85.04 85.04" style="enable-background:new 0 0 85.04 85.04;" xml:space="preserve">
<style type="text/css">
	.st0{fill:#2B3032;}
	.st1{fill:#4E5254;}
</style>
<g>
	<path class="st0" d="M19.46,34.76c0-0.89,0.32-1.72,0.52-2.57c0.47-0.08,0.84-0.25,0.96-0.8c0.61-2.78,1.49-5.48,2.58-8.11
		c0.14-0.33,0.3-0.69,0.04-1.06c1.11-0.89,1.49-2.26,2.12-3.44c0.35-0.64,0.67-1.69,1.12-1.81c1-0.28,1.47-0.97,2.01-1.64
		c1.63-2,3.48-3.72,5.66-5.13c1.37-0.89,2.84-1.54,4.25-2.32c1.32-0.74,2.75-1.12,4.15-1.4c1.58-0.32,3.19-0.68,4.87-0.45
		c1.44,0.2,2.83,0.37,4.14,1.08c0.52,0.28,1.17,0.44,1.76,0.69c0.15-0.42-0.45-0.43-0.27-0.78c0.88,0.36,0.91,0.46,0.67,2.13
		c-0.28-0.19-0.34-0.54-0.7-0.7c-1.34-0.6-2.72-0.68-4.1-0.36c-2.55,0.59-5.18,0.84-7.59,2.06c-1.56,0.8-3.2,1.48-4.58,2.55
		c-2.6,2.02-5.02,4.22-6,7.54c-0.1,0.35-0.7,0.53-0.47,0.92c0.22,0.39,0.75,0.11,1.12,0.21c0.04,0.01,0.06,0.07,0.13,0.15
		c-0.21,0.01-0.38,0.05-0.54,0.02c-0.95-0.16-1.36,0.29-1.47,1.18c-0.07,0.63-0.12,1.3-0.93,1.55c0.52,0.38,1.05,0.3,1.62,0.39
		c-0.94,0.32-1.14,1.21-0.5,1.87c-0.07,0.22-0.14,0.43-0.21,0.65c-2.09,6.1-3.4,12.36-4.1,18.76c0.33,0.81-0.28,1.05-0.81,1.37
		c-0.48,0.29-0.91,0.63-1.26,1.12c-1.4,1.96-1.62,4.23-1.81,6.51c-0.16,1.93,0.35,3.74,0.81,5.58c0.46,1.81,1.19,3.48,2.34,4.91
		c1.42,1.76,2.85,3.57,4.73,4.88c1.02,0.71,1.88,1.67,3.12,2.04c0.02,0.01,0.04,0.03,0.07,0.04c-0.02-0.01-0.05-0.02-0.07-0.04
		c-0.27-0.83-0.46-1.73-1.17-2.31c-0.86-0.7-1.74-1.35-2.45-2.24c-1.5-1.87-2.64-3.92-3.06-6.27c-0.48-2.69-0.7-5.4-0.2-8.13
		c0.44-2.39,2.19-4.69,5.16-4.59c1.38,0.05,2.65,0.44,3.91,1.02c1.73,0.79,1.85,1.1,0.89,2.72c-1.49,2.52-2.84,5.11-3.67,7.94
		c-0.06,0.2-0.31,0.4-0.03,0.61c0.17,0.13,0.39,0.11,0.58,0.04c0.29-0.1,0.21-0.37,0.21-0.59c0-0.64-0.05-1.38,0.32-1.86
		c1.13-1.45,1.63-3.22,2.47-4.8c0.84-1.58,1.82-3.01,2.85-4.44c0.27-0.37,0.91-0.46,0.9-0.82c-0.03-0.95,0.82-1.21,1.19-1.83
		c0.39-0.66,1.2-1.08,1.12-2l0.01-0.01c0.33,0.08,0.4-0.08,0.35-0.36c0.07-0.06,0.13-0.12,0.2-0.18c0.1,0.22,0.4,0.45,0.47,0.26
		c0.18-0.51,0.88-0.72,0.76-1.37c0.31-0.25,0.62-0.5,0.93-0.75c0.27,0.09,0.43,0.01,0.43-0.3l0.03,0.03L45,42.11
		c0.29,0.05,0.55,0.04,0.52-0.37c0.17-0.1,0.33-0.21,0.5-0.31c0.54,0.08,0.97-0.02,1.08-0.65l0,0c1.51-0.19,2.74-1.13,4.22-1.48
		c1.23-0.29,2.35-0.75,3.46,0.3c1.04,0.98,2.2,1.76,3.77,1.35c0.23-0.06,0.49-0.01,0.73-0.01c-0.86,0.23-1.73,0.32-2.58,0.51
		c-2.2,0.5-4.2,1.49-6.16,2.6c-0.62,0.35-1.14,0.93-1.91,1.01c0-0.06,0-0.12,0-0.18c0.01-0.02,0.03-0.05,0.04-0.07
		c-0.01,0.03-0.02,0.05-0.04,0.08c-0.06,0.06-0.11,0.12-0.17,0.17c-0.17,0.05-0.54-0.12-0.37,0.31c0.25,0.62-0.43,0.69-0.6,0.7
		c-0.66,0.02-0.66-0.04-0.92,0.53c-0.01,0.02-0.03,0.05-0.04,0.07c0.01-0.02,0.03-0.05,0.04-0.07c0.59,0.24,0.41,0.59,0.09,0.89
		c-1.65,1.58-2.97,3.4-4.03,5.43c-0.79,1.51-0.28,2.69,1.38,3.11c0.58,0.15,1.02,0.07,1.45-0.47c1.01-1.27,1.98-2.61,3.19-3.67
		c2.12-1.85,4.39-3.55,7.13-4.45c0.36-0.12,0.49-0.32,0.18-0.62c-0.57-0.55-0.69-1.45-1.46-1.86c-0.25-0.14-0.33-0.49-0.1-0.67
		c1.01-0.78,1.68-1.99,3.15-2.22c1.05-0.16,2.13-0.12,3.16-0.43c0.28-0.09,0.6-0.08,0.6-0.45c0.01-0.6,0.31-1.16,0.19-1.77
		c0.02-0.48,0.05-0.95,0.07-1.43c0.4,0.02,0.11,0.99,0.76,0.6c0.63-0.37,0.51,0.09,0.53,0.41c0.07,1.6-0.15,3.18-0.45,4.74
		c-0.04,0.19-0.15,0.46,0.09,0.52c0.31,0.07,0.32-0.23,0.35-0.46c0.16-1.18,0.4-2.35,0.36-3.56c-0.06-1.77,0.27-3.53,0.17-5.3
		c-0.01-0.12,0.03-0.22,0.13-0.26c0.97,0.98,2.05,0.1,3.09,0.22c-0.01,0.11-0.01,0.22-0.04,0.32c-0.28,0.83,0.05,1.64,0.04,2.45
		c0,0.3,0.84,0.15,0.3,0.64c-0.32,0.29-0.42,0.7-0.22,1c0.11,0.17,0.56,0.11,0.85,0.17c0.13,0.03,0.22,0.01,0.27-0.12
		c0.04-0.12,0-0.27-0.11-0.29c-0.96-0.17-0.23-0.61-0.09-0.84c0.27-0.44,0.28-0.7-0.28-0.75c-0.35-0.03-0.55-0.15-0.5-0.52
		c0.05-0.34,0.2-0.61,0.58-0.61c0.48-0.01,0.85-0.31,1.17-0.56c0.37-0.29,0.58-0.45,1.01-0.1c0.5,0.4,0.93,0.15,0.99-0.52
		c0.02-0.22-0.04-0.47,0.2-0.61c0.28,4.02,0.32,8.03-0.6,11.99c-0.09,0.39,0.01,0.65,0.16,0.95c0.76,1.55,1.23,3.18,1.33,4.92
		c-0.57,0.01-0.77-0.48-0.98-0.84c-0.48-0.82-1.05-1.56-1.58-2.33c-0.42-0.63-0.75-0.23-1.04-0.04c-0.43,0.28,0.07,0.42,0.18,0.62
		c0.09,0.15,0.35,0.25,0.14,0.49c-0.21,0.02-0.33-0.12-0.43-0.25c-0.35-0.43-0.75-0.4-1.23-0.24c-0.49,0.16-0.5,0.53-0.45,0.89
		c0.07,0.51-0.37,0.62-0.72,0.92c2.15,0.72,3.9,1.83,5.18,3.62c0.27,0.38,0.31,0.94,0.84,1.13c0.67,1.87,1.1,3.77,0.96,5.78
		c-0.25,3.58-1.53,6.79-3.62,9.66c-2.25,3.09-5.02,5.57-8.59,7.08c-2.03,0.86-4.14,1.29-6.35,1.21c-1.94-0.24-3.72-1.28-5.75-1.13
		c-0.44,0.03-0.89-0.16-1.33-0.25c-0.27-0.06-0.55-0.16-0.53-0.47c0.06-1.13-0.74-0.98-1.4-0.92c-1.5,0.14-2.02,0.79-1.9,2.25
		c0.02,0.24,0,0.48-0.25,0.58c-0.31,0.13-0.61,0.1-0.88-0.14c-0.43-0.38-0.89-0.5-1.49-0.35c-0.56,0.15-1.13,0.05-1.51-0.52
		c-0.23-0.35-0.72-0.67-0.99-0.54c-0.57,0.28-1.17,0.21-1.74,0.32c-1.23,0.23-2.19,1.05-3.33,1.47c-0.32,0.12-0.69,0.25-0.74,0.62
		c-0.05,0.42,0.49,0.31,0.65,0.57l-0.01,0.01c-0.28,0-0.56,0-0.84,0c1.56,0.54,3.16,0.75,4.8,0.75c-1.45,0.16-2.91,0.2-4.33-0.07
		c-1.61-0.32-3.24-0.5-4.79-1.16c-0.85-0.36-1.54-1.13-2.57-1.06c-0.07-0.43-0.41-0.51-0.84-0.68c0.15,0.54,0.5,0.6,0.84,0.67
		c-0.56,0.51,0.04,1.02-0.01,1.53c-4.7-1.63-8.25-4.65-10.75-8.92c-0.06-0.1-0.07-0.21-0.11-0.32c0.76-0.23,2.73,0.53,3.16,1.25
		c0.53,0.9,1.47,1.43,2.09,2.25c0.09,0.12,0.33,0.33,0.59,0.1c-0.93-1.1-1.83-2.19-2.59-3.38c-0.14-0.22-0.36-0.43-0.25-0.69
		c0.22-0.52-0.09-0.88-0.32-1.26c-0.36-0.57-0.98-1.07-1.1-1.67c-0.32-1.62-1.11-3.1-1.29-4.74c-0.03-0.26-0.14-0.54,0.24-0.6
		c0.31-0.05,0.34,0.2,0.41,0.43c0.27,0.98,0.57,1.96,0.86,2.94c0.06,0.19,0.09,0.43,0.32,0.46c0.3,0.03,0.39-0.25,0.43-0.45
		c0.25-1.34,0.4-2.71,0.33-4.05c-0.19-3.57-0.15-7.11,0.99-10.55c0.48-1.46,1.35-2.64,2.51-3.63c0.28-0.24,0.5-0.54,0.73-0.83
		c0.08-0.1,0.18-0.26,0.05-0.38c-0.07-0.06-0.24-0.08-0.31-0.03c-0.85,0.52-0.8-0.07-0.77-0.62c0.02-0.48,0.06-0.96,0.1-1.44
		c0.1-1.28,0.34-2.54,0.24-3.83c-0.01-0.16,0.05-0.39-0.18-0.42c-0.27-0.03-0.33,0.2-0.32,0.4c0.02,0.41-0.16,0.78-0.24,1.17
		c-0.29,1.4-0.58,2.79-0.65,4.22c-0.03,0.66,0.16,1.47-0.15,1.96c-0.49,0.76-1.05,1.54-1.83,2.1c0.07-4,0.58-7.96,1.26-11.9
		c0.17-0.96,0.19-1.96,0.65-2.86c0.04,0.01,0.09,0.03,0.13,0.04c-0.04-0.01-0.08-0.03-0.12-0.04c-0.17-0.25-0.04-0.47,0.05-0.7
		c0.28,0.01,0.48-0.08,0.54-0.38C19.82,34.97,19.75,34.79,19.46,34.76z M21.68,77.51c0.02,0.01,0.05,0.03,0.07,0.04
		C21.73,77.54,21.7,77.53,21.68,77.51c-0.03-0.01-0.05-0.02-0.08-0.04C21.63,77.49,21.66,77.5,21.68,77.51z M21.17,77.17
		c0.02,0.01,0.05,0.03,0.07,0.04C21.21,77.2,21.19,77.19,21.17,77.17c-0.02-0.12-0.02-0.27-0.21-0.26c-0.02,0-0.05,0.03-0.05,0.05
		C20.89,77.16,21.04,77.15,21.17,77.17z M48.77,59.45c0.74-0.68,1.24-1.57,1.94-2.23c1.9-1.81,3.94-3.47,6.38-4.53
		c0.14-0.06,0.49-0.02,0.35-0.34c-0.32-0.74-0.3-1.54-0.39-2.32c-0.09-0.77-0.49-1.48-1.02-1.9c-0.39-0.31-1.04,0.25-1.55,0.48
		c-3.64,1.65-6.4,4.33-8.75,7.48c-0.69,0.92-0.67,0.93,0.38,1.37c0.82,0.34,1.56,0.92,2.58,0.55c0.38-0.14,0.58,0.27,0.32,0.68
		C48.87,58.9,48.53,59.04,48.77,59.45z M20.43,63.18c0.31,1.42,1.04,2.8,2.03,4.01c0.44,0.54,0.88,1.13,1.57,1.4
		c0.19,0.08,0.42,0.24,0.62-0.01c0.16-0.2,0.15-0.43,0.05-0.64c-0.17-0.33-0.37-0.64-0.55-0.96c-0.87-1.52-1.81-3-3.02-4.27
		c-0.14-0.15-0.21-0.5-0.49-0.38C20.34,62.46,20.53,62.79,20.43,63.18z M66.94,44.4c0.67,0.14,0.61-0.55,0.7-0.99
		c0.09-0.43-0.07-0.83-0.63-0.92c-0.83-0.14-0.74,0.54-0.83,0.98C66.09,43.89,66.17,44.33,66.94,44.4z M66.49,40.87
		c-0.03,0.65,0,1.23,0.57,1.23c0.7,0,0.77-0.7,0.77-1.21c0-0.4-0.06-1-0.7-0.98C66.37,39.92,66.52,40.56,66.49,40.87z"/>
	<path class="st1" d="M70.81,34.57c-0.24,0.15-0.18,0.39-0.2,0.61c-0.06,0.67-0.49,0.92-0.99,0.52c-0.43-0.35-0.64-0.18-1.01,0.1
		c-0.32,0.26-0.69,0.56-1.17,0.56c-0.39,0.01-0.54,0.27-0.58,0.61c-0.05,0.37,0.14,0.49,0.5,0.52c0.57,0.05,0.55,0.31,0.28,0.75
		c-0.14,0.23-0.87,0.67,0.09,0.84c0.11,0.02,0.15,0.17,0.11,0.29c-0.05,0.13-0.14,0.15-0.27,0.12c-0.29-0.06-0.74,0-0.85-0.17
		c-0.19-0.31-0.1-0.72,0.22-1c0.55-0.49-0.3-0.35-0.3-0.64c0.01-0.82-0.33-1.63-0.04-2.45c0.03-0.1,0.03-0.21,0.04-0.32
		c-1.04-0.12-2.12,0.75-3.09-0.22c-0.1,0.03-0.14,0.14-0.13,0.26c0.1,1.77-0.23,3.53-0.17,5.3c0.04,1.21-0.2,2.38-0.36,3.56
		c-0.03,0.22-0.04,0.53-0.35,0.46c-0.24-0.06-0.13-0.33-0.09-0.52c0.3-1.57,0.51-3.14,0.45-4.74c-0.01-0.32,0.1-0.78-0.53-0.41
		c-0.66,0.39-0.36-0.58-0.76-0.6c-0.02-0.14-0.04-0.28-0.04-0.42c0.04-4.85-0.47-9.64-1.42-14.39c-0.74-3.68-1.65-7.31-3.47-10.63
		c-0.97-1.78-2.24-3.25-4.48-3.4c-0.74-0.05-1.48-0.05-2.22,0.04c-3.71,0.48-7.02,1.95-10.1,4.01c-3.6,2.42-6.18,5.72-8.11,9.56
		c-0.49-0.13-0.79,0.1-0.9,0.54c-0.09,0.39,0.24,0.27,0.45,0.3c-0.42,0.98-0.84,1.96-1.27,2.94c-0.64-0.67-0.44-1.56,0.5-1.87
		c-0.56-0.09-1.1-0.01-1.62-0.39c0.8-0.25,0.85-0.91,0.93-1.55c0.1-0.89,0.52-1.35,1.47-1.18c0.16,0.03,0.33-0.01,0.54-0.02
		c-0.07-0.08-0.09-0.14-0.13-0.15c-0.37-0.11-0.9,0.18-1.12-0.21c-0.22-0.39,0.37-0.56,0.47-0.92c0.98-3.32,3.4-5.52,6-7.54
		c1.38-1.07,3.02-1.76,4.58-2.55c2.41-1.22,5.04-1.47,7.59-2.06c1.38-0.32,2.76-0.24,4.1,0.36c0.36,0.16,0.42,0.51,0.7,0.7
		c0.24-1.66,0.21-1.76-0.67-2.13C53.2,7.39,53.8,7.4,53.65,7.81c-0.59-0.25-1.24-0.4-1.76-0.69c-1.31-0.71-2.7-0.88-4.14-1.08
		c-1.69-0.24-3.3,0.12-4.87,0.45c-1.4,0.29-2.83,0.66-4.15,1.4c-1.41,0.79-2.88,1.44-4.25,2.32c-2.17,1.41-4.03,3.13-5.66,5.13
		c-0.54,0.67-1.01,1.36-2.01,1.64c-0.45,0.12-0.77,1.16-1.12,1.81c-0.64,1.18-1.01,2.54-2.12,3.44l-0.01,0
		c0.02-0.17-0.04-0.29-0.2-0.36c0.11-0.94,0.65-1.7,1.06-2.5c1.65-3.18,3.55-6.2,5.83-8.97c1.83-2.22,3.89-4.18,6.32-5.76
		C40.62,2,45.01,1.05,49.76,2.06c4.58,0.98,8.88,2.62,12.44,5.8c2.09,1.86,3.49,4.2,4.52,6.77c0.7,1.73,1.22,3.52,1.72,5.33
		c0.46,1.65,0.91,3.29,1.2,4.97C70.21,28.12,70.81,31.31,70.81,34.57z M33.18,9c-0.02,0.01-0.05,0.01-0.07,0.02
		c-0.01,0.01-0.01,0.03-0.02,0.05C33.13,9.05,33.16,9.03,33.18,9c0.02-0.01,0.05-0.01,0.06-0.03c0.01-0.01,0.01-0.03,0.01-0.05
		C33.23,8.95,33.21,8.98,33.18,9z M34.22,7.99c0.03-0.03,0.05-0.06,0.08-0.08c-0.03,0.02-0.06,0.05-0.09,0.07
		c-0.06,0.06-0.11,0.11-0.17,0.17c-0.22,0.02-0.33,0.13-0.34,0.35c-0.03,0.03-0.05,0.05-0.08,0.08c0.03-0.02,0.05-0.05,0.08-0.07
		c0.21-0.02,0.34-0.12,0.35-0.34C34.11,8.1,34.17,8.04,34.22,7.99z M32.33,9.69c-0.02,0.01-0.05,0.02-0.06,0.03
		c-0.01,0.01-0.01,0.03-0.01,0.05C32.28,9.75,32.3,9.72,32.33,9.69c0.02-0.01,0.05-0.01,0.07-0.02c0.01-0.01,0.01-0.03,0.02-0.05
		C32.38,9.64,32.35,9.67,32.33,9.69z M31.13,11.07c-0.03,0.02-0.05,0.05-0.08,0.07c0.02,0,0.04,0,0.05-0.01
		C31.11,11.11,31.11,11.09,31.13,11.07c0.06-0.06,0.11-0.12,0.24-0.4c-0.02,0.05-0.05,0.1-0.06,0.15c-0.03,0.1,0,0.12,0.07,0.04
		c0.03-0.04,0.05-0.09,0.06-0.15c0-0.01-0.04-0.03-0.13,0.19C31.24,10.95,31.18,11.01,31.13,11.07z M29.24,13.47
		c-0.06,0.06-0.12,0.11-0.18,0.17c-0.06,0.06-0.11,0.12-0.17,0.18c-0.14,0.07-0.17,0.2-0.17,0.34c-0.06,0.06-0.12,0.11-0.18,0.17
		c-0.14,0.07-0.17,0.2-0.17,0.34c-0.08,0.03-0.16,0.05-0.23,0.08c0.02,0.02,0.05,0.06,0.05,0.06c0.07-0.04,0.13-0.09,0.19-0.13
		c0.14-0.07,0.17-0.2,0.17-0.34c0.06-0.06,0.11-0.12,0.17-0.18c0.14-0.07,0.18-0.2,0.17-0.34c0.06-0.06,0.12-0.11,0.18-0.17
		C29.12,13.59,29.18,13.53,29.24,13.47c0.02-0.01,0.04-0.02,0.06-0.03c0.01-0.01,0.01-0.03,0.01-0.05
		C29.28,13.42,29.26,13.44,29.24,13.47z M37.3,5.9c-0.07,0.02-0.14,0.04-0.21,0.06c0.02,0.03,0.04,0.06,0.06,0.09
		c0.06-0.04,0.11-0.08,0.17-0.13c0.02-0.03,0.05-0.06,0.07-0.09C37.36,5.86,37.33,5.88,37.3,5.9z M40.24,4.56
		c0.34,0,0.67-0.09,1-0.15c1.58-0.32,3.14-0.69,4.79-0.43c0.82,0.13,1.64,0.36,2.49,0.26c-2.79-0.81-5.57-0.85-8.31,0.29
		c-0.52,0.08-1.02,0.21-1.39,0.61C39.33,5.03,39.87,5,40.24,4.56z M50.26,5.01c0.34,0.32,0.62,0.78,1.34,0.61
		C51.15,5.24,50.75,5.04,50.26,5.01z M54.29,6.94c0.21-0.33,0.41-0.58,0.18-0.91C54.32,6.29,54.04,6.53,54.29,6.94z M56.16,10.4
		c0.23-0.3,0.36-0.51,0.24-0.9C56.16,9.77,55.93,9.95,56.16,10.4z M49.58,4.55c-0.04,0.03-0.09,0.08-0.14,0.12
		c0.08,0.06,0.16,0.15,0.26,0.18c0.06,0.02,0.21-0.05,0.21-0.06C49.88,4.64,49.76,4.58,49.58,4.55z M49.07,4.46
		c-0.04-0.02-0.08-0.04-0.12-0.06c-0.01,0-0.03,0.03-0.05,0.05c0.04,0.02,0.08,0.04,0.12,0.06C49.03,4.51,49.05,4.48,49.07,4.46z
		 M55.91,10.67c-0.01,0.02-0.03,0.05-0.02,0.07c0.02,0.08,0.06,0.08,0.09,0.01c0.01-0.02,0-0.05-0.01-0.07
		C55.96,10.67,55.93,10.67,55.91,10.67z M56.66,9.23c0-0.02,0.01-0.05,0.01-0.07c-0.03,0.01-0.07,0.01-0.1,0.02
		c0.01,0.02,0.01,0.05,0.03,0.07C56.61,9.25,56.64,9.23,56.66,9.23z"/>
	<path class="st1" d="M17.27,51.06c0.78-0.55,1.34-1.33,1.83-2.1c0.32-0.49,0.12-1.3,0.15-1.96c0.07-1.44,0.36-2.83,0.65-4.22
		c0.08-0.39,0.26-0.75,0.24-1.17c-0.01-0.2,0.06-0.44,0.32-0.4c0.23,0.03,0.16,0.26,0.18,0.42c0.09,1.29-0.15,2.56-0.24,3.83
		c-0.04,0.48-0.07,0.96-0.1,1.44c-0.02,0.55-0.08,1.14,0.77,0.62c0.07-0.04,0.24-0.02,0.31,0.03c0.14,0.12,0.03,0.28-0.05,0.38
		c-0.23,0.29-0.45,0.59-0.73,0.83c-1.16,0.99-2.03,2.18-2.51,3.63c-1.14,3.44-1.18,6.98-0.99,10.55c0.07,1.34-0.08,2.71-0.33,4.05
		c-0.04,0.2-0.13,0.49-0.43,0.45c-0.23-0.03-0.26-0.28-0.32-0.46c-0.29-0.98-0.58-1.96-0.86-2.94c-0.06-0.23-0.09-0.48-0.41-0.43
		c-0.38,0.06-0.27,0.34-0.24,0.6c0.18,1.65,0.98,3.12,1.29,4.74c0.12,0.6,0.74,1.1,1.1,1.67c0.23,0.37,0.54,0.74,0.32,1.26
		c-0.11,0.27,0.11,0.47,0.25,0.69c0.76,1.2,1.66,2.29,2.59,3.38c-0.26,0.23-0.49,0.02-0.59-0.1c-0.62-0.82-1.55-1.35-2.09-2.25
		c-0.42-0.72-2.4-1.48-3.16-1.25c-0.61-0.91-1.08-1.94-1.16-3c-0.07-1.02-0.52-1.98-0.36-3.05c0.16-1.09,0.49-2.11,0.91-3.11
		c0.2-0.48,0.27-0.98,0.28-1.5c0.01-1.95,0.3-3.85,0.85-5.73c0.42-1.44,1.33-2.58,2.11-3.81C17.11,51.82,17.25,51.47,17.27,51.06z"
		/>
	<path class="st1" d="M32.85,81.63c-0.16-0.26-0.7-0.15-0.65-0.57c0.05-0.37,0.42-0.5,0.74-0.62c1.14-0.43,2.1-1.24,3.33-1.47
		c0.57-0.11,1.17-0.04,1.74-0.32c0.27-0.13,0.76,0.19,0.99,0.54c0.38,0.57,0.95,0.67,1.51,0.52c0.6-0.15,1.06-0.03,1.49,0.35
		c0.27,0.24,0.57,0.26,0.88,0.14c0.25-0.1,0.27-0.34,0.25-0.58c-0.12-1.46,0.4-2.11,1.9-2.25c0.66-0.06,1.46-0.21,1.4,0.92
		c-0.02,0.31,0.26,0.41,0.53,0.47c0.44,0.09,0.9,0.29,1.33,0.25c2.03-0.15,3.81,0.89,5.75,1.13c-3.85,1.8-7.81,2.3-11.89,0.89
		c-0.74-0.26-1.19-0.15-1.81,0.37c-1.14,0.96-2.61,1.23-4.07,1.42c-1.34,0.17-2.69,0.18-4.01-0.14c-1.47-0.35-2.97-0.06-4.43-0.33
		c-0.93-0.17-1.86-0.32-2.72-0.72c0.04-0.51-0.56-1.02,0.01-1.53l0,0c1.02-0.07,1.72,0.7,2.57,1.06c1.54,0.66,3.18,0.85,4.79,1.16
		c1.42,0.28,2.88,0.24,4.33,0.07c-1.64,0-3.24-0.21-4.8-0.75C32.28,81.64,32.56,81.64,32.85,81.63c0.26,0.26,0.54,0.2,0.83,0
		C33.4,81.63,33.12,81.63,32.85,81.63z"/>
	<path class="st1" d="M71.62,56.4c-0.53-0.19-0.56-0.75-0.84-1.13c-1.28-1.79-3.03-2.9-5.18-3.62c0.35-0.29,0.79-0.4,0.72-0.92
		c-0.05-0.36-0.04-0.73,0.45-0.89c0.48-0.16,0.88-0.2,1.23,0.24c0.1,0.13,0.22,0.27,0.43,0.25c0.2-0.23-0.05-0.33-0.14-0.49
		c-0.11-0.2-0.62-0.34-0.18-0.62c0.29-0.19,0.61-0.59,1.04,0.04c0.52,0.78,1.1,1.52,1.58,2.33c0.21,0.36,0.41,0.85,0.98,0.84
		c0.1,0.11,0.1,0.23,0.05,0.36c-0.15,0.03-0.28,0.08-0.27,0.26c0.01,0.18,0.15,0.22,0.29,0.24C71.86,54.34,71.89,55.38,71.62,56.4z
		 M70.43,52.97c0.03,0.08,0.06,0.15,0.08,0.23c0.02-0.02,0.06-0.05,0.06-0.05c-0.04-0.07-0.08-0.13-0.12-0.2
		c0-0.14-0.04-0.27-0.17-0.35c0-0.14-0.03-0.27-0.17-0.35c-0.22-0.71-0.6-1.29-1.28-1.61c0.41,0.55,0.62,1.26,1.25,1.64
		c0.01,0.14,0.04,0.27,0.17,0.34C70.27,52.77,70.3,52.9,70.43,52.97z"/>
	<path class="st1" d="M23.57,22.23c0.26,0.36,0.09,0.72-0.04,1.06c-1.09,2.63-1.97,5.33-2.58,8.11c-0.12,0.55-0.49,0.72-0.96,0.8
		c0.79-3.41,1.69-6.78,3.14-9.98C23.27,22.22,23.42,22.22,23.57,22.23L23.57,22.23z"/>
	<path class="st1" d="M19.46,34.76c0.29,0.03,0.36,0.22,0.31,0.46c-0.05,0.3-0.26,0.39-0.54,0.38
		C19.31,35.32,19.38,35.04,19.46,34.76z"/>
	<path class="st0" d="M71.78,53.3c-0.14-0.02-0.28-0.06-0.29-0.24c-0.01-0.18,0.12-0.23,0.27-0.26
		C71.76,52.97,71.77,53.13,71.78,53.3z"/>
	<path class="st0" d="M23.57,22.22c-0.15,0-0.3-0.01-0.45-0.01c0.08-0.12,0.16-0.23,0.25-0.35C23.53,21.93,23.59,22.06,23.57,22.22z
		"/>
	<path class="st1" d="M25.72,45.95c3.01-0.03,5.93,0.4,8.67,1.72c0.95,0.46,1.9,0.94,2.75,1.58c0.57,0.44,0.83,0.26,1.2-0.24
		c1.08-1.48,2.19-2.92,3.53-4.18c0.08,0.91-0.73,1.34-1.12,2c-0.37,0.62-1.21,0.89-1.19,1.83c0.01,0.36-0.63,0.44-0.9,0.82
		c-1.03,1.43-2.01,2.85-2.85,4.44c-0.84,1.58-1.34,3.35-2.47,4.8c-0.37,0.48-0.32,1.22-0.32,1.86c0,0.22,0.08,0.49-0.21,0.59
		c-0.19,0.07-0.4,0.09-0.58-0.04c-0.27-0.21-0.02-0.41,0.03-0.61c0.83-2.83,2.18-5.42,3.67-7.94c0.96-1.62,0.84-1.93-0.89-2.72
		c-1.26-0.57-2.53-0.97-3.91-1.02c-2.98-0.1-4.72,2.2-5.16,4.59c-0.5,2.73-0.28,5.44,0.2,8.13c0.42,2.36,1.56,4.4,3.06,6.27
		c0.71,0.88,1.59,1.53,2.45,2.24c0.71,0.58,0.9,1.48,1.17,2.31l0,0c-1.24-0.38-2.1-1.34-3.12-2.04c-1.88-1.31-3.31-3.11-4.73-4.88
		c-1.15-1.43-1.88-3.1-2.34-4.91c-0.46-1.84-0.97-3.65-0.81-5.58c0.19-2.29,0.41-4.55,1.81-6.51c0.35-0.49,0.78-0.83,1.26-1.12
		C25.44,47,26.05,46.76,25.72,45.95z"/>
	<path class="st1" d="M47.1,40.78c2.06-1.26,4.26-2,6.69-2.28c1.92-0.22,3.77-0.19,5.64,0.28c0.71,0.18,1.33,0.63,2.09,0.63
		c0.12,0.61-0.19,1.18-0.19,1.77c-0.01,0.37-0.32,0.37-0.6,0.45c-1.03,0.32-2.11,0.27-3.16,0.43c-1.47,0.23-2.14,1.44-3.15,2.22
		c-0.22,0.17-0.15,0.53,0.1,0.67c0.77,0.41,0.88,1.31,1.46,1.86c0.31,0.29,0.18,0.5-0.18,0.62c-2.74,0.9-5.01,2.6-7.13,4.45
		c-1.21,1.05-2.18,2.4-3.19,3.67c-0.43,0.54-0.87,0.62-1.45,0.47c-1.67-0.42-2.17-1.6-1.38-3.11c1.06-2.03,2.38-3.84,4.03-5.43
		c0.31-0.3,0.5-0.65-0.09-0.89l0.01,0.01c0.26-0.57,0.26-0.51,0.92-0.53c0.17-0.01,0.85-0.08,0.6-0.7
		c-0.17-0.43,0.19-0.26,0.37-0.31c0,0-0.01-0.01-0.01-0.01c0.06,0.13,0.12,0.15,0.18,0l0,0c0.77-0.08,1.29-0.66,1.91-1.01
		c1.96-1.11,3.95-2.1,6.16-2.6c0.85-0.19,1.72-0.28,2.58-0.51c-0.24,0-0.5-0.05-0.73,0.01c-1.57,0.41-2.73-0.36-3.77-1.35
		c-1.11-1.05-2.23-0.59-3.46-0.3C49.85,39.64,48.61,40.58,47.1,40.78z"/>
	<path class="st1" d="M48.77,59.45c-0.24-0.41,0.1-0.55,0.24-0.77c0.26-0.41,0.06-0.81-0.32-0.68c-1.02,0.37-1.76-0.22-2.58-0.55
		c-1.05-0.44-1.07-0.45-0.38-1.37c2.35-3.15,5.12-5.83,8.75-7.48c0.51-0.23,1.16-0.79,1.55-0.48c0.53,0.42,0.93,1.13,1.02,1.9
		c0.09,0.78,0.07,1.57,0.39,2.32c0.14,0.33-0.21,0.28-0.35,0.34c-2.44,1.06-4.48,2.72-6.38,4.53
		C50.01,57.88,49.51,58.76,48.77,59.45z"/>
	<path class="st1" d="M20.43,63.18c0.1-0.38-0.09-0.72,0.2-0.84c0.28-0.12,0.35,0.23,0.49,0.38c1.22,1.27,2.15,2.75,3.02,4.27
		c0.18,0.32,0.38,0.63,0.55,0.96c0.11,0.21,0.12,0.44-0.05,0.64c-0.2,0.25-0.43,0.08-0.62,0.01c-0.69-0.27-1.13-0.87-1.57-1.4
		C21.47,65.97,20.74,64.6,20.43,63.18z"/>
	<path class="st1" d="M66.94,44.4c-0.76-0.07-0.85-0.52-0.76-0.94c0.09-0.43,0-1.11,0.83-0.98c0.56,0.09,0.72,0.49,0.63,0.92
		C67.54,43.85,67.6,44.55,66.94,44.4z"/>
	<path class="st1" d="M66.49,40.87c0.03-0.31-0.12-0.95,0.65-0.96c0.64-0.02,0.7,0.58,0.7,0.98c0,0.51-0.07,1.21-0.77,1.21
		C66.49,42.09,66.46,41.52,66.49,40.87z M67.07,40.45c-0.32,0.06-0.43,0.3-0.37,0.61c0.05,0.24,0.11,0.54,0.44,0.51
		c0.37-0.03,0.37-0.35,0.38-0.64C67.52,40.65,67.46,40.43,67.07,40.45z"/>
	<path class="st1" d="M42.42,44.27c0.34-0.45,0.74-0.82,1.23-1.11c0.13,0.65-0.57,0.86-0.76,1.37
		C42.83,44.72,42.52,44.48,42.42,44.27z"/>
	<path class="st1" d="M46.01,41.43c0.29-0.34,0.66-0.54,1.08-0.65C46.98,41.41,46.55,41.51,46.01,41.43z"/>
	<path class="st1" d="M25.12,80.09c-0.34-0.08-0.69-0.13-0.84-0.67C24.71,79.58,25.04,79.66,25.12,80.09
		C25.11,80.09,25.12,80.09,25.12,80.09z"/>
	<path class="st1" d="M45,42.11c0.11-0.21,0.29-0.32,0.52-0.37C45.55,42.15,45.29,42.16,45,42.11z"/>
	<path class="st1" d="M41.88,44.81c0.12-0.12,0.23-0.24,0.35-0.36C42.28,44.74,42.2,44.9,41.88,44.81z"/>
	<path class="st1" d="M21.17,77.17c-0.12-0.02-0.27-0.01-0.26-0.21c0-0.02,0.03-0.05,0.05-0.05C21.15,76.9,21.14,77.05,21.17,77.17
		L21.17,77.17z"/>
	<path class="st1" d="M44.58,42.41c0.1-0.15,0.23-0.28,0.43-0.3C45.01,42.42,44.85,42.5,44.58,42.41z"/>
	<path class="st1" d="M19.18,36.3c0.04,0.01,0.08,0.03,0.12,0.04C19.27,36.33,19.22,36.32,19.18,36.3
		C19.18,36.31,19.18,36.3,19.18,36.3z"/>
	<path class="st1" d="M48.64,44.89c0.01-0.03,0.02-0.05,0.04-0.08C48.66,44.84,48.65,44.87,48.64,44.89L48.64,44.89z"/>
	<path class="st1" d="M48.64,44.89c0,0.06,0,0.12,0,0.18c0,0,0,0,0,0c-0.06,0-0.12,0-0.18,0c0,0,0.01,0.01,0.01,0.01
		C48.53,45.01,48.58,44.95,48.64,44.89C48.64,44.89,48.64,44.89,48.64,44.89z"/>
	<path class="st1" d="M46.58,46.61c-0.01,0.02-0.03,0.05-0.04,0.07C46.55,46.66,46.57,46.63,46.58,46.61
		C46.58,46.61,46.58,46.61,46.58,46.61z"/>
	<path class="st1" d="M32.84,72.37c0.02,0.01,0.05,0.02,0.07,0.04C32.89,72.39,32.87,72.38,32.84,72.37
		C32.84,72.36,32.84,72.37,32.84,72.37z"/>
	<path class="st1" d="M21.16,77.17c0.03,0.01,0.05,0.02,0.08,0.03C21.22,77.2,21.19,77.18,21.16,77.17
		C21.17,77.17,21.16,77.17,21.16,77.17z"/>
	<path class="st1" d="M21.68,77.51c-0.03-0.01-0.05-0.02-0.08-0.04C21.63,77.49,21.65,77.5,21.68,77.51
		C21.68,77.52,21.68,77.51,21.68,77.51z"/>
	<path class="st1" d="M21.68,77.52c0.03,0.01,0.05,0.02,0.08,0.04C21.73,77.54,21.71,77.53,21.68,77.52
		C21.68,77.51,21.68,77.52,21.68,77.52z"/>
	<path class="st0" d="M40.21,4.53c2.74-1.14,5.52-1.1,8.31-0.29c-0.84,0.1-1.67-0.14-2.49-0.26c-1.65-0.26-3.21,0.11-4.79,0.43
		c-0.34,0.07-0.66,0.15-1,0.15L40.21,4.53z"/>
	<path class="st0" d="M31.75,22.76c-0.08,0.32-0.24,0.59-0.45,0.84c-0.2-0.02-0.54,0.09-0.45-0.3
		C30.96,22.86,31.26,22.63,31.75,22.76z"/>
	<path class="st0" d="M50.26,5.01c0.49,0.03,0.89,0.23,1.34,0.61C50.88,5.8,50.6,5.33,50.26,5.01z"/>
	<path class="st0" d="M40.24,4.56C39.87,5,39.33,5.03,38.82,5.14c0.37-0.4,0.87-0.54,1.39-0.61C40.21,4.53,40.24,4.56,40.24,4.56z"
		/>
	<path class="st0" d="M54.29,6.94c-0.25-0.41,0.03-0.65,0.18-0.91C54.7,6.36,54.5,6.61,54.29,6.94z"/>
	<path class="st0" d="M56.16,10.4c-0.24-0.45-0.01-0.63,0.24-0.9C56.52,9.89,56.39,10.1,56.16,10.4z"/>
	<path class="st0" d="M49.58,4.55c0.18,0.03,0.3,0.09,0.33,0.25c0,0.01-0.15,0.08-0.21,0.06c-0.1-0.03-0.17-0.12-0.26-0.18
		C49.49,4.63,49.54,4.58,49.58,4.55z"/>
	<path class="st0" d="M33.7,8.49c0.01-0.22,0.12-0.33,0.34-0.35l0.02,0.02C34.04,8.37,33.91,8.48,33.7,8.49L33.7,8.49z"/>
	<path class="st0" d="M49.07,4.46c-0.02,0.02-0.04,0.05-0.05,0.05c-0.04-0.01-0.08-0.04-0.12-0.06c0.02-0.02,0.04-0.05,0.05-0.05
		C48.99,4.42,49.03,4.44,49.07,4.46z"/>
	<path class="st0" d="M28.38,14.68c-0.06,0.04-0.13,0.09-0.19,0.13c0,0-0.03-0.04-0.05-0.06C28.22,14.72,28.29,14.69,28.38,14.68
		L28.38,14.68z"/>
	<path class="st0" d="M28.37,14.67c0-0.14,0.03-0.27,0.17-0.34l0,0C28.55,14.47,28.52,14.6,28.37,14.67
		C28.38,14.68,28.37,14.67,28.37,14.67z"/>
	<path class="st0" d="M28.89,13.81c0,0.14-0.03,0.27-0.17,0.34c0,0,0,0,0,0C28.72,14.02,28.75,13.89,28.89,13.81L28.89,13.81z"/>
	<path class="st0" d="M37.31,5.92c-0.06,0.04-0.11,0.08-0.17,0.13c-0.02-0.03-0.04-0.06-0.06-0.09c0.07-0.02,0.14-0.04,0.21-0.06
		L37.31,5.92z"/>
	<path class="st0" d="M55.91,10.67c0.02,0,0.05,0,0.06,0.01c0.01,0.02,0.02,0.05,0.01,0.07c-0.03,0.07-0.07,0.07-0.09-0.01
		C55.88,10.72,55.9,10.69,55.91,10.67z"/>
	<path class="st0" d="M31.36,10.66c0.02,0.02,0.07,0.04,0.07,0.04c-0.01,0.05-0.03,0.11-0.06,0.15c-0.07,0.07-0.1,0.05-0.07-0.04
		C31.31,10.76,31.34,10.71,31.36,10.66z"/>
	<path class="st0" d="M56.66,9.23c-0.02,0-0.05,0.02-0.06,0.01c-0.02-0.01-0.02-0.04-0.03-0.07c0.03-0.01,0.07-0.01,0.1-0.02
		C56.67,9.18,56.67,9.2,56.66,9.23z"/>
	<path class="st0" d="M28.89,13.81c0.06-0.06,0.11-0.12,0.17-0.18c0,0,0.01,0.01,0.01,0.01C29.01,13.7,28.95,13.76,28.89,13.81
		C28.89,13.81,28.89,13.81,28.89,13.81z"/>
	<path class="st0" d="M29.24,13.47c-0.06,0.06-0.11,0.12-0.17,0.18c0,0-0.01-0.01-0.01-0.01C29.12,13.58,29.18,13.53,29.24,13.47
		L29.24,13.47z"/>
	<path class="st0" d="M29.24,13.47c0.02-0.03,0.05-0.05,0.07-0.08c0,0.02,0,0.04-0.01,0.05C29.28,13.45,29.26,13.46,29.24,13.47
		C29.24,13.47,29.24,13.47,29.24,13.47z"/>
	<path class="st0" d="M31.12,11.07c-0.01,0.02-0.02,0.04-0.03,0.06c-0.01,0.01-0.03,0.01-0.05,0.01
		C31.07,11.12,31.1,11.09,31.12,11.07C31.13,11.07,31.12,11.07,31.12,11.07z"/>
	<path class="st0" d="M31.3,10.89c-0.06,0.06-0.12,0.11-0.17,0.17c0,0,0,0,0,0C31.18,11.01,31.24,10.95,31.3,10.89z"/>
	<path class="st0" d="M32.33,9.69c-0.02,0.03-0.05,0.05-0.07,0.08c0-0.02,0-0.04,0.01-0.05C32.28,9.71,32.3,9.7,32.33,9.69
		L32.33,9.69z"/>
	<path class="st0" d="M32.33,9.69c0.03-0.02,0.05-0.05,0.08-0.07c0,0.02,0,0.04-0.02,0.05C32.37,9.68,32.35,9.69,32.33,9.69
		C32.33,9.69,32.33,9.69,32.33,9.69z"/>
	<path class="st0" d="M37.3,5.9c0.03-0.02,0.06-0.05,0.09-0.07c-0.02,0.03-0.05,0.06-0.07,0.09C37.31,5.92,37.3,5.9,37.3,5.9z"/>
	<path class="st0" d="M34.21,7.97c0.03-0.02,0.06-0.05,0.09-0.07c-0.03,0.03-0.05,0.06-0.08,0.08C34.22,7.98,34.21,7.97,34.21,7.97z
		"/>
	<path class="st0" d="M33.19,9.01c-0.03,0.02-0.06,0.05-0.08,0.07c0-0.02,0-0.04,0.02-0.05C33.14,9.01,33.16,9.01,33.19,9.01
		L33.19,9.01z"/>
	<path class="st0" d="M28.55,14.33c0.06-0.06,0.12-0.11,0.18-0.17c0,0,0,0,0,0C28.66,14.21,28.61,14.27,28.55,14.33
		C28.55,14.33,28.55,14.33,28.55,14.33z"/>
	<path class="st0" d="M33.18,9c0.02-0.03,0.05-0.05,0.07-0.08c0,0.02,0,0.04-0.01,0.05C33.23,8.99,33.21,9,33.18,9
		C33.19,9.01,33.18,9,33.18,9z"/>
	<path class="st0" d="M33.7,8.49c-0.03,0.02-0.05,0.05-0.08,0.07C33.65,8.54,33.67,8.51,33.7,8.49C33.7,8.49,33.7,8.49,33.7,8.49z"
		/>
	<path class="st0" d="M34.04,8.14c0.06-0.06,0.11-0.11,0.17-0.17c0,0,0.01,0.01,0.01,0.02c-0.06,0.06-0.11,0.11-0.17,0.17
		C34.05,8.15,34.04,8.14,34.04,8.14z"/>
	<path class="st0" d="M32.85,81.63c0.28,0,0.55,0,0.83,0C33.39,81.83,33.1,81.9,32.85,81.63C32.84,81.64,32.85,81.63,32.85,81.63z"
		/>
	<path class="st0" d="M70.08,52.29c-0.62-0.38-0.84-1.08-1.25-1.64c0.69,0.32,1.06,0.9,1.28,1.61L70.08,52.29z"/>
	<path class="st0" d="M70.12,52.26c0.13,0.08,0.17,0.2,0.17,0.35c0,0-0.03,0.03-0.03,0.03c-0.14-0.07-0.16-0.2-0.17-0.34
		C70.08,52.29,70.12,52.26,70.12,52.26z"/>
	<path class="st0" d="M70.43,52.97c-0.13-0.07-0.16-0.2-0.18-0.34c0,0,0.03-0.03,0.03-0.03c0.13,0.08,0.17,0.2,0.17,0.35
		L70.43,52.97z"/>
	<path class="st0" d="M70.46,52.95c0.04,0.07,0.09,0.13,0.12,0.2c0,0-0.04,0.03-0.06,0.05c-0.03-0.08-0.06-0.15-0.08-0.23
		C70.43,52.97,70.46,52.95,70.46,52.95z"/>
	<path class="st0" d="M48.46,45.06c0.06,0,0.12,0,0.18,0C48.58,45.21,48.52,45.19,48.46,45.06z"/>
	<path class="st0" d="M67.07,40.45c0.38-0.02,0.45,0.2,0.44,0.48c0,0.29,0,0.61-0.38,0.64c-0.33,0.03-0.39-0.28-0.44-0.51
		C66.64,40.75,66.75,40.51,67.07,40.45z"/>
</g>
</svg>
